<svg width="512" height="512" viewBox="0 0 512 512" fill="none" xmlns="http://www.w3.org/2000/svg">
<rect width="512" height="512" fill="white"/>
<path d="M256 512C397.385 512 512 397.385 512 256C512 114.615 397.385 0 256 0C114.615 0 0 114.615 0 256C0 397.385 114.615 512 256 512Z" fill="#0AC18E"/>
<path d="M335.853 170.039C322.989 140.865 293.425 134.628 257.234 140.671L245.604 95.5781L218.184 102.66L229.62 147.623C222.408 149.442 215.001 151.001 207.659 153.081L196.223 108.378L168.804 115.46L180.434 160.553C174.522 162.242 125.076 174.912 125.076 174.912L132.613 204.281C132.613 204.281 152.755 198.628 152.56 199.083C163.736 196.159 168.999 201.747 171.468 207.01L203.435 330.591C203.825 334.165 203.175 340.273 195.508 342.352C195.963 342.612 175.561 347.485 175.561 347.485L178.55 381.726C178.55 381.726 227.541 369.186 233.973 367.562L245.734 413.174L273.153 406.092L261.393 360.155C268.93 358.4 276.272 356.581 283.419 354.697L295.114 400.374L322.534 393.292L310.773 347.745C353.007 337.479 382.83 310.839 376.723 270.1C372.824 245.54 345.99 225.397 323.703 223.123C337.413 210.973 344.365 193.235 335.853 170.039ZM322.664 277.572C328.122 317.921 272.048 322.859 253.531 327.732L237.417 267.371C256 262.498 313.437 242.031 322.664 277.572ZM288.877 195.379C294.66 231.245 246.708 235.404 231.244 239.367L216.56 184.593C232.089 180.76 277.116 162.177 288.877 195.379Z" fill="white"/>
</svg>
