<svg viewBox="0 0 20 20" fill="none" xmlns="http://www.w3.org/2000/svg"><g clip-path="url(#a)"><path d="M10 20c5.523 0 10-4.477 10-10S15.523 0 10 0 0 4.477 0 10s4.477 10 10 10Z" fill="#F0B704"/><g clip-path="url(#b)"><path d="m7.676 5.94-1.318-.77L10.035 3l3.676 2.17-1.318.77-2.358-1.33-2.359 1.33Zm7.006 1.33v1.61L16 8.11V6.5l-1.318-.77-1.318.77 1.318.77ZM8.717 6.5l1.318.77 1.318-.77-1.318-.77-1.318.77Zm4.994 1.33-1.318-.77-2.358 1.33-2.359-1.33-1.318.77v1.61l2.359 1.33v2.73l1.318.77 1.318-.77v-2.73l2.358-1.33V7.83Zm.971 4.9-2.289 1.33v1.61l3.676-2.17V9.23l-1.387.77v2.73Zm-2.289.21 1.318-.77v-1.61l-1.318.77v1.61Zm-3.676 1.68v1.61l1.318.77 1.318-.77v-1.61l-1.318.77-1.318-.77ZM4 8.11l1.318.77V7.27l1.387-.77-1.318-.77L4 6.5v1.61ZM5.387 10 4.07 9.23v4.27l3.677 2.17v-1.61l-2.359-1.33V10Zm2.29 1.33-1.319-.77v1.61l1.318.77v-1.61Z" fill="#fff"/></g></g><defs><clipPath id="a"><path fill="#fff" d="M0 0h20v20H0z"/></clipPath><clipPath id="b"><path fill="#fff" transform="translate(4 3)" d="M0 0h12v14H0z"/></clipPath></defs></svg>