<svg width="512" height="512" viewBox="0 0 512 512" fill="none" xmlns="http://www.w3.org/2000/svg">
<rect width="512" height="512" fill="white"/>
<ellipse cx="256.195" cy="255.845" rx="255.805" ry="255.844" fill="white"/>
<path d="M233.608 259.167L218.687 320.996C237.872 325.26 296.494 344.449 305.021 309.27C313.547 273.025 252.794 264.497 233.608 259.167Z" fill="#F7931A"/>
<path d="M254.925 174.952L241.069 231.451C257.057 235.715 306.086 251.705 313.547 219.724C321.008 186.678 270.913 179.216 254.925 174.952Z" fill="#F7931A"/>
<path d="M317.811 7.58666C180.316 -26.5259 41.7547 57.6895 7.64741 194.14C-26.4599 331.656 56.6767 470.239 194.172 504.351C331.667 538.464 470.228 455.315 504.335 317.798C538.442 181.348 455.306 42.7653 317.811 7.58666ZM368.972 219.724C365.774 244.243 351.918 257.035 332.733 261.299C358.313 274.091 371.103 294.346 358.313 329.524C343.391 373.231 307.152 376.429 259.189 367.901L247.464 414.806L219.752 406.278L231.477 360.439C224.016 358.307 216.555 356.175 209.094 355.109L197.369 400.948L169.657 393.485L181.382 346.581C174.986 344.449 168.591 343.383 161.13 341.251L124.891 331.656L138.747 299.676L158.999 305.006C166.46 307.138 170.723 301.808 171.789 298.61L189.908 225.055C190.974 225.055 192.04 225.054 193.106 226.12C192.04 226.12 190.974 225.055 189.908 225.055L202.699 172.82C202.699 166.423 200.567 158.961 189.908 156.829L169.657 151.499L177.118 121.651L215.489 131.245C220.818 132.311 227.213 134.443 233.608 135.509L245.333 89.6701L273.045 97.1322L261.321 141.905C268.782 144.037 276.242 145.103 283.703 147.235L294.362 102.462L322.074 109.924L310.35 155.763C347.655 167.489 374.301 185.612 368.972 219.724Z" fill="#F7931A"/>
</svg>
