<svg viewBox="0 0 153 120" style='color:#ffaf33' fill="none" xmlns="http://www.w3.org/2000/svg"><g opacity="0.5" filter="url(#filter0_f_16507_286818)"><circle cx="109" cy="104" r="44" fill="currentColor"></circle></g><path d="M72.387 61.6698L71.3536 61.3305L71.1021 62.3886C68.1948 74.6179 68.849 82.4359 71.3397 87.8753C73.6279 92.8725 77.6367 96.2482 82.861 99.2567L84.1555 100.002L84.3514 98.5213L88.4168 67.792L88.5256 66.9696L87.7374 66.7108L72.387 61.6698ZM66.6977 59.3726C67.3161 56.9645 69.8502 55.5741 72.2146 56.3505L90.619 62.3944C92.5949 63.0433 93.8288 65.0071 93.5561 67.0688L88.9822 101.641C88.595 104.568 85.4075 106.306 82.7271 104.89C76.1316 101.404 70.0931 97.1626 66.7936 89.9569C63.5039 82.7726 63.1607 73.1453 66.6977 59.3726Z" fill="currentColor"></path><path d="M72.387 61.6698L71.3536 61.3305L71.1021 62.3886C68.1948 74.6179 68.849 82.4359 71.3397 87.8753C73.6279 92.8725 77.6367 96.2482 82.861 99.2567L84.1555 100.002L84.3514 98.5213L88.4168 67.792L88.5256 66.9696L87.7374 66.7108L72.387 61.6698ZM66.6977 59.3726C67.3161 56.9645 69.8502 55.5741 72.2146 56.3505L90.619 62.3944C92.5949 63.0433 93.8288 65.0071 93.5561 67.0688L88.9822 101.641C88.595 104.568 85.4075 106.306 82.7271 104.89C76.1316 101.404 70.0931 97.1626 66.7936 89.9569C63.5039 82.7726 63.1607 73.1453 66.6977 59.3726Z" fill="url(#paint0_linear_16507_286818)" fill-opacity="0.2"></path><path d="M72.387 61.6698L71.3536 61.3305L71.1021 62.3886C68.1948 74.6179 68.849 82.4359 71.3397 87.8753C73.6279 92.8725 77.6367 96.2482 82.861 99.2567L84.1555 100.002L84.3514 98.5213L88.4168 67.792L88.5256 66.9696L87.7374 66.7108L72.387 61.6698ZM66.6977 59.3726C67.3161 56.9645 69.8502 55.5741 72.2146 56.3505L90.619 62.3944C92.5949 63.0433 93.8288 65.0071 93.5561 67.0688L88.9822 101.641C88.595 104.568 85.4075 106.306 82.7271 104.89C76.1316 101.404 70.0931 97.1626 66.7936 89.9569C63.5039 82.7726 63.1607 73.1453 66.6977 59.3726Z" stroke="url(#paint1_linear_16507_286818)" stroke-width="2"></path><path fill-rule="evenodd" clip-rule="evenodd" d="M157.618 85.541C154.053 97.4778 149.669 103.681 145.048 106.965C140.81 109.977 135.892 110.883 129.959 110.876L141.803 82.2313L157.618 85.541ZM164.861 85.6863C165.685 82.7352 163.839 79.6912 160.836 79.0629L141.876 75.0948C139.369 74.5703 136.844 75.9047 135.866 78.2712L122.541 110.498C121.156 113.847 123.47 117.681 127.22 117.821C134.741 118.103 142.368 117.457 149.102 112.671C155.81 107.905 161.009 99.4849 164.861 85.6863Z" fill="currentColor"></path><path fill-rule="evenodd" clip-rule="evenodd" d="M157.618 85.541C154.053 97.4778 149.669 103.681 145.048 106.965C140.81 109.977 135.892 110.883 129.959 110.876L141.803 82.2313L157.618 85.541ZM164.861 85.6863C165.685 82.7352 163.839 79.6912 160.836 79.0629L141.876 75.0948C139.369 74.5703 136.844 75.9047 135.866 78.2712L122.541 110.498C121.156 113.847 123.47 117.681 127.22 117.821C134.741 118.103 142.368 117.457 149.102 112.671C155.81 107.905 161.009 99.4849 164.861 85.6863Z" fill="url(#paint2_linear_16507_286818)" fill-opacity="0.2"></path><path d="M98.1024 117.269L107.26 119.723C104.206 129.168 103.926 134.63 105.62 144.625L87.0708 139.655C94.2118 131.198 96.6087 126.3 98.1024 117.269Z" fill="currentColor"></path><path d="M98.1024 117.269L107.26 119.723C104.206 129.168 103.926 134.63 105.62 144.625L87.0708 139.655C94.2118 131.198 96.6087 126.3 98.1024 117.269Z" fill="url(#paint3_linear_16507_286818)" fill-opacity="0.2"></path><path d="M145.384 81.2688C138.287 107.754 118.862 125.562 101.996 121.043C85.1304 116.524 77.2113 91.3892 84.3081 64.9036C85.2997 61.2027 85.8139 59.879 87.0039 57.2995C87.5339 56.1506 88.3931 55.1833 89.5946 54.7866C93.0237 53.6547 101.755 52.1105 118.584 56.7284C134.524 61.1025 142.12 66.0359 145.254 68.6165C146.548 69.6816 147.06 71.3367 146.897 73.0042C146.627 75.7569 146.311 77.8099 145.384 81.2688Z" fill="currentColor"></path><path d="M145.384 81.2688C138.287 107.754 118.862 125.562 101.996 121.043C85.1304 116.524 77.2113 91.3892 84.3081 64.9036C85.2997 61.2027 85.8139 59.879 87.0039 57.2995C87.5339 56.1506 88.3931 55.1833 89.5946 54.7866C93.0237 53.6547 101.755 52.1105 118.584 56.7284C134.524 61.1025 142.12 66.0359 145.254 68.6165C146.548 69.6816 147.06 71.3367 146.897 73.0042C146.627 75.7569 146.311 77.8099 145.384 81.2688Z" fill="#17273b" fill-opacity="0.3"></path><path d="M144.418 81.0099C140.911 94.0973 134.369 104.995 126.678 112.045C118.976 119.105 110.243 122.217 102.255 120.077C94.2666 117.936 88.2596 110.875 85.1199 100.91C81.9844 90.9585 81.7672 78.2498 85.274 65.1624C86.2516 61.514 86.7468 60.244 87.9119 57.7184C88.3657 56.7349 89.0481 56.0201 89.9081 55.7362C93.1053 54.6808 101.629 53.1129 118.319 57.6928C134.154 62.0379 141.615 66.9155 144.619 69.3885C145.6 70.1963 146.04 71.4926 145.901 72.9066C145.636 75.6108 145.329 77.6094 144.418 81.0099Z" stroke="url(#paint4_linear_16507_286818)" stroke-opacity="0.2" stroke-width="2"></path><path d="M144.416 81.01C140.909 94.0974 134.366 104.995 126.675 112.045C118.974 119.105 110.241 122.217 102.253 120.077C94.2643 117.936 88.2574 110.875 85.1177 100.91C81.9822 90.9585 81.765 78.2498 85.2718 65.1625C85.7495 63.3793 86.2839 61.6363 86.8699 59.9377C87.9698 56.7503 91.9236 55.509 95.09 57.2597C100.433 60.214 108.329 64.0325 116.281 65.8778C124.553 67.7972 134.032 68.5777 140.38 68.8964C143.787 69.0676 146.335 71.9879 145.745 75.1568C145.383 77.0946 144.941 79.0484 144.416 81.01Z" fill="currentColor"></path><path d="M144.416 81.01C140.909 94.0974 134.366 104.995 126.675 112.045C118.974 119.105 110.241 122.217 102.253 120.077C94.2643 117.936 88.2574 110.875 85.1177 100.91C81.9822 90.9585 81.765 78.2498 85.2718 65.1625C85.7495 63.3793 86.2839 61.6363 86.8699 59.9377C87.9698 56.7503 91.9236 55.509 95.09 57.2597C100.433 60.214 108.329 64.0325 116.281 65.8778C124.553 67.7972 134.032 68.5777 140.38 68.8964C143.787 69.0676 146.335 71.9879 145.745 75.1568C145.383 77.0946 144.941 79.0484 144.416 81.01Z" fill="url(#paint5_linear_16507_286818)" fill-opacity="0.3"></path><path d="M144.416 81.01C140.909 94.0974 134.366 104.995 126.675 112.045C118.974 119.105 110.241 122.217 102.253 120.077C94.2643 117.936 88.2574 110.875 85.1177 100.91C81.9822 90.9585 81.765 78.2498 85.2718 65.1625C85.7495 63.3793 86.2839 61.6363 86.8699 59.9377C87.9698 56.7503 91.9236 55.509 95.09 57.2597C100.433 60.214 108.329 64.0325 116.281 65.8778C124.553 67.7972 134.032 68.5777 140.38 68.8964C143.787 69.0676 146.335 71.9879 145.745 75.1568C145.383 77.0946 144.941 79.0484 144.416 81.01Z" stroke="url(#paint6_linear_16507_286818)" stroke-width="2"></path><path d="M134.117 83.6002C128.285 105.364 114.332 120.535 102.952 117.485C91.5711 114.436 87.0727 94.3208 92.9043 72.5573C93.3587 70.8613 93.8624 69.2054 94.4104 67.595C95.4804 64.4509 98.8627 62.8334 102.071 63.6929L130.611 71.3402C133.819 72.1998 135.939 75.2918 135.294 78.5496C134.963 80.2183 134.571 81.9042 134.117 83.6002Z" fill="currentColor"></path><path d="M111.944 79.5806L115.438 80.5169L111.225 96.2407L114.137 97.021L113.512 99.3504L103.03 96.5416L103.654 94.2122L106.566 94.9924L109.531 83.9274L106.619 83.1472L107.243 80.8177L107.825 80.9738C108.141 81.0583 108.416 81.1166 108.652 81.1486C108.89 81.1757 109.139 81.175 109.402 81.1466C109.671 81.1145 109.93 81.0409 110.179 80.9256C110.43 80.8055 110.701 80.6364 110.994 80.4183C111.286 80.2002 111.603 79.921 111.944 79.5806Z" fill="#17273b" fill-opacity="0.4"></path><defs><filter id="filter0_f_16507_286818" x="0" y="-5" width="218" height="218" filterUnits="userSpaceOnUse" color-interpolation-filters="sRGB"><feFlood flood-opacity="0" result="BackgroundImageFix"></feFlood><feBlend mode="normal" in="SourceGraphic" in2="BackgroundImageFix" result="shape"></feBlend><feGaussianBlur stdDeviation="32.5" result="effect1_foregroundBlur_16507_286818"></feGaussianBlur></filter><linearGradient id="paint0_linear_16507_286818" x1="83.0511" y1="61.7284" x2="72.7311" y2="100.243" gradientUnits="userSpaceOnUse"><stop stop-color="#17273b" stop-opacity="0"></stop><stop offset="1" stop-color="#17273b"></stop></linearGradient><linearGradient id="paint1_linear_16507_286818" x1="58.1643" y1="56.4282" x2="71.9715" y2="76.4486" gradientUnits="userSpaceOnUse"><stop stop-color="white"></stop><stop offset="1" stop-color="white" stop-opacity="0"></stop></linearGradient><linearGradient id="paint2_linear_16507_286818" x1="148.558" y1="79.2808" x2="138.238" y2="117.796" gradientUnits="userSpaceOnUse"><stop stop-color="#17273b" stop-opacity="0"></stop><stop offset="1" stop-color="#17273b"></stop></linearGradient><linearGradient id="paint3_linear_16507_286818" x1="102.681" y1="118.496" x2="96.3456" y2="142.14" gradientUnits="userSpaceOnUse"><stop offset="0.0783161" stop-color="#17273b"></stop><stop offset="0.927339" stop-color="#17273b" stop-opacity="0"></stop></linearGradient><linearGradient id="paint4_linear_16507_286818" x1="118.279" y1="60.2274" x2="101.985" y2="121.038" gradientUnits="userSpaceOnUse"><stop stop-color="white"></stop><stop offset="0.675414" stop-color="white" stop-opacity="0"></stop></linearGradient><linearGradient id="paint5_linear_16507_286818" x1="118.288" y1="60.2323" x2="101.994" y2="121.043" gradientUnits="userSpaceOnUse"><stop offset="0.370531" stop-color="#17273b" stop-opacity="0"></stop><stop offset="1" stop-color="#17273b"></stop></linearGradient><linearGradient id="paint6_linear_16507_286818" x1="118.288" y1="60.2323" x2="101.994" y2="121.043" gradientUnits="userSpaceOnUse"><stop stop-color="white"></stop><stop offset="0.675414" stop-color="white" stop-opacity="0"></stop></linearGradient></defs></svg>