<svg viewBox="0 0 153 120" style='color:#ffaf33' fill="none" xmlns="http://www.w3.org/2000/svg"><g opacity="0.5" filter="url(#filter0_f_16507_286818)"><circle cx="109" cy="104" r="44" fill="currentColor"></circle></g><path d="M72.5188 86.5177C73.566 82.6095 76.8651 79.7175 80.8767 79.1909L85.965 78.5231C87.5829 78.3107 89.2283 78.4976 90.7574 79.0673L134.021 95.1853C138.853 96.9853 141.524 102.164 140.189 107.144L125.274 162.807C123.845 168.142 118.362 171.308 113.027 169.878L64.0514 156.756C58.7167 155.326 55.5509 149.843 56.9803 144.508L72.5188 86.5177Z" fill="currentColor"></path><path d="M72.5188 86.5177C73.566 82.6095 76.8651 79.7175 80.8767 79.1909L85.965 78.5231C87.5829 78.3107 89.2283 78.4976 90.7574 79.0673L134.021 95.1853C138.853 96.9853 141.524 102.164 140.189 107.144L125.274 162.807C123.845 168.142 118.362 171.308 113.027 169.878L64.0514 156.756C58.7167 155.326 55.5509 149.843 56.9803 144.508L72.5188 86.5177Z" fill="url(#paint0_linear_16507_286818)" fill-opacity="0.4"></path><rect x="81.5703" y="76.0001" width="70.7031" height="76.7207" rx="10" transform="rotate(15 81.5703 76.0001)" fill="currentColor"></rect><rect x="81.5703" y="76.0001" width="70.7031" height="76.7207" rx="10" transform="rotate(15 81.5703 76.0001)" fill="url(#paint1_linear_16507_286818)" fill-opacity="0.2"></rect><rect x="82.2774" y="77.2249" width="68.7031" height="74.7207" rx="9" transform="rotate(15 82.2774 77.2249)" stroke="url(#paint2_linear_16507_286818)" stroke-opacity="0.4" stroke-width="2"></rect><g opacity="0.4" clip-path="url(#clip0_16507_286818)"><path d="M103.906 114.595C103.745 114.526 103.529 114.469 103.331 114.441C99.149 113.168 96.7067 108.855 97.8308 104.66C98.9804 100.369 103.415 97.8229 107.779 98.9922C112.119 100.155 114.71 104.584 113.56 108.874C112.412 113.063 108.165 115.584 103.906 114.595Z" fill="#17273b"></path><path d="M99.7909 128.807C97.337 128.16 86.1359 125.148 88.4105 122.562C91.7984 118.706 97.2318 116.878 102.603 118.317C107.945 119.749 111.75 124.052 112.765 129.088C113.446 132.466 104.969 130.172 99.7909 128.807Z" fill="#17273b"></path></g><path d="M97.2692 70.3274C98.3544 66.2777 101.851 63.3348 106.026 62.9564L112.43 62.3761C113.926 62.2406 115.432 62.4436 116.839 62.97L158.866 78.7024C163.689 80.5079 166.352 85.6813 165.019 90.6559L150.101 146.333C148.671 151.667 143.188 154.833 137.853 153.404L88.878 140.281C83.5433 138.852 80.3775 133.368 81.8069 128.033L97.2692 70.3274Z" fill="currentColor"></path><path d="M97.2692 70.3274C98.3544 66.2777 101.851 63.3348 106.026 62.9564L112.43 62.3761C113.926 62.2406 115.432 62.4436 116.839 62.97L158.866 78.7024C163.689 80.5079 166.352 85.6813 165.019 90.6559L150.101 146.333C148.671 151.667 143.188 154.833 137.853 153.404L88.878 140.281C83.5433 138.852 80.3775 133.368 81.8069 128.033L97.2692 70.3274Z" fill="url(#paint3_linear_16507_286818)" fill-opacity="0.4"></path><rect x="108.277" y="61.2247" width="68.7031" height="74.7207" rx="9" transform="rotate(15 108.277 61.2247)" fill="currentColor" stroke="url(#paint4_linear_16507_286818)" stroke-width="2"></rect><g opacity="0.4" clip-path="url(#clip1_16507_286818)"><path d="M129.906 98.5949C129.745 98.5263 129.529 98.4684 129.331 98.4407C125.149 97.1677 122.707 92.855 123.831 88.6595C124.98 84.3692 129.415 81.8228 133.779 82.9921C138.119 84.155 140.71 88.5839 139.56 92.8742C138.412 97.0633 134.165 99.5835 129.906 98.5949Z" fill="#17273b"></path><path d="M125.791 112.807C123.337 112.16 112.136 109.148 114.411 106.562C117.798 102.706 123.232 100.878 128.603 102.317C133.945 103.749 137.75 108.052 138.765 113.088C139.446 116.466 130.969 114.172 125.791 112.807Z" fill="#17273b"></path></g><defs><filter id="filter0_f_16507_286818" x="0" y="-5" width="218" height="218" filterUnits="userSpaceOnUse" color-interpolation-filters="sRGB"><feFlood flood-opacity="0" result="BackgroundImageFix"></feFlood><feBlend mode="normal" in="SourceGraphic" in2="BackgroundImageFix" result="shape"></feBlend><feGaussianBlur stdDeviation="32.5" result="effect1_foregroundBlur_16507_286818"></feGaussianBlur></filter><linearGradient id="paint0_linear_16507_286818" x1="109.484" y1="85.1497" x2="88.539" y2="163.317" gradientUnits="userSpaceOnUse"><stop offset="0.0412865" stop-color="#17273b" stop-opacity="0"></stop><stop offset="0.587543" stop-color="#17273b"></stop></linearGradient><linearGradient id="paint1_linear_16507_286818" x1="116.922" y1="76.0001" x2="116.922" y2="152.721" gradientUnits="userSpaceOnUse"><stop stop-color="#17273b" stop-opacity="0"></stop><stop offset="0.463542" stop-color="#17273b"></stop></linearGradient><linearGradient id="paint2_linear_16507_286818" x1="99.2327" y1="86.0015" x2="121.155" y2="151.3" gradientUnits="userSpaceOnUse"><stop stop-color="white"></stop><stop offset="1" stop-color="white" stop-opacity="0"></stop></linearGradient><linearGradient id="paint3_linear_16507_286818" x1="134.31" y1="68.6752" x2="113.365" y2="146.842" gradientUnits="userSpaceOnUse"><stop offset="0.0412865" stop-color="#17273b" stop-opacity="0"></stop><stop offset="0.723382" stop-color="#17273b"></stop></linearGradient><linearGradient id="paint4_linear_16507_286818" x1="125.233" y1="70.0014" x2="147.155" y2="135.3" gradientUnits="userSpaceOnUse"><stop stop-color="white"></stop><stop offset="1" stop-color="white" stop-opacity="0"></stop></linearGradient><clipPath id="clip0_16507_286818"><rect width="30.8653" height="30.8653" fill="white" transform="translate(92.875 95.0001) rotate(15)"></rect></clipPath><clipPath id="clip1_16507_286818"><rect width="30.8653" height="30.8653" fill="white" transform="translate(118.875 79) rotate(15)"></rect></clipPath></defs></svg>