<svg viewBox="0 0 36 38" style='color:#ffaf33' fill="none" xmlns="http://www.w3.org/2000/svg"><path fill-rule="evenodd" clip-rule="evenodd" d="M2.44668 4.30061C2.56971 8.33641 3.48406 10.6461 4.74105 12.0618C5.89368 13.3599 7.46412 14.0562 9.45781 14.5517L8.05742 4.59106L2.44668 4.30061ZM0.000102305 3.73849C-0.0110017 2.74558 0.883312 1.94755 1.94854 2.0027L8.67552 2.35094C9.56478 2.39697 10.2928 3.02649 10.4085 3.84937L11.9841 15.0557C12.1478 16.2202 11.0255 17.2262 9.75288 16.9555C7.20105 16.4129 4.69695 15.5709 2.86525 13.5079C1.0408 11.4531 0.0520238 8.3812 0.000102305 3.73849Z" fill="currentColor"></path><path fill-rule="evenodd" clip-rule="evenodd" d="M2.44668 4.30061C2.56971 8.33641 3.48406 10.6461 4.74105 12.0618C5.89368 13.3599 7.46412 14.0562 9.45781 14.5517L8.05742 4.59106L2.44668 4.30061ZM0.000102305 3.73849C-0.0110017 2.74558 0.883312 1.94755 1.94854 2.0027L8.67552 2.35094C9.56478 2.39697 10.2928 3.02649 10.4085 3.84937L11.9841 15.0557C12.1478 16.2202 11.0255 17.2262 9.75288 16.9555C7.20105 16.4129 4.69695 15.5709 2.86525 13.5079C1.0408 11.4531 0.0520238 8.3812 0.000102305 3.73849Z" fill="url(#paint0_linear_16603_285720)" fill-opacity="0.4"></path><path fill-rule="evenodd" clip-rule="evenodd" d="M33.5533 4.30061C33.4303 8.33641 32.5159 10.6461 31.2589 12.0618C30.1063 13.3599 28.5359 14.0562 26.5422 14.5517L27.9426 4.59106L33.5533 4.30061ZM35.9999 3.73849C36.011 2.74558 35.1167 1.94755 34.0515 2.0027L27.3245 2.35094C26.4352 2.39697 25.7072 3.02649 25.5915 3.84937L24.0159 15.0557C23.8522 16.2202 24.9745 17.2262 26.2471 16.9555C28.7989 16.4129 31.3031 15.5709 33.1348 13.5079C34.9592 11.4531 35.948 8.3812 35.9999 3.73849Z" fill="currentColor"></path><path fill-rule="evenodd" clip-rule="evenodd" d="M33.5533 4.30061C33.4303 8.33641 32.5159 10.6461 31.2589 12.0618C30.1063 13.3599 28.5359 14.0562 26.5422 14.5517L27.9426 4.59106L33.5533 4.30061ZM35.9999 3.73849C36.011 2.74558 35.1167 1.94755 34.0515 2.0027L27.3245 2.35094C26.4352 2.39697 25.7072 3.02649 25.5915 3.84937L24.0159 15.0557C23.8522 16.2202 24.9745 17.2262 26.2471 16.9555C28.7989 16.4129 31.3031 15.5709 33.1348 13.5079C34.9592 11.4531 35.948 8.3812 35.9999 3.73849Z" fill="url(#paint1_linear_16603_285720)" fill-opacity="0.4"></path><path d="M16.0254 20H19.9746C19.7642 23.6762 20.4513 26.1092 23 29.0767H13C15.3885 26.0217 16.398 23.3781 16.0254 20Z" fill="currentColor"></path><path d="M16.0254 20H19.9746C19.7642 23.6762 20.4513 26.1092 23 29.0767H13C15.3885 26.0217 16.398 23.3781 16.0254 20Z" fill="url(#paint2_linear_16603_285720)" fill-opacity="0.4"></path><path d="M27.7122 4.33436C27.7122 8.71942 26.5794 12.6659 24.7743 15.5005C22.9656 18.341 20.5282 20.0055 17.9147 20.0055C15.3012 20.0055 12.8638 18.341 11.055 15.5005C9.24998 12.6659 8.11719 8.71942 8.11719 4.33436C8.11719 3.91836 8.12739 3.50619 8.1474 3.09842C8.22019 1.61586 9.52166 0.5 11.0863 0.5L24.743 0.5C26.3077 0.5 27.6092 1.61586 27.6819 3.09842C27.702 3.50619 27.7122 3.91836 27.7122 4.33436Z" fill="currentColor"></path><path d="M27.7122 4.33436C27.7122 8.71942 26.5794 12.6659 24.7743 15.5005C22.9656 18.341 20.5282 20.0055 17.9147 20.0055C15.3012 20.0055 12.8638 18.341 11.055 15.5005C9.24998 12.6659 8.11719 8.71942 8.11719 4.33436C8.11719 3.91836 8.12739 3.50619 8.1474 3.09842C8.22019 1.61586 9.52166 0.5 11.0863 0.5L24.743 0.5C26.3077 0.5 27.6092 1.61586 27.6819 3.09842C27.702 3.50619 27.7122 3.91836 27.7122 4.33436Z" fill="url(#paint3_linear_16603_285720)" fill-opacity="0.6"></path><path d="M27.7122 4.33436C27.7122 8.71942 26.5794 12.6659 24.7743 15.5005C22.9656 18.341 20.5282 20.0055 17.9147 20.0055C15.3012 20.0055 12.8638 18.341 11.055 15.5005C9.24998 12.6659 8.11719 8.71942 8.11719 4.33436C8.11719 3.91836 8.12739 3.50619 8.1474 3.09842C8.22019 1.61586 9.52166 0.5 11.0863 0.5L24.743 0.5C26.3077 0.5 27.6092 1.61586 27.6819 3.09842C27.702 3.50619 27.7122 3.91836 27.7122 4.33436Z" stroke="url(#paint4_linear_16603_285720)"></path><path d="M24.8658 5.83555C24.8658 13.0486 21.7549 18.8959 17.9173 18.8959C14.0797 18.8959 10.9688 13.0486 10.9688 5.83555C10.9688 3.81758 12.716 2.33496 14.734 2.33496L21.1006 2.33496C23.1186 2.33496 24.8658 3.81758 24.8658 5.83555Z" fill="currentColor"></path><rect x="8.58594" y="28.7012" width="18.6872" height="8.05133" rx="2.47" fill="#17273b"></rect><rect x="8.58594" y="28.7012" width="18.6872" height="8.05133" rx="2.47" fill="currentColor" fill-opacity="0.5"></rect><rect x="11.9219" y="30.5264" width="12.0284" height="2.8002" rx="1.4001" fill="#17273b"></rect><rect x="11.9219" y="30.5264" width="12.0284" height="2.8002" rx="1.4001" fill="white"></rect><rect width="22.3497" height="2.41382" rx="1.20691" transform="matrix(1 0 0 -1 6.75781 37.3428)" fill="currentColor"></rect><defs><linearGradient id="paint0_linear_16603_285720" x1="6.05382" y1="3.10084" x2="6.05382" y2="16.0234" gradientUnits="userSpaceOnUse"><stop stop-color="#17273b" stop-opacity="0"></stop><stop offset="1" stop-color="#17273b"></stop></linearGradient><linearGradient id="paint1_linear_16603_285720" x1="29.9462" y1="3.10084" x2="29.9462" y2="16.0234" gradientUnits="userSpaceOnUse"><stop stop-color="#17273b" stop-opacity="0"></stop><stop offset="1" stop-color="#17273b"></stop></linearGradient><linearGradient id="paint2_linear_16603_285720" x1="18" y1="20" x2="18" y2="29.0767" gradientUnits="userSpaceOnUse"><stop offset="0.0783161" stop-color="#17273b"></stop><stop offset="0.927339" stop-color="#17273b" stop-opacity="0"></stop></linearGradient><linearGradient id="paint3_linear_16603_285720" x1="17.9147" y1="0" x2="17.9147" y2="20.5055" gradientUnits="userSpaceOnUse"><stop offset="0.225381" stop-color="#17273b" stop-opacity="0"></stop><stop offset="1" stop-color="#17273b"></stop></linearGradient><linearGradient id="paint4_linear_16603_285720" x1="17.9147" y1="0" x2="17.9147" y2="20.5055" gradientUnits="userSpaceOnUse"><stop stop-color="white"></stop><stop offset="0.675414" stop-color="white" stop-opacity="0"></stop></linearGradient></defs></svg>