<svg viewBox="0 0 18 18" fill="none" xmlns="http://www.w3.org/2000/svg">
<g clip-path="url(#clip0_16741_39950)">
<path d="M9 18C13.9706 18 18 13.9706 18 9C18 4.02944 13.9706 0 9 0C4.02944 0 0 4.02944 0 9C0 13.9706 4.02944 18 9 18Z" fill="#008CE7"/>
<path d="M10.7359 4.50224H6.64314L6.30452 6.39618L9.99564 6.40181C11.8131 6.40181 12.3525 7.06162 12.3351 8.15681C12.3272 8.71818 12.0825 9.66768 11.979 9.97368C11.6995 10.7949 11.1235 11.7298 8.96458 11.727L5.37696 11.7247L5.03833 13.6209H9.12039C10.5598 13.6209 11.173 13.4527 11.8204 13.1541C13.257 12.4914 14.1126 11.0722 14.4563 9.21993C14.9659 6.46368 14.3303 4.50224 10.7353 4.50224H10.7359Z" fill="white"/>
<path d="M8.89138 8.88637C9.0247 8.33231 9.06688 8.11012 9.06688 8.11012H4.87851C3.80751 8.11012 3.65451 8.80762 3.5527 9.2295C3.41938 9.78131 3.3772 10.0063 3.3772 10.0063H7.56613C8.63657 10.0063 8.78957 9.30881 8.89138 8.88637Z" fill="white"/>
</g>
<defs>
<clipPath id="clip0_16741_39950">
<rect width="18" height="18" fill="white"/>
</clipPath>
</defs>
</svg>
