<svg viewBox="0 0 153 120" style='color:#ffaf33' fill="none" xmlns="http://www.w3.org/2000/svg"><g opacity="0.5" filter="url(#filter0_f_16507_286818)"><circle cx="109" cy="104" r="44" fill="currentColor"></circle></g><path fill-rule="evenodd" clip-rule="evenodd" d="M110.248 134.069C128.971 134.069 144.15 118.891 144.15 100.168C144.15 81.4444 128.971 66.2662 110.248 66.2662C91.5247 66.2662 76.3465 81.4444 76.3465 100.168C76.3465 118.891 91.5247 134.069 110.248 134.069ZM110.248 143.025C133.918 143.025 153.106 123.837 153.106 100.168C153.106 76.4983 135.429 55.7178 111.759 55.7178C88.0898 55.7178 67.3906 76.4983 67.3906 100.168C67.3906 123.837 86.5786 143.025 110.248 143.025Z" fill="currentColor"></path><path fill-rule="evenodd" clip-rule="evenodd" d="M110.248 134.069C128.971 134.069 144.15 118.891 144.15 100.168C144.15 81.4444 128.971 66.2662 110.248 66.2662C91.5247 66.2662 76.3465 81.4444 76.3465 100.168C76.3465 118.891 91.5247 134.069 110.248 134.069ZM110.248 143.025C133.918 143.025 153.106 123.837 153.106 100.168C153.106 76.4983 135.429 55.7178 111.759 55.7178C88.0898 55.7178 67.3906 76.4983 67.3906 100.168C67.3906 123.837 86.5786 143.025 110.248 143.025Z" fill="url(#paint0_linear_16507_286818)" fill-opacity="0.6"></path><path fill-rule="evenodd" clip-rule="evenodd" d="M116.045 130.54C134.768 130.54 149.947 115.362 149.947 96.6387C149.947 77.9154 134.768 62.7371 116.045 62.7371C97.3216 62.7371 82.1433 77.9154 82.1433 96.6387C82.1433 115.362 97.3216 130.54 116.045 130.54ZM116.045 139.496C139.714 139.496 158.902 120.308 158.902 96.6387C158.902 72.9692 139.714 53.7812 116.045 53.7812C92.3754 53.7812 73.1875 72.9692 73.1875 96.6387C73.1875 120.308 92.3754 139.496 116.045 139.496Z" fill="currentColor"></path><path fill-rule="evenodd" clip-rule="evenodd" d="M116.045 137.496C138.61 137.496 156.902 119.204 156.902 96.6387C156.902 74.0738 138.61 55.7812 116.045 55.7812C93.48 55.7812 75.1875 74.0738 75.1875 96.6387C75.1875 119.204 93.48 137.496 116.045 137.496ZM158.902 96.6387C158.902 120.308 139.714 139.496 116.045 139.496C92.3754 139.496 73.1875 120.308 73.1875 96.6387C73.1875 72.9692 92.3754 53.7812 116.045 53.7812C139.714 53.7812 158.902 72.9692 158.902 96.6387Z" fill="url(#paint1_linear_16507_286818)"></path><path d="M106.297 102.859C105.5 100.552 106.484 98.0073 108.626 96.8373L111.173 95.4456C113.952 93.9274 117.424 95.3419 118.351 98.3697L126.608 125.338C127.396 127.912 126.004 130.648 123.46 131.528L121.707 132.134C119.097 133.036 116.25 131.651 115.348 129.042L106.297 102.859Z" fill="currentColor"></path><path d="M106.297 102.859C105.5 100.552 106.484 98.0073 108.626 96.8373L111.173 95.4456C113.952 93.9274 117.424 95.3419 118.351 98.3697L126.608 125.338C127.396 127.912 126.004 130.648 123.46 131.528L121.707 132.134C119.097 133.036 116.25 131.651 115.348 129.042L106.297 102.859Z" fill="url(#paint2_linear_16507_286818)" fill-opacity="0.5"></path><rect x="108.641" y="96.0713" width="11.6796" height="28.3864" rx="5" transform="rotate(-19.0683 108.641 96.0713)" fill="currentColor"></rect><rect x="109.912" y="96.6897" width="9.67957" height="26.3864" rx="4" transform="rotate(-19.0683 109.912 96.6897)" stroke="url(#paint3_linear_16507_286818)" stroke-opacity="0.5" stroke-width="2"></rect><path d="M100.929 87.4824C99.9204 84.5648 101.374 81.3685 104.235 80.2107C105.261 79.8196 108.331 78.382 109.457 78.4084C111.14 78.448 110.83 80.2525 111.745 81.614C112.163 82.2362 112.515 83.0248 112.749 84.0909C113.384 86.9743 115.54 88.6574 112.749 89.622L108.306 91.0694C105.278 92.1159 101.975 90.51 100.929 87.4824Z" fill="currentColor"></path><path d="M100.929 87.4824C99.9204 84.5648 101.374 81.3685 104.235 80.2107C105.261 79.8196 108.331 78.382 109.457 78.4084C111.14 78.448 110.83 80.2525 111.745 81.614C112.163 82.2362 112.515 83.0248 112.749 84.0909C113.384 86.9743 115.54 88.6574 112.749 89.622L108.306 91.0694C105.278 92.1159 101.975 90.51 100.929 87.4824Z" fill="url(#paint4_linear_16507_286818)" fill-opacity="0.5"></path><rect x="104.444" y="81.0149" width="9.67957" height="9.82549" rx="4.83979" transform="rotate(-19.0683 104.444 81.0149)" fill="currentColor" stroke="url(#paint5_linear_16507_286818)" stroke-width="2"></rect><defs><filter id="filter0_f_16507_286818" x="0" y="-5" width="218" height="218" filterUnits="userSpaceOnUse" color-interpolation-filters="sRGB"><feFlood flood-opacity="0" result="BackgroundImageFix"></feFlood><feBlend mode="normal" in="SourceGraphic" in2="BackgroundImageFix" result="shape"></feBlend><feGaussianBlur stdDeviation="32.5" result="effect1_foregroundBlur_16507_286818"></feGaussianBlur></filter><linearGradient id="paint0_linear_16507_286818" x1="63.7885" y1="33.7556" x2="109.746" y2="143.025" gradientUnits="userSpaceOnUse"><stop offset="0.0412865" stop-color="#17273b" stop-opacity="0"></stop><stop offset="0.663791" stop-color="#17273b"></stop></linearGradient><linearGradient id="paint1_linear_16507_286818" x1="83.8723" y1="68.8306" x2="108.613" y2="112.317" gradientUnits="userSpaceOnUse"><stop stop-color="white"></stop><stop offset="1" stop-color="white" stop-opacity="0"></stop></linearGradient><linearGradient id="paint2_linear_16507_286818" x1="100.46" y1="87.652" x2="134.556" y2="100.004" gradientUnits="userSpaceOnUse"><stop offset="0.0412865" stop-color="#17273b" stop-opacity="0"></stop><stop offset="0.723382" stop-color="#17273b"></stop></linearGradient><linearGradient id="paint3_linear_16507_286818" x1="108.943" y1="95.1962" x2="115.732" y2="112.67" gradientUnits="userSpaceOnUse"><stop stop-color="white"></stop><stop offset="1" stop-color="white" stop-opacity="0"></stop></linearGradient><linearGradient id="paint4_linear_16507_286818" x1="97.4043" y1="78.9678" x2="107.971" y2="91.6531" gradientUnits="userSpaceOnUse"><stop offset="0.0412865" stop-color="#17273b" stop-opacity="0"></stop><stop offset="0.723382" stop-color="#17273b"></stop></linearGradient><linearGradient id="paint5_linear_16507_286818" x1="106.571" y1="82.5805" x2="109.012" y2="92.222" gradientUnits="userSpaceOnUse"><stop stop-color="white"></stop><stop offset="1" stop-color="white" stop-opacity="0"></stop></linearGradient></defs></svg>