<svg viewBox="0 0 153 120" style='color:#ffaf33' fill="none" xmlns="http://www.w3.org/2000/svg"><g opacity="0.5" filter="url(#filter0_f_16507_286818)"><circle cx="109" cy="104" r="44" fill="currentColor"></circle></g><path d="M142.375 75.503C142.379 74.4572 142.928 73.489 143.823 72.9478L150.974 68.6237L163.405 135.777C163.976 138.859 161.604 141.699 158.47 141.687L147.111 141.644C144.35 141.633 142.119 139.385 142.131 136.624L142.375 75.503Z" fill="currentColor"></path><path d="M142.375 75.503C142.379 74.4572 142.928 73.489 143.823 72.9478L150.974 68.6237L163.405 135.777C163.976 138.859 161.604 141.699 158.47 141.687L147.111 141.644C144.35 141.633 142.119 139.385 142.131 136.624L142.375 75.503Z" fill="url(#paint0_linear_16507_286818)" fill-opacity="0.5"></path><rect x="149.351" y="68.2705" width="22.3935" height="54.4258" rx="3" fill="currentColor"></rect><rect x="150.351" y="69.2705" width="20.3935" height="52.4258" rx="2" stroke="url(#paint1_linear_16507_286818)" stroke-opacity="0.8" stroke-width="2"></rect><path d="M115.999 103.619C116.004 102.548 116.579 101.56 117.508 101.028L125.435 96.4853L137.111 163.903C137.641 166.968 135.275 169.769 132.165 169.757L120.736 169.713C117.974 169.702 115.744 167.455 115.755 164.693L115.999 103.619Z" fill="currentColor"></path><path d="M115.999 103.619C116.004 102.548 116.579 101.56 117.508 101.028L125.435 96.4853L137.111 163.903C137.641 166.968 135.275 169.769 132.165 169.757L120.736 169.713C117.974 169.702 115.744 167.455 115.755 164.693L115.999 103.619Z" fill="url(#paint2_linear_16507_286818)" fill-opacity="0.5"></path><path d="M123.984 99.3398C123.984 98.2353 124.88 97.3398 125.984 97.3398H139.378C140.482 97.3398 141.378 98.2353 141.378 99.3398V147.766C141.378 148.87 140.482 149.766 139.378 149.766H125.984C124.88 149.766 123.984 148.87 123.984 147.766V99.3398Z" fill="currentColor" stroke="url(#paint3_linear_16507_286818)" stroke-width="2"></path><path d="M90.7021 90.6202C90.7064 89.5507 91.2797 88.5643 92.2069 88.0313L100.292 83.3834L111.829 150.919C112.352 153.98 109.987 156.773 106.881 156.761L95.4383 156.717C92.6766 156.706 90.4465 154.459 90.4576 151.697L90.7021 90.6202Z" fill="currentColor"></path><path d="M90.7021 90.6202C90.7064 89.5507 91.2797 88.5643 92.2069 88.0313L100.292 83.3834L111.829 150.919C112.352 153.98 109.987 156.773 106.881 156.761L95.4383 156.717C92.6766 156.706 90.4465 154.459 90.4576 151.697L90.7021 90.6202Z" fill="url(#paint4_linear_16507_286818)" fill-opacity="0.5"></path><path d="M98.6875 86.3437C98.6875 85.2392 99.5829 84.3438 100.687 84.3438H113.081C114.186 84.3438 115.081 85.2392 115.081 86.3438V134.77C115.081 135.874 114.186 136.77 113.081 136.77H100.687C99.5829 136.77 98.6875 135.874 98.6875 134.77V86.3437Z" fill="currentColor" stroke="url(#paint5_linear_16507_286818)" stroke-width="2"></path><path d="M70.8946 112.408C70.8985 111.462 71.3492 110.572 72.1104 110.009L78.1645 105.531L85.282 147.135C85.8056 150.196 83.4412 152.989 80.3356 152.978L75.7274 152.962C72.9648 152.952 70.7338 150.703 70.7454 147.941L70.8946 112.408Z" fill="currentColor"></path><path d="M70.8946 112.408C70.8985 111.462 71.3492 110.572 72.1104 110.009L78.1645 105.531L85.282 147.135C85.8056 150.196 83.4412 152.989 80.3356 152.978L75.7274 152.962C72.9648 152.952 70.7338 150.703 70.7454 147.941L70.8946 112.408Z" fill="url(#paint6_linear_16507_286818)" fill-opacity="0.5"></path><rect x="77.4297" y="106.246" width="12.5609" height="33.3893" rx="2" fill="currentColor" stroke="url(#paint7_linear_16507_286818)" stroke-width="2"></rect><path d="M67.3828 79.9471L94.3017 57.4756C95.1738 56.7476 96.3822 56.5747 97.4235 57.0288L123.149 68.2484C124.227 68.7183 125.479 68.5157 126.354 67.7301L158.279 39.0449" stroke="currentColor" stroke-width="6" stroke-linecap="round"></path><circle cx="95.731" cy="56.3931" r="7.05133" fill="currentColor"></circle><circle cx="95.731" cy="56.3931" r="7.05133" fill="url(#paint8_radial_16507_286818)" fill-opacity="0.5"></circle><circle cx="95.731" cy="56.3931" r="7.05133" stroke="url(#paint9_linear_16507_286818)" stroke-width="2"></circle><circle cx="124.629" cy="68.5904" r="7.05133" fill="currentColor"></circle><circle cx="124.629" cy="68.5904" r="7.05133" fill="url(#paint10_radial_16507_286818)" fill-opacity="0.5"></circle><circle cx="124.629" cy="68.5904" r="7.05133" stroke="url(#paint11_linear_16507_286818)" stroke-width="2"></circle><defs><filter id="filter0_f_16507_286818" x="0" y="-5" width="218" height="218" filterUnits="userSpaceOnUse" color-interpolation-filters="sRGB"><feFlood flood-opacity="0" result="BackgroundImageFix"></feFlood><feBlend mode="normal" in="SourceGraphic" in2="BackgroundImageFix" result="shape"></feBlend><feGaussianBlur stdDeviation="32.5" result="effect1_foregroundBlur_16507_286818"></feGaussianBlur></filter><linearGradient id="paint0_linear_16507_286818" x1="141.418" y1="47.7074" x2="195.299" y2="91.6541" gradientUnits="userSpaceOnUse"><stop offset="0.0412865" stop-color="#17273b" stop-opacity="0"></stop><stop offset="0.723382" stop-color="#17273b"></stop></linearGradient><linearGradient id="paint1_linear_16507_286818" x1="146.273" y1="70.0137" x2="165.1" y2="104.416" gradientUnits="userSpaceOnUse"><stop stop-color="white"></stop><stop offset="1" stop-color="white" stop-opacity="0"></stop></linearGradient><linearGradient id="paint2_linear_16507_286818" x1="115.042" y1="75.7762" x2="168.922" y2="119.723" gradientUnits="userSpaceOnUse"><stop offset="0.0412865" stop-color="#17273b" stop-opacity="0"></stop><stop offset="0.723382" stop-color="#17273b"></stop></linearGradient><linearGradient id="paint3_linear_16507_286818" x1="117.346" y1="94.1457" x2="134.804" y2="116.396" gradientUnits="userSpaceOnUse"><stop stop-color="white"></stop><stop offset="1" stop-color="white" stop-opacity="0"></stop></linearGradient><linearGradient id="paint4_linear_16507_286818" x1="89.7439" y1="62.7804" x2="143.625" y2="106.727" gradientUnits="userSpaceOnUse"><stop offset="0.0412865" stop-color="#17273b" stop-opacity="0"></stop><stop offset="0.723382" stop-color="#17273b"></stop></linearGradient><linearGradient id="paint5_linear_16507_286818" x1="92.3605" y1="86.1018" x2="111.188" y2="100.308" gradientUnits="userSpaceOnUse"><stop stop-color="white"></stop><stop offset="1" stop-color="white" stop-opacity="0"></stop></linearGradient><linearGradient id="paint6_linear_16507_286818" x1="71.2735" y1="91.8758" x2="106.309" y2="120.451" gradientUnits="userSpaceOnUse"><stop offset="0.0412865" stop-color="#17273b" stop-opacity="0"></stop><stop offset="0.723382" stop-color="#17273b"></stop></linearGradient><linearGradient id="paint7_linear_16507_286818" x1="72.6748" y1="105.246" x2="81.5749" y2="116.738" gradientUnits="userSpaceOnUse"><stop stop-color="white"></stop><stop offset="1" stop-color="white" stop-opacity="0"></stop></linearGradient><radialGradient id="paint8_radial_16507_286818" cx="0" cy="0" r="1" gradientUnits="userSpaceOnUse" gradientTransform="translate(92.757 52.7373) rotate(62.284) scale(13.2244 14.5922)"><stop offset="0.321323" stop-color="#17273b" stop-opacity="0"></stop><stop offset="1" stop-color="#17273b"></stop></radialGradient><linearGradient id="paint9_linear_16507_286818" x1="90.5137" y1="48.3418" x2="96.6624" y2="62.09" gradientUnits="userSpaceOnUse"><stop stop-color="white"></stop><stop offset="1" stop-color="white" stop-opacity="0"></stop></linearGradient><radialGradient id="paint10_radial_16507_286818" cx="0" cy="0" r="1" gradientUnits="userSpaceOnUse" gradientTransform="translate(121.655 64.9346) rotate(62.284) scale(13.2244 14.5922)"><stop offset="0.321323" stop-color="#17273b" stop-opacity="0"></stop><stop offset="1" stop-color="#17273b"></stop></radialGradient><linearGradient id="paint11_linear_16507_286818" x1="119.412" y1="60.5391" x2="125.561" y2="74.2873" gradientUnits="userSpaceOnUse"><stop stop-color="white"></stop><stop offset="1" stop-color="white" stop-opacity="0"></stop></linearGradient></defs></svg>