<svg viewBox="0 0 20 20" fill="none" xmlns="http://www.w3.org/2000/svg"><g clip-path="url(#a)"><path d="M10 0a9.973 9.973 0 1 0 .059 0H10Z" fill="#345D9D"/><path d="m10.181 10.224-.88 2.958h4.687a.24.24 0 0 1 .17.063.244.244 0 0 1 .074.166v.078l-.408 1.406a.302.302 0 0 1-.305.224H6.346l1.202-4.091-1.345.407.306-.937 1.344-.409 1.692-5.754a.308.308 0 0 1 .305-.225h1.819a.239.239 0 0 1 .244.23v.079l-1.426 4.85 1.345-.409-.287.977-1.364.387Z" fill="#fff"/></g><defs><clipPath id="a"><path fill="#fff" d="M0 0h20v20H0z"/></clipPath></defs></svg>