<svg viewBox="0 0 153 120" style='color:#ffaf33' fill="none" xmlns="http://www.w3.org/2000/svg"><g opacity="0.5" filter="url(#filter0_f_16507_286818)"><circle cx="109" cy="104" r="44" fill="currentColor"></circle></g><path fill-rule="evenodd" clip-rule="evenodd" d="M123.476 52.263C123.029 51.4155 122.294 50.7565 121.401 50.4091C120.211 49.9465 118.59 49.3215 117.954 49.1027C117.317 48.7933 116.476 49.0728 116.078 49.7263L106.845 66.2767C106.507 66.8314 105.837 67.1297 105.236 66.9936L87.541 62.9858C86.6568 62.7856 85.7265 63.5157 85.7253 64.4107L85.7024 82.5473C85.7018 83.0473 85.3993 83.5367 84.9253 83.8047L67.7305 93.5266C66.882 94.0064 66.6871 95.097 67.3502 95.6549L80.787 106.961C81.1574 107.272 81.281 107.784 81.1045 108.275L74.7037 126.081C74.3879 126.96 75.0426 127.772 75.9815 127.666L95.0069 125.519C95.5313 125.459 96.0086 125.693 96.2331 126.12L104.376 141.58C104.778 142.343 105.899 142.401 106.563 141.693L120.032 127.35C120.404 126.955 120.955 126.774 121.449 126.886L139.365 130.944C140.249 131.144 141.18 130.414 141.181 129.519L141.204 111.382C141.204 110.882 141.507 110.393 141.981 110.125L159.176 100.403C160.024 99.9231 160.219 98.8326 159.556 98.2747L146.119 86.9688C145.749 86.6572 145.625 86.1457 145.802 85.6548L151.94 68.7742C152.275 67.8663 152.422 65.9904 150.733 65.2109L145.833 62.9556C145.546 62.817 145.203 62.7927 144.871 62.8876L133.064 68.2161C132.46 68.3883 131.858 68.1617 131.596 67.6631L123.476 52.263ZM129.472 86.9395C131.027 85.7031 131.4 83.5861 130.306 82.2109C129.212 80.8358 127.066 80.7233 125.511 81.9596L95.4994 105.832C93.9451 107.068 93.5718 109.185 94.6657 110.561C95.7595 111.936 97.9063 112.048 99.4606 110.812L129.472 86.9395ZM109.373 86.7195C108.915 89.3182 106.407 91.3129 103.772 91.1748C101.137 91.0367 99.3721 88.8181 99.8303 86.2194C100.289 83.6207 102.796 81.6259 105.431 81.764C108.067 81.9021 109.831 84.1208 109.373 86.7195ZM119.538 110.997C122.173 111.135 124.681 109.14 125.139 106.542C125.597 103.943 123.832 101.724 121.197 101.586C118.562 101.448 116.054 103.443 115.596 106.042C115.138 108.64 116.902 110.859 119.538 110.997Z" fill="currentColor"></path><path fill-rule="evenodd" clip-rule="evenodd" d="M123.476 52.263C123.029 51.4155 122.294 50.7565 121.401 50.4091C120.211 49.9465 118.59 49.3215 117.954 49.1027C117.317 48.7933 116.476 49.0728 116.078 49.7263L106.845 66.2767C106.507 66.8314 105.837 67.1297 105.236 66.9936L87.541 62.9858C86.6568 62.7856 85.7265 63.5157 85.7253 64.4107L85.7024 82.5473C85.7018 83.0473 85.3993 83.5367 84.9253 83.8047L67.7305 93.5266C66.882 94.0064 66.6871 95.097 67.3502 95.6549L80.787 106.961C81.1574 107.272 81.281 107.784 81.1045 108.275L74.7037 126.081C74.3879 126.96 75.0426 127.772 75.9815 127.666L95.0069 125.519C95.5313 125.459 96.0086 125.693 96.2331 126.12L104.376 141.58C104.778 142.343 105.899 142.401 106.563 141.693L120.032 127.35C120.404 126.955 120.955 126.774 121.449 126.886L139.365 130.944C140.249 131.144 141.18 130.414 141.181 129.519L141.204 111.382C141.204 110.882 141.507 110.393 141.981 110.125L159.176 100.403C160.024 99.9231 160.219 98.8326 159.556 98.2747L146.119 86.9688C145.749 86.6572 145.625 86.1457 145.802 85.6548L151.94 68.7742C152.275 67.8663 152.422 65.9904 150.733 65.2109L145.833 62.9556C145.546 62.817 145.203 62.7927 144.871 62.8876L133.064 68.2161C132.46 68.3883 131.858 68.1617 131.596 67.6631L123.476 52.263ZM129.472 86.9395C131.027 85.7031 131.4 83.5861 130.306 82.2109C129.212 80.8358 127.066 80.7233 125.511 81.9596L95.4994 105.832C93.9451 107.068 93.5718 109.185 94.6657 110.561C95.7595 111.936 97.9063 112.048 99.4606 110.812L129.472 86.9395ZM109.373 86.7195C108.915 89.3182 106.407 91.3129 103.772 91.1748C101.137 91.0367 99.3721 88.8181 99.8303 86.2194C100.289 83.6207 102.796 81.6259 105.431 81.764C108.067 81.9021 109.831 84.1208 109.373 86.7195ZM119.538 110.997C122.173 111.135 124.681 109.14 125.139 106.542C125.597 103.943 123.832 101.724 121.197 101.586C118.562 101.448 116.054 103.443 115.596 106.042C115.138 108.64 116.902 110.859 119.538 110.997Z" fill="url(#paint0_linear_16507_286818)" fill-opacity="0.5"></path><path fill-rule="evenodd" clip-rule="evenodd" d="M119.162 50.2343C118.262 48.5035 115.753 48.372 114.266 49.9777L103.156 61.9692C102.324 62.8662 101.09 63.2761 99.9849 63.0223L85.2064 59.6298C83.2275 59.1755 81.1451 60.8319 81.1425 62.8623L81.1236 78.0252C81.1222 79.1595 80.4452 80.2697 79.3843 80.8777L65.2009 89.0057C63.3017 90.0941 62.8654 92.5681 64.3496 93.8338L75.4331 103.286C76.2622 103.993 76.5388 105.153 76.1439 106.267L70.8641 121.154C70.1571 123.147 71.6226 124.99 73.7241 124.749L89.4174 122.954C90.5913 122.82 91.6595 123.35 92.162 124.317L98.8786 137.243C99.778 138.974 102.287 139.105 103.774 137.499L114.885 125.508C115.716 124.611 116.95 124.201 118.055 124.455L132.834 127.847C134.813 128.302 136.895 126.645 136.898 124.615L136.917 109.452C136.918 108.318 137.595 107.207 138.656 106.599L152.839 98.4713C154.739 97.383 155.175 94.9089 153.691 93.6432L142.607 84.1911C141.778 83.484 141.501 82.3238 141.896 81.2102L147.176 66.323C147.883 64.3295 146.418 62.4872 144.316 62.7276L128.623 64.5231C127.449 64.6575 126.381 64.1269 125.878 63.16L119.162 50.2343ZM126.001 84.2949C127.555 83.0585 127.928 80.9415 126.835 79.5663C125.741 78.1912 123.594 78.0787 122.04 79.3151L92.028 103.188C90.4736 104.424 90.1004 106.541 91.1942 107.916C92.288 109.291 94.4348 109.404 95.9891 108.167L126.001 84.2949ZM105.902 84.0749C105.443 86.6737 102.936 88.6684 100.301 88.5303C97.6654 88.3922 95.9006 86.1735 96.3588 83.5748C96.817 80.9761 99.3248 78.9814 101.96 79.1195C104.595 79.2576 106.36 81.4762 105.902 84.0749ZM116.066 108.353C118.701 108.491 121.209 106.496 121.667 103.897C122.126 101.298 120.361 99.0798 117.726 98.9417C115.09 98.8036 112.583 100.798 112.124 103.397C111.666 105.996 113.431 108.214 116.066 108.353Z" fill="currentColor"></path><path fill-rule="evenodd" clip-rule="evenodd" d="M92.162 124.317L98.8786 137.243C99.778 138.974 102.287 139.105 103.774 137.499L114.885 125.508C115.716 124.611 116.95 124.201 118.055 124.455L132.834 127.847C134.813 128.302 136.895 126.645 136.898 124.615L136.917 109.452C136.918 108.318 137.595 107.207 138.656 106.599L152.839 98.4713C154.739 97.383 155.175 94.9089 153.691 93.6432L142.607 84.1911C141.778 83.484 141.501 82.3238 141.896 81.2102L147.176 66.323C147.883 64.3295 146.418 62.4872 144.316 62.7276L128.623 64.5231C127.449 64.6575 126.381 64.1269 125.878 63.16L119.162 50.2343C118.262 48.5035 115.753 48.372 114.266 49.9777L103.156 61.9692C102.324 62.8662 101.09 63.2761 99.9849 63.0223L85.2064 59.6298C83.2275 59.1755 81.1451 60.8319 81.1425 62.8623L81.1236 78.0252C81.1222 79.1595 80.4452 80.2697 79.3843 80.8777L65.2009 89.0057C63.3017 90.0941 62.8654 92.5681 64.3496 93.8338L75.4331 103.286C76.2622 103.993 76.5388 105.153 76.1439 106.267L70.8641 121.154C70.1571 123.147 71.6226 124.99 73.7241 124.749L89.4174 122.954C90.5913 122.82 91.6595 123.35 92.162 124.317ZM116.83 50.8521C116.499 50.8347 116.075 50.9681 115.733 51.337L104.623 63.3284C103.351 64.7006 101.405 65.4003 99.5375 64.9716L84.7589 61.5791C84.0316 61.4121 83.1434 62.1186 83.1425 62.8648L83.1236 78.0277C83.1213 79.9436 82.0016 81.6829 80.3787 82.613L66.1953 90.7409C65.759 90.991 65.5337 91.3741 65.4761 91.7005C65.4206 92.0152 65.5177 92.2014 65.6474 92.312L76.7309 101.764C78.2579 103.066 78.6701 105.127 78.0289 106.935L72.7491 121.823C72.6167 122.196 72.7124 122.427 72.8062 122.544C72.8999 122.662 73.1032 122.807 73.4967 122.762L89.19 120.967C91.0961 120.749 93.0113 121.614 93.9367 123.395L100.653 136.321C100.732 136.472 100.891 136.608 101.211 136.625C101.542 136.642 101.966 136.509 102.307 136.14L113.418 124.149C114.689 122.776 116.635 122.077 118.503 122.505L133.281 125.898C134.009 126.065 134.897 125.358 134.898 124.612L134.917 109.449C134.919 107.533 136.039 105.794 137.662 104.864L151.845 96.7361C152.281 96.486 152.507 96.103 152.564 95.7765C152.62 95.4618 152.523 95.2756 152.393 95.165L141.309 85.7129C139.782 84.4106 139.37 82.3499 140.011 80.5417L145.291 65.6545C145.424 65.2812 145.328 65.0504 145.234 64.9326C145.14 64.8148 144.937 64.6696 144.544 64.7146L128.85 66.5102C126.944 66.7283 125.029 65.863 124.104 64.0822L117.387 51.1565C117.308 51.0052 117.149 50.8688 116.83 50.8521Z" fill="url(#paint1_linear_16507_286818)"></path><defs><filter id="filter0_f_16507_286818" x="0" y="-5" width="218" height="218" filterUnits="userSpaceOnUse" color-interpolation-filters="sRGB"><feFlood flood-opacity="0" result="BackgroundImageFix"></feFlood><feBlend mode="normal" in="SourceGraphic" in2="BackgroundImageFix" result="shape"></feBlend><feGaussianBlur stdDeviation="32.5" result="effect1_foregroundBlur_16507_286818"></feGaussianBlur></filter><linearGradient id="paint0_linear_16507_286818" x1="115.567" y1="32.6536" x2="131.751" y2="135.616" gradientUnits="userSpaceOnUse"><stop offset="0.0412865" stop-color="#17273b" stop-opacity="0"></stop><stop offset="0.664958" stop-color="#17273b"></stop></linearGradient><linearGradient id="paint1_linear_16507_286818" x1="89.7696" y1="65.0498" x2="109.02" y2="138.626" gradientUnits="userSpaceOnUse"><stop stop-color="white"></stop><stop offset="1" stop-color="white" stop-opacity="0"></stop></linearGradient></defs></svg>