<svg viewBox="0 0 153 120" style='color:#ffaf33' fill="none" xmlns="http://www.w3.org/2000/svg"><g opacity="0.5" filter="url(#filter0_f_16507_286818)"><circle cx="109" cy="104" r="44" fill="currentColor"></circle></g><path d="M125.848 104.717C126.383 102.62 129.501 99.1497 132.471 98.4117L144.121 110.648L137.498 116.954L125.848 104.717Z" fill="currentColor"></path><path d="M125.848 104.717C126.383 102.62 129.501 99.1497 132.471 98.4117L144.121 110.648L137.498 116.954L125.848 104.717Z" fill="url(#paint0_linear_16507_286818)" fill-opacity="0.6"></path><path d="M134.2 116.183C133.492 115.44 133.053 114.438 133.317 113.446C134.119 110.442 137.027 107.151 140.708 106.345C141.777 106.11 142.837 106.608 143.592 107.401L167.059 132.05C168.582 133.65 168.52 136.182 166.92 137.705L163.402 141.055C161.802 142.578 159.27 142.516 157.747 140.916L134.2 116.183Z" fill="currentColor"></path><path d="M134.2 116.183C133.492 115.44 133.053 114.438 133.317 113.446C134.119 110.442 137.027 107.151 140.708 106.345C141.777 106.11 142.837 106.608 143.592 107.401L167.059 132.05C168.582 133.65 168.52 136.182 166.92 137.705L163.402 141.055C161.802 142.578 159.27 142.516 157.747 140.916L134.2 116.183Z" fill="url(#paint1_linear_16507_286818)" fill-opacity="0.4"></path><path d="M134.2 116.183C133.492 115.44 133.053 114.438 133.317 113.446C134.119 110.442 137.027 107.151 140.708 106.345C141.777 106.11 142.837 106.608 143.592 107.401L167.059 132.05C168.582 133.65 168.52 136.182 166.92 137.705L163.402 141.055C161.802 142.578 159.27 142.516 157.747 140.916L134.2 116.183Z" fill="#17273b" fill-opacity="0.2"></path><path fill-rule="evenodd" clip-rule="evenodd" d="M121.213 98.6641C127.196 93.1359 128.048 80.2674 118.055 69.4513C108.063 58.6352 95.1673 58.4667 89.1835 63.9949C83.1997 69.5231 82.3483 82.3916 92.3408 93.2077C102.333 104.024 115.229 104.192 121.213 98.6641ZM126.665 104.566C128.336 103.022 132.776 99.3459 133.849 97.4139C139.428 87.3658 133.901 74.7626 123.957 63.9991C115.045 54.3525 103.862 47.1982 93.827 50.0123C90.5122 50.9418 86.1901 56.0207 83.6177 58.3972C73.2575 67.9685 74.5835 85.8269 86.4392 98.6599C98.295 111.493 116.305 114.137 126.665 104.566Z" fill="currentColor"></path><path fill-rule="evenodd" clip-rule="evenodd" d="M121.213 98.6641C127.196 93.1359 128.048 80.2674 118.055 69.4513C108.063 58.6352 95.1673 58.4667 89.1835 63.9949C83.1997 69.5231 82.3483 82.3916 92.3408 93.2077C102.333 104.024 115.229 104.192 121.213 98.6641ZM126.665 104.566C128.336 103.022 132.776 99.3459 133.849 97.4139C139.428 87.3658 133.901 74.7626 123.957 63.9991C115.045 54.3525 103.862 47.1982 93.827 50.0123C90.5122 50.9418 86.1901 56.0207 83.6177 58.3972C73.2575 67.9685 74.5835 85.8269 86.4392 98.6599C98.295 111.493 116.305 114.137 126.665 104.566Z" fill="url(#paint2_linear_16507_286818)" fill-opacity="0.4"></path><path fill-rule="evenodd" clip-rule="evenodd" d="M121.213 98.6641C127.196 93.1359 128.048 80.2674 118.055 69.4513C108.063 58.6352 95.1673 58.4667 89.1835 63.9949C83.1997 69.5231 82.3483 82.3916 92.3408 93.2077C102.333 104.024 115.229 104.192 121.213 98.6641ZM126.665 104.566C128.336 103.022 132.776 99.3459 133.849 97.4139C139.428 87.3658 133.901 74.7626 123.957 63.9991C115.045 54.3525 103.862 47.1982 93.827 50.0123C90.5122 50.9418 86.1901 56.0207 83.6177 58.3972C73.2575 67.9685 74.5835 85.8269 86.4392 98.6599C98.295 111.493 116.305 114.137 126.665 104.566Z" fill="url(#paint3_linear_16507_286818)" fill-opacity="0.5"></path><path d="M128.813 59.3962C140.552 72.1037 141.636 89.9365 131.548 99.2562C121.461 108.576 103.769 106.086 92.0293 93.3783C80.2895 80.6709 79.2056 62.838 89.2934 53.5183C99.3813 44.1986 117.073 46.6887 128.813 59.3962Z" fill="currentColor" fill-opacity="0.2" stroke="url(#paint4_linear_16507_286818)"></path><path fill-rule="evenodd" clip-rule="evenodd" d="M126.436 93.7219C132.419 88.1937 133.271 75.3252 123.278 64.5091C113.286 53.693 100.39 53.5245 94.4063 59.0527C88.4225 64.5808 87.5712 77.4493 97.5637 88.2654C107.556 99.0815 120.452 99.25 126.436 93.7219ZM131.888 99.6235C142.248 90.0522 141.036 71.8899 129.18 59.0569C117.324 46.2239 99.3144 43.5798 88.9542 53.1511C78.5939 62.7224 79.8063 80.8846 91.6621 93.7176C103.518 106.551 121.527 109.195 131.888 99.6235Z" fill="currentColor"></path><path fill-rule="evenodd" clip-rule="evenodd" d="M130.531 98.1544C139.801 89.5895 139.103 72.745 127.711 60.4141C116.319 48.0831 99.5822 46.0552 90.3113 54.6201C81.0405 63.185 81.7392 80.0295 93.1311 92.3605C104.523 104.691 121.26 106.719 130.531 98.1544ZM129.18 59.0569C141.036 71.8899 142.248 90.0522 131.888 99.6235C121.527 109.195 103.518 106.551 91.6621 93.7176C79.8063 80.8846 78.5939 62.7224 88.9542 53.1511C99.3144 43.5798 117.324 46.2239 129.18 59.0569Z" fill="url(#paint5_linear_16507_286818)"></path><defs><filter id="filter0_f_16507_286818" x="0" y="-5" width="218" height="218" filterUnits="userSpaceOnUse" color-interpolation-filters="sRGB"><feFlood flood-opacity="0" result="BackgroundImageFix"></feFlood><feBlend mode="normal" in="SourceGraphic" in2="BackgroundImageFix" result="shape"></feBlend><feGaussianBlur stdDeviation="32.5" result="effect1_foregroundBlur_16507_286818"></feGaussianBlur></filter><linearGradient id="paint0_linear_16507_286818" x1="136.047" y1="106.062" x2="130.769" y2="110.656" gradientUnits="userSpaceOnUse"><stop offset="0.0412865" stop-color="#17273b" stop-opacity="0"></stop><stop offset="1" stop-color="#17273b"></stop></linearGradient><linearGradient id="paint1_linear_16507_286818" x1="151.03" y1="121.988" x2="144.721" y2="128.337" gradientUnits="userSpaceOnUse"><stop offset="0.0412865" stop-color="#17273b" stop-opacity="0"></stop><stop offset="1" stop-color="#17273b"></stop></linearGradient><linearGradient id="paint2_linear_16507_286818" x1="132.39" y1="103.478" x2="93.1736" y2="58.6388" gradientUnits="userSpaceOnUse"><stop offset="0.0412865" stop-color="#17273b" stop-opacity="0"></stop><stop offset="0.723382" stop-color="#17273b"></stop></linearGradient><linearGradient id="paint3_linear_16507_286818" x1="101.905" y1="89.2716" x2="115.519" y2="116.205" gradientUnits="userSpaceOnUse"><stop offset="0.263118" stop-color="#17273b" stop-opacity="0"></stop><stop offset="0.916314" stop-color="#17273b"></stop></linearGradient><linearGradient id="paint4_linear_16507_286818" x1="88.9542" y1="53.1511" x2="131.888" y2="99.6235" gradientUnits="userSpaceOnUse"><stop stop-color="white"></stop><stop offset="1" stop-color="white" stop-opacity="0"></stop></linearGradient><linearGradient id="paint5_linear_16507_286818" x1="88.9542" y1="53.1511" x2="111.968" y2="84.5365" gradientUnits="userSpaceOnUse"><stop stop-color="white"></stop><stop offset="1" stop-color="white" stop-opacity="0"></stop></linearGradient></defs></svg>