<svg viewBox="0 0 31 30" style='color:#51cfef' fill="none" xmlns="http://www.w3.org/2000/svg"><path d="M0.0100467 7.91119C0.0112335 6.24488 1.13901 4.79021 2.75244 4.37391L12.7452 1.79551C14.2318 1.41191 15.7915 1.41191 17.2781 1.79551L27.2668 4.37286C28.8821 4.78966 30.0104 6.24711 30.0092 7.91535L29.9991 22.0188C29.998 23.6237 28.9503 25.0402 27.416 25.5111L16.8648 28.7495C15.648 29.1229 14.3473 29.1229 13.1305 28.7495L2.58314 25.5123C1.04704 25.0408 -0.00114359 23.6216 9.36366e-07 22.0148L0.0100467 7.91119Z" fill="#17273b"></path><path d="M0.0100467 7.91119C0.0112335 6.24488 1.13901 4.79021 2.75244 4.37391L12.7452 1.79551C14.2318 1.41191 15.7915 1.41191 17.2781 1.79551L27.2668 4.37286C28.8821 4.78966 30.0104 6.24711 30.0092 7.91535L29.9991 22.0188C29.998 23.6237 28.9503 25.0402 27.416 25.5111L16.8648 28.7495C15.648 29.1229 14.3473 29.1229 13.1305 28.7495L2.58314 25.5123C1.04704 25.0408 -0.00114359 23.6216 9.36366e-07 22.0148L0.0100467 7.91119Z" fill="currentColor" fill-opacity="0.2"></path><path d="M27.6258 4.42388C29.2411 4.84067 30.0151 5.29596 30.0139 6.9642L30.0039 8.47967C30.0027 10.0846 28.955 11.5011 27.4207 11.972C23.5188 13.1696 22.1845 9.75242 21.8822 8.74812C21.8283 8.56916 21.8024 8.38833 21.8053 8.20146C21.8227 7.08275 22.2504 3.03687 27.6258 4.42388Z" fill="currentColor"></path><path d="M27.6258 4.42388C29.2411 4.84067 30.0151 5.29596 30.0139 6.9642L30.0039 8.47967C30.0027 10.0846 28.955 11.5011 27.4207 11.972C23.5188 13.1696 22.1845 9.75242 21.8822 8.74812C21.8283 8.56916 21.8024 8.38833 21.8053 8.20146C21.8227 7.08275 22.2504 3.03687 27.6258 4.42388Z" fill="white" fill-opacity="0.2"></path><path d="M0.0100467 6.75255C0.0112335 5.08625 1.01572 4.78763 2.62915 4.37132C6.33074 3.41621 7.85903 6.46124 8.27716 7.54383C8.3708 7.78628 8.4147 8.04149 8.40788 8.3013C8.37384 9.5977 7.85114 13.5887 2.58314 11.9719C1.04704 11.5004 -0.00114359 10.0812 9.36367e-07 8.47437L0.0100467 6.75255Z" fill="#17273b"></path><path d="M0.0100467 6.75255C0.0112335 5.08625 1.01572 4.78763 2.62915 4.37132C6.33074 3.41621 7.85903 6.46124 8.27716 7.54383C8.3708 7.78628 8.4147 8.04149 8.40788 8.3013C8.37384 9.5977 7.85114 13.5887 2.58314 11.9719C1.04704 11.5004 -0.00114359 10.0812 9.36367e-07 8.47437L0.0100467 6.75255Z" fill="currentColor"></path><path d="M0.0100467 6.75255C0.0112335 5.08625 1.01572 4.78763 2.62915 4.37132C6.33074 3.41621 7.85903 6.46124 8.27716 7.54383C8.3708 7.78628 8.4147 8.04149 8.40788 8.3013C8.37384 9.5977 7.85114 13.5887 2.58314 11.9719C1.04704 11.5004 -0.00114359 10.0812 9.36367e-07 8.47437L0.0100467 6.75255Z" fill="#17273b" fill-opacity="0.4"></path><path d="M9.50671 10.366C9.50772 8.95028 10.9427 7.984 12.2333 7.14595C13.0791 6.59668 13.9983 6.08704 15.0069 6.08691C16.0164 6.08679 16.9365 6.59714 17.783 7.14725C19.0732 7.98571 20.5069 8.95232 20.5059 10.3688L20.4991 9.84047C20.4978 11.7585 18.3351 12.4987 16.7584 13.1953C16.4142 13.3473 16.0672 13.5013 15.696 13.563C15.2342 13.6398 14.7629 13.6399 14.3012 13.5631C13.9295 13.5014 13.5823 13.3472 13.2377 13.1949C11.6608 12.498 9.49863 11.7571 9.5 9.83778L9.50671 10.366Z" fill="white"></path><path d="M-0.0078125 6.79539C-0.0078125 5.98783 0.764748 5.40454 1.54144 5.62568L13.52 9.03623C14.391 9.28425 14.9919 10.08 14.9919 10.9858V27.6891C14.9919 28.5071 14.2005 29.0919 13.4186 28.8517L1.42398 25.1671C0.573009 24.9057 -0.0078125 24.1197 -0.0078125 23.2294V6.79539Z" fill="currentColor"></path><path d="M-0.0078125 6.79539C-0.0078125 5.98783 0.764748 5.40454 1.54144 5.62568L13.52 9.03623C14.391 9.28425 14.9919 10.08 14.9919 10.9858V27.6891C14.9919 28.5071 14.2005 29.0919 13.4186 28.8517L1.42398 25.1671C0.573009 24.9057 -0.0078125 24.1197 -0.0078125 23.2294V6.79539Z" fill="#17273b" fill-opacity="0.4"></path><g opacity="0.5"><ellipse cx="7.4452" cy="21.104" rx="0.812389" ry="0.989722" fill="white"></ellipse><path d="M5.89062 14.6524C6.61645 12.9491 8.95229 13.4954 9.07998 15.2574C9.20767 17.0193 7.92142 16.9845 7.4424 18.3332" stroke="white" stroke-width="1.62161" stroke-linecap="round"></path></g><path d="M29.7003 6.79539C29.7003 6.18165 29.1132 5.73834 28.5229 5.90641L16.5443 9.31696C15.7987 9.52927 15.2844 10.2105 15.2844 10.9858V27.6891C15.2844 28.3108 15.8858 28.7552 16.4801 28.5726L28.4747 24.8881C29.2031 24.6643 29.7003 23.9915 29.7003 23.2294V6.79539Z" fill="currentColor" stroke="url(#paint0_linear_16509_27678)" stroke-width="0.583778"></path><ellipse cx="22.5858" cy="21.2134" rx="0.812389" ry="0.989722" fill="white"></ellipse><path d="M20.8984 15.1977C21.6955 12.8152 24.0458 13.1211 24.2534 14.815C24.4611 16.5089 22.5806 17.1376 22.5806 18.6293" stroke="white" stroke-width="1.62161" stroke-linecap="round"></path><path d="M27.8649 5.48823C28.2151 5.38854 28.2085 4.89005 27.8559 4.79956L16.9569 2.00239C15.6716 1.67253 14.3239 1.67253 13.0386 2.00239L2.13957 4.79956C1.78695 4.89005 1.78043 5.38854 2.13057 5.48823L12.8396 8.53734C14.2503 8.939 15.7452 8.939 17.1559 8.53734L27.8649 5.48823Z" fill="currentColor"></path><path d="M27.8649 5.48823C28.2151 5.38854 28.2085 4.89005 27.8559 4.79956L16.9569 2.00239C15.6716 1.67253 14.3239 1.67253 13.0386 2.00239L2.13957 4.79956C1.78695 4.89005 1.78043 5.38854 2.13057 5.48823L12.8396 8.53734C14.2503 8.939 15.7452 8.939 17.1559 8.53734L27.8649 5.48823Z" fill="url(#paint1_linear_16509_27678)" fill-opacity="0.4"></path><path d="M27.8649 5.48823C28.2151 5.38854 28.2085 4.89005 27.8559 4.79956L16.9569 2.00239C15.6716 1.67253 14.3239 1.67253 13.0386 2.00239L2.13957 4.79956C1.78695 4.89005 1.78043 5.38854 2.13057 5.48823L12.8396 8.53734C14.2503 8.939 15.7452 8.939 17.1559 8.53734L27.8649 5.48823Z" stroke="url(#paint2_linear_16509_27678)" stroke-width="0.583778"></path><defs><linearGradient id="paint0_linear_16509_27678" x1="15.3258" y1="9.66829" x2="23.3205" y2="15.1317" gradientUnits="userSpaceOnUse"><stop stop-color="white"></stop><stop offset="0.490878" stop-color="white" stop-opacity="0.2"></stop><stop offset="1" stop-color="white" stop-opacity="0"></stop></linearGradient><linearGradient id="paint1_linear_16509_27678" x1="14.9977" y1="1.19824" x2="14.9977" y2="9.45529" gradientUnits="userSpaceOnUse"><stop stop-color="white" stop-opacity="0.4"></stop><stop offset="1" stop-color="white"></stop></linearGradient><linearGradient id="paint2_linear_16509_27678" x1="14.9977" y1="9.45531" x2="14.9977" y2="3.39955" gradientUnits="userSpaceOnUse"><stop stop-color="white"></stop><stop offset="0.724641" stop-color="white" stop-opacity="0"></stop></linearGradient></defs></svg>