<svg width="512" height="512" viewBox="0 0 512 512" fill="none" xmlns="http://www.w3.org/2000/svg">
<rect width="512" height="512" fill="white"/>
<path d="M256 512C397.385 512 512 397.385 512 256C512 114.615 397.385 0 256 0C114.615 0 0 114.615 0 256C0 397.385 114.615 512 256 512Z" fill="#D7F2FF"/>
<path d="M164.909 374.885C174.815 386.169 186.862 395.374 200.352 401.966C213.843 408.558 228.508 412.406 243.497 413.286C261.405 412.335 278.301 404.685 290.829 391.853C315.54 370.688 341.484 351.007 368.524 332.912L383.706 326.66C389.957 323.981 400.674 317.73 410.497 306.12C421.214 291.832 423 276.65 423 271.292C421.813 254.392 416.275 238.087 406.925 223.96C382.527 267.435 347.56 304.056 305.258 330.436C262.956 356.816 214.685 372.104 164.909 374.885V374.885Z" fill="#0293D6"/>
<path d="M198.845 121.26C205.512 114.218 213.542 108.607 222.447 104.769C231.352 100.93 240.945 98.9448 250.642 98.9333C256.786 98.522 262.95 99.3365 268.776 101.33C274.602 103.323 279.973 106.455 284.578 110.543C310.194 128.691 340.706 138.654 372.096 139.121C380.134 140.014 396.209 142.693 406.925 156.088C414.963 166.805 415.856 178.415 415.856 183.773C415.136 197.572 412.118 211.155 406.925 223.96L198.845 121.26Z" fill="#EBE638"/>
<path d="M164.909 374.885C156.872 373.992 146.155 371.313 133.652 365.955C121.15 360.597 105.968 354.345 96.1444 337.377C89.893 326.661 89 315.944 89 308.8C89.218 289.853 93.802 271.211 102.396 254.324C110.946 233.451 116.653 211.524 119.364 189.131L123.829 171.27C126.508 162.34 128.294 153.409 134.545 144.479L144.369 133.762C160.594 123.561 179.795 119.154 198.845 121.26C173.337 157.749 156.945 199.819 151.04 243.946C145.136 288.074 149.892 332.974 164.909 374.885V374.885Z" fill="#BAD147"/>
<path d="M198.845 121.26C197.952 121.26 247.069 123.939 277.433 134.655L302.438 145.372C292.615 144.479 230.102 141.8 182.77 189.131C122.936 249.859 142.583 332.912 143.476 337.377C129.61 319.932 122.62 298.009 123.829 275.757C125.004 246.224 132.276 217.254 145.185 190.666C158.095 164.078 176.364 140.448 198.845 121.26V121.26Z" fill="#78B650"/>
<path d="M318.513 341.843C335.409 311.13 342.893 276.125 340.035 241.189C337.177 206.253 324.101 172.93 302.438 145.372C328.306 149.697 352.1 162.22 370.31 181.094C381.027 190.024 394.422 203.42 406.925 223.96C389.267 270.864 358.597 311.758 318.513 341.843V341.843Z" fill="#2F8260"/>
<path d="M347.091 184.666C332.802 160.554 312.262 149.837 303.332 145.372C296.187 143.586 229.209 132.869 178.305 181.987C137.225 221.281 134.545 272.185 134.545 282.008C134.734 315.664 146.037 348.315 166.695 374.885C193.243 379.997 220.522 379.997 247.069 374.885C260.465 372.206 291.722 366.848 318.513 343.629C322.086 340.056 361.38 303.441 364.059 245.393C364.059 235.57 364.059 210.564 347.091 184.666ZM314.941 314.158C306.648 323.179 296.571 330.378 285.348 335.297C274.125 340.217 262.002 342.75 249.749 342.736C244.39 342.736 208.668 341.842 183.663 312.372C180.091 307.907 162.23 286.473 163.123 254.324C164.909 211.457 198.845 186.452 205.989 181.094C212.241 176.629 227.422 166.805 249.749 165.912C255.107 165.019 273.861 164.126 292.615 174.842C333.695 197.169 335.481 250.752 335.481 254.324C335.481 264.147 335.481 290.939 314.941 314.158Z" fill="#085229"/>
</svg>
