<svg viewBox="0 0 180 110" fill="none" style='color:#ffaf33' xmlns="http://www.w3.org/2000/svg"><g clip-path="url(#clip0_17538_101340)"><g style="mix-blend-mode:screen"><path d="M41.0066 30.2707C41.0104 30.0113 41.0927 29.759 41.2426 29.5468C41.3926 29.3347 41.6032 29.1726 41.8471 29.0817C42.0909 28.9908 42.3566 28.9754 42.6094 29.0374C42.8621 29.0994 43.0903 29.236 43.2639 29.4294C43.4375 29.6227 43.5486 29.8638 43.5827 30.121C43.6167 30.3783 43.572 30.6398 43.4546 30.8714C43.3371 31.103 43.1523 31.2939 42.9242 31.4191C42.6962 31.5443 42.4356 31.598 42.1764 31.5732C41.8482 31.5546 41.5408 31.4071 41.3215 31.1629C41.1022 30.9188 40.989 30.598 41.0066 30.2707Z" fill="url(#paint0_radial_17538_101340)"></path></g><g style="mix-blend-mode:screen"><path d="M50.5353 43.9211C50.5367 43.8411 50.562 43.7634 50.6082 43.698C50.6543 43.6326 50.719 43.5825 50.7939 43.5542C50.8689 43.5259 50.9507 43.5207 51.0286 43.5392C51.1066 43.5578 51.1772 43.5993 51.2312 43.6584C51.2853 43.7174 51.3203 43.7913 51.3318 43.8704C51.3433 43.9496 51.3307 44.0303 51.2957 44.1023C51.2606 44.1742 51.2048 44.234 51.1353 44.2739C51.0658 44.3137 50.986 44.3319 50.906 44.326C50.8549 44.3241 50.8047 44.3121 50.7582 44.2906C50.7118 44.2692 50.6701 44.2387 50.6356 44.201C50.6011 44.1633 50.5745 44.1192 50.5573 44.0711C50.5401 44.023 50.5326 43.972 50.5353 43.9211Z" fill="url(#paint1_radial_17538_101340)"></path></g><g style="mix-blend-mode:color-dodge"><path d="M41.7535 30.3404C41.7559 30.2312 41.7912 30.1253 41.8548 30.0364C41.9184 29.9475 42.0074 29.8798 42.1102 29.8421C42.2129 29.8044 42.3247 29.7983 42.431 29.8249C42.5372 29.8514 42.633 29.9092 42.7058 29.9907C42.7786 30.0723 42.8251 30.1738 42.8392 30.2821C42.8533 30.3904 42.8344 30.5004 42.7848 30.5978C42.7353 30.6951 42.6575 30.7754 42.5616 30.8281C42.4656 30.8807 42.356 30.9034 42.247 30.893C42.108 30.885 41.978 30.8222 41.8854 30.7186C41.7929 30.6149 41.7455 30.4789 41.7535 30.3404Z" fill="url(#paint2_radial_17538_101340)"></path></g><g style="mix-blend-mode:screen"><path d="M116.006 105.869C116.146 104.364 117.58 103.266 119.209 103.417C120.837 103.568 122.043 104.911 121.903 106.416C121.762 107.921 120.328 109.018 118.7 108.868C117.072 108.719 115.865 107.374 116.006 105.869Z" fill="url(#paint3_radial_17538_101340)"></path></g><g style="mix-blend-mode:screen"><path d="M118.027 106.054C118.028 105.868 118.085 105.687 118.191 105.534C118.297 105.381 118.447 105.264 118.621 105.197C118.795 105.131 118.985 105.119 119.166 105.162C119.348 105.205 119.511 105.302 119.636 105.44C119.761 105.578 119.842 105.75 119.867 105.934C119.892 106.118 119.86 106.306 119.776 106.472C119.693 106.638 119.561 106.774 119.398 106.864C119.234 106.954 119.048 106.992 118.862 106.975C118.63 106.961 118.412 106.857 118.256 106.684C118.1 106.512 118.017 106.286 118.027 106.054Z" fill="url(#paint4_radial_17538_101340)"></path></g><g style="mix-blend-mode:color-dodge"><path d="M117.705 106.028C117.71 105.777 117.79 105.533 117.935 105.328C118.081 105.123 118.285 104.967 118.521 104.879C118.757 104.792 119.014 104.777 119.258 104.837C119.503 104.897 119.724 105.03 119.892 105.217C120.059 105.404 120.167 105.637 120.2 105.886C120.233 106.135 120.19 106.388 120.077 106.612C119.964 106.836 119.785 107.021 119.565 107.143C119.344 107.264 119.092 107.317 118.842 107.293C118.523 107.275 118.224 107.132 118.011 106.895C117.798 106.658 117.688 106.346 117.705 106.028Z" fill="url(#paint5_radial_17538_101340)"></path></g><g style="mix-blend-mode:screen"><path d="M161.638 46.7196C160.423 46.6067 159.522 45.6045 159.627 44.4811C159.732 43.3576 160.803 42.5384 162.018 42.6512C163.233 42.764 164.134 43.7662 164.029 44.8897C163.924 46.0131 162.853 46.8324 161.638 46.7196Z" fill="url(#paint6_radial_17538_101340)"></path></g><g style="mix-blend-mode:screen"><path d="M161.5 45.1828C161.503 45.0451 161.547 44.9113 161.627 44.7989C161.706 44.6865 161.819 44.6007 161.948 44.5527C162.078 44.5047 162.219 44.4967 162.353 44.5299C162.487 44.563 162.608 44.6356 162.7 44.7383C162.792 44.8411 162.851 44.9691 162.869 45.1056C162.887 45.2422 162.863 45.3811 162.801 45.504C162.739 45.627 162.641 45.7284 162.52 45.795C162.399 45.8616 162.261 45.8903 162.123 45.8773C161.948 45.8669 161.785 45.788 161.668 45.6579C161.551 45.5278 161.491 45.3571 161.5 45.1828Z" fill="url(#paint7_radial_17538_101340)"></path></g><g style="mix-blend-mode:color-dodge"><path d="M160.954 44.6064C160.957 44.4187 161.017 44.2362 161.126 44.0828C161.234 43.9294 161.387 43.8122 161.563 43.7465C161.74 43.6808 161.932 43.6697 162.115 43.7145C162.298 43.7594 162.463 43.8582 162.589 43.998C162.715 44.1378 162.795 44.3121 162.82 44.4982C162.845 44.6844 162.813 44.8736 162.728 45.0414C162.643 45.2091 162.51 45.3475 162.345 45.4385C162.18 45.5295 161.992 45.5689 161.804 45.5515C161.566 45.5381 161.343 45.4312 161.183 45.2541C161.024 45.0769 160.942 44.844 160.954 44.6064Z" fill="url(#paint8_radial_17538_101340)"></path></g><g style="mix-blend-mode:screen"><path d="M130.005 33.3857C130.084 32.5402 130.892 31.923 131.806 32.0078C132.721 32.0925 133.401 32.8478 133.322 33.6952C133.242 34.5426 132.437 35.1579 131.522 35.0732C130.607 34.9884 129.927 34.235 130.005 33.3857Z" fill="url(#paint9_radial_17538_101340)"></path></g><g style="mix-blend-mode:screen"><path d="M130.996 33.5062C130.998 33.4026 131.032 33.3019 131.092 33.2174C131.152 33.1329 131.236 33.0683 131.334 33.0323C131.431 32.9962 131.537 32.9902 131.638 33.0151C131.739 33.04 131.83 33.0947 131.9 33.172C131.969 33.2492 132.013 33.3455 132.027 33.4482C132.04 33.551 132.023 33.6555 131.976 33.748C131.929 33.8406 131.855 33.9169 131.764 33.9671C131.673 34.0173 131.569 34.039 131.466 34.0294C131.334 34.0218 131.211 33.9625 131.123 33.8644C131.035 33.7664 130.989 33.6376 130.996 33.5062Z" fill="url(#paint10_radial_17538_101340)"></path></g><g style="mix-blend-mode:color-dodge"><path d="M130.94 33.4842C130.942 33.3427 130.987 33.2051 131.069 33.0894C131.15 32.9736 131.265 32.8852 131.398 32.8356C131.531 32.786 131.676 32.7776 131.814 32.8114C131.952 32.8451 132.076 32.9196 132.171 33.025C132.266 33.1304 132.327 33.2619 132.345 33.4022C132.364 33.5426 132.34 33.6852 132.276 33.8116C132.212 33.938 132.111 34.0423 131.987 34.1107C131.863 34.1792 131.721 34.2086 131.579 34.1953C131.4 34.1853 131.232 34.1049 131.112 33.9716C130.992 33.8383 130.93 33.663 130.94 33.4842Z" fill="url(#paint11_radial_17538_101340)"></path></g><g style="mix-blend-mode:screen"><path d="M129.005 89.2489C129.084 88.4034 129.892 87.7752 130.806 87.871C131.721 87.9668 132.401 88.711 132.322 89.5566C132.242 90.4022 131.437 91.0303 130.522 90.9364C129.607 90.8424 128.927 90.0964 129.005 89.2489Z" fill="url(#paint12_radial_17538_101340)"></path></g><g style="mix-blend-mode:screen"><path d="M130.137 89.3565C130.139 89.2527 130.172 89.1519 130.231 89.0671C130.291 88.9823 130.376 88.9175 130.473 88.8811C130.57 88.8448 130.677 88.8385 130.778 88.8632C130.879 88.888 130.97 88.9425 131.04 89.0197C131.109 89.0969 131.154 89.1932 131.167 89.296C131.181 89.3988 131.163 89.5034 131.117 89.596C131.07 89.6887 130.996 89.7651 130.905 89.8154C130.814 89.8657 130.71 89.8874 130.606 89.8778C130.475 89.8702 130.352 89.8111 130.264 89.7135C130.176 89.6158 130.13 89.4875 130.137 89.3565Z" fill="url(#paint13_radial_17538_101340)"></path></g><g style="mix-blend-mode:color-dodge"><path d="M129.94 89.3368C129.942 89.1952 129.987 89.0576 130.069 88.9419C130.15 88.8262 130.265 88.7378 130.398 88.6882C130.531 88.6386 130.676 88.6301 130.814 88.6639C130.952 88.6977 131.076 88.7722 131.171 88.8776C131.266 88.983 131.327 89.1144 131.345 89.2548C131.364 89.3951 131.34 89.5378 131.276 89.6642C131.212 89.7906 131.111 89.8948 130.987 89.9633C130.863 90.0317 130.721 90.0612 130.579 90.0479C130.4 90.0374 130.232 89.9568 130.113 89.8236C129.993 89.6904 129.931 89.5154 129.94 89.3368Z" fill="url(#paint14_radial_17538_101340)"></path></g><g opacity="0.4"><g style="mix-blend-mode:screen"><path d="M181.544 88.3954C179.916 88.2445 178.71 86.9027 178.85 85.3983C178.991 83.894 180.424 82.7967 182.052 82.9476C183.68 83.0984 184.886 84.4402 184.746 85.9446C184.606 87.449 183.172 88.5462 181.544 88.3954Z" fill="url(#paint15_radial_17538_101340)"></path></g></g><g opacity="0.3"><g style="mix-blend-mode:screen"><path d="M118.687 75.0479C118.828 73.5428 120.262 72.4449 121.89 72.5959C123.518 72.747 124.723 74.0899 124.583 75.595C124.442 77.1001 123.008 78.1962 121.38 78.0451C119.752 77.894 118.547 76.553 118.687 75.0479Z" fill="url(#paint16_radial_17538_101340)"></path></g><g style="mix-blend-mode:screen"><path d="M120.707 75.2329C120.708 75.0471 120.765 74.8659 120.871 74.7131C120.977 74.5603 121.127 74.4431 121.301 74.3768C121.475 74.3105 121.666 74.2984 121.847 74.3419C122.028 74.3853 122.192 74.4824 122.317 74.6204C122.442 74.7584 122.522 74.9309 122.547 75.115C122.571 75.2992 122.54 75.4866 122.456 75.6525C122.372 75.8184 122.239 75.9551 122.076 76.0446C121.912 76.1341 121.726 76.1722 121.54 76.154C121.308 76.1407 121.09 76.0365 120.934 75.8641C120.778 75.6917 120.696 75.4649 120.707 75.2329Z" fill="url(#paint17_radial_17538_101340)"></path></g><g style="mix-blend-mode:color-dodge"><path d="M120.401 75.2008C120.405 74.9498 120.485 74.706 120.631 74.5011C120.776 74.2962 120.98 74.1397 121.216 74.0522C121.452 73.9646 121.709 73.95 121.954 74.0102C122.198 74.0704 122.419 74.2026 122.587 74.3897C122.755 74.5767 122.862 74.8099 122.895 75.0587C122.928 75.3076 122.886 75.5606 122.772 75.7848C122.659 76.009 122.48 76.1939 122.26 76.3155C122.04 76.4371 121.788 76.4897 121.537 76.4664C121.218 76.4488 120.919 76.3056 120.706 76.0682C120.493 75.8309 120.383 75.5189 120.401 75.2008Z" fill="url(#paint18_radial_17538_101340)"></path></g></g><g style="mix-blend-mode:color-dodge" opacity="0.3"><path d="M147.068 80.4631C146.971 79.4204 145.976 78.6596 144.851 78.7646C143.725 78.8696 142.886 79.7999 142.984 80.8426C143.082 81.8852 144.075 82.6461 145.202 82.5411C146.329 82.436 147.166 81.5058 147.068 80.4631Z" fill="url(#paint19_radial_17538_101340)"></path></g><g style="mix-blend-mode:screen"><path d="M147.3 99.5387C149.353 99.3545 150.879 97.6669 150.708 95.7694C150.536 93.872 148.733 92.4831 146.679 92.6674C144.626 92.8516 143.1 94.5392 143.271 96.4367C143.442 98.3341 145.246 99.723 147.3 99.5387Z" fill="url(#paint20_radial_17538_101340)"></path></g><g style="mix-blend-mode:screen"><path d="M147.708 94.5164C147.704 94.2851 147.631 94.0602 147.496 93.8713C147.362 93.6823 147.174 93.538 146.957 93.4572C146.739 93.3764 146.502 93.3628 146.277 93.4183C146.051 93.4737 145.848 93.5955 145.693 93.7679C145.538 93.9403 145.439 94.1552 145.408 94.3846C145.378 94.6141 145.417 94.8473 145.522 95.054C145.626 95.2607 145.791 95.4313 145.994 95.5434C146.197 95.6555 146.429 95.704 146.66 95.6825C146.806 95.6748 146.949 95.6384 147.08 95.5756C147.212 95.5127 147.33 95.4246 147.427 95.3163C147.525 95.208 147.599 95.0816 147.648 94.9443C147.696 94.807 147.717 94.6617 147.708 94.5164Z" fill="url(#paint21_radial_17538_101340)"></path></g><g style="mix-blend-mode:color-dodge"><path d="M148.131 94.4785C148.057 93.6808 147.297 93.0987 146.434 93.1889C145.571 93.2792 144.932 93.9792 145.006 94.7769C145.08 95.5746 145.841 96.1567 146.704 96.0775C147.567 95.9983 148.212 95.2724 148.131 94.4785Z" fill="url(#paint22_radial_17538_101340)"></path></g><g style="mix-blend-mode:screen"><path d="M166.165 75.9006C166.161 75.6411 166.079 75.3888 165.929 75.1767C165.779 74.9646 165.569 74.8024 165.325 74.7116C165.081 74.6207 164.815 74.6052 164.563 74.6673C164.31 74.7293 164.082 74.8659 163.908 75.0592C163.734 75.2526 163.623 75.4936 163.589 75.7509C163.555 76.0082 163.6 76.2697 163.717 76.5013C163.835 76.7329 164.02 76.9238 164.248 77.049C164.476 77.1742 164.736 77.2279 164.995 77.203C165.324 77.1845 165.631 77.037 165.85 76.7928C166.07 76.5487 166.183 76.2278 166.165 75.9006Z" fill="url(#paint23_radial_17538_101340)"></path></g><g style="mix-blend-mode:screen"><path d="M165.269 75.9865C165.268 75.9065 165.243 75.8288 165.197 75.7634C165.15 75.698 165.086 75.6479 165.011 75.6196C164.936 75.5913 164.854 75.5861 164.776 75.6047C164.698 75.6233 164.628 75.6648 164.573 75.7238C164.519 75.7829 164.484 75.8567 164.473 75.9359C164.461 76.015 164.474 76.0958 164.509 76.1677C164.544 76.2396 164.6 76.2994 164.669 76.3393C164.739 76.3792 164.819 76.3973 164.899 76.3914C164.95 76.3895 165 76.3775 165.046 76.356C165.093 76.3346 165.135 76.3041 165.169 76.2664C165.204 76.2288 165.23 76.1846 165.247 76.1365C165.265 76.0885 165.272 76.0375 165.269 75.9865Z" fill="url(#paint24_radial_17538_101340)"></path></g><g style="mix-blend-mode:color-dodge"><path d="M165.418 75.9732C165.416 75.864 165.381 75.7581 165.317 75.6692C165.253 75.5804 165.164 75.5126 165.062 75.4749C164.959 75.4372 164.847 75.4312 164.741 75.4577C164.635 75.4842 164.539 75.542 164.466 75.6236C164.393 75.7051 164.347 75.8067 164.333 75.9149C164.319 76.0232 164.338 76.1332 164.387 76.2306C164.437 76.328 164.514 76.4082 164.61 76.4609C164.706 76.5136 164.816 76.5362 164.925 76.5259C165.064 76.5178 165.194 76.455 165.286 76.3514C165.379 76.2477 165.426 76.1117 165.418 75.9732Z" fill="url(#paint25_radial_17538_101340)"></path></g><g style="mix-blend-mode:screen"><path d="M27.5871 71.3528C27.5833 71.0933 27.5011 70.841 27.3511 70.6289C27.2012 70.4167 26.9905 70.2546 26.7467 70.1637C26.5029 70.0728 26.2372 70.0574 25.9844 70.1194C25.7316 70.1814 25.5035 70.3181 25.3299 70.5114C25.1562 70.7047 25.0451 70.9458 25.0111 71.2031C24.9771 71.4604 25.0217 71.7219 25.1392 71.9535C25.2567 72.185 25.4415 72.3759 25.6695 72.5011C25.8975 72.6263 26.1582 72.68 26.4173 72.6552C26.7455 72.6366 27.053 72.4891 27.2722 72.245C27.4915 72.0008 27.6047 71.68 27.5871 71.3528Z" fill="url(#paint26_radial_17538_101340)"></path></g><g style="mix-blend-mode:screen"><path d="M26.6912 71.4328C26.6899 71.3528 26.6645 71.2751 26.6184 71.2097C26.5723 71.1443 26.5076 71.0942 26.4326 71.0659C26.3577 71.0376 26.2759 71.0324 26.1979 71.051C26.12 71.0695 26.0494 71.111 25.9953 71.1701C25.9413 71.2291 25.9063 71.303 25.8948 71.3822C25.8833 71.4613 25.8959 71.5421 25.9309 71.614C25.9659 71.6859 26.0218 71.7457 26.0913 71.7856C26.1607 71.8255 26.2406 71.8436 26.3205 71.8377C26.3717 71.8358 26.4219 71.8238 26.4683 71.8023C26.5147 71.7809 26.5564 71.7504 26.5909 71.7127C26.6254 71.675 26.6521 71.6309 26.6693 71.5828C26.6865 71.5348 26.694 71.4838 26.6912 71.4328Z" fill="url(#paint27_radial_17538_101340)"></path></g><g style="mix-blend-mode:color-dodge"><path d="M26.8402 71.4263C26.8379 71.3172 26.8026 71.2112 26.739 71.1224C26.6754 71.0335 26.5864 70.9658 26.4836 70.928C26.3808 70.8903 26.269 70.8843 26.1628 70.9108C26.0565 70.9373 25.9607 70.9951 25.8879 71.0767C25.8151 71.1582 25.7686 71.2598 25.7545 71.3681C25.7404 71.4763 25.7594 71.5863 25.8089 71.6837C25.8584 71.7811 25.9362 71.8613 26.0322 71.914C26.1281 71.9667 26.2377 71.9893 26.3468 71.979C26.4857 71.9709 26.6158 71.9082 26.7083 71.8045C26.8008 71.7009 26.8483 71.5648 26.8402 71.4263Z" fill="url(#paint28_radial_17538_101340)"></path></g><g style="mix-blend-mode:screen"><path d="M97.5879 107.558C97.4474 106.053 96.0133 104.955 94.3852 105.106C92.7571 105.257 91.5504 106.6 91.6908 108.105C91.8313 109.61 93.2653 110.706 94.8934 110.557C96.5216 110.408 97.7283 109.063 97.5879 107.558Z" fill="url(#paint29_radial_17538_101340)"></path></g><g style="mix-blend-mode:screen"><path d="M95.5433 107.741C95.5425 107.555 95.4853 107.374 95.3793 107.221C95.2733 107.069 95.1234 106.951 94.9493 106.885C94.7753 106.819 94.5851 106.806 94.4039 106.85C94.2227 106.893 94.0588 106.99 93.9339 107.128C93.8089 107.265 93.7287 107.438 93.7037 107.622C93.6787 107.806 93.7101 107.993 93.7938 108.159C93.8775 108.325 94.0097 108.462 94.1728 108.552C94.336 108.641 94.5225 108.68 94.708 108.662C94.9406 108.648 95.1584 108.544 95.3146 108.372C95.4708 108.2 95.5529 107.973 95.5433 107.741Z" fill="url(#paint30_radial_17538_101340)"></path></g><g style="mix-blend-mode:color-dodge"><path d="M95.9042 107.715C95.8997 107.464 95.8196 107.22 95.674 107.016C95.5285 106.811 95.3244 106.654 95.0884 106.567C94.8524 106.479 94.5954 106.465 94.3509 106.525C94.1064 106.585 93.8858 106.717 93.7179 106.904C93.5499 107.091 93.4424 107.324 93.4093 107.573C93.3762 107.822 93.4191 108.075 93.5325 108.299C93.6458 108.524 93.8243 108.708 94.0446 108.83C94.2649 108.952 94.5169 109.004 94.7676 108.981C95.0865 108.963 95.3852 108.819 95.5983 108.582C95.8113 108.345 95.9213 108.033 95.9042 107.715Z" fill="url(#paint31_radial_17538_101340)"></path></g><g style="mix-blend-mode:screen"><path d="M72.3073 95.1768C73.5227 95.064 74.4229 94.0618 74.318 92.9383C74.2131 91.8149 73.1427 90.9956 71.9273 91.1084C70.7119 91.2213 69.8116 92.2235 69.9166 93.3469C70.0215 94.4704 71.0919 95.2896 72.3073 95.1768Z" fill="url(#paint32_radial_17538_101340)"></path></g><g style="mix-blend-mode:screen"><path d="M72.7811 93.0871C72.7786 92.9494 72.7346 92.8156 72.6547 92.7032C72.5748 92.5908 72.4627 92.505 72.3332 92.457C72.2036 92.409 72.0626 92.401 71.9284 92.4342C71.7943 92.4673 71.6733 92.5399 71.5812 92.6426C71.4891 92.7454 71.4302 92.8734 71.4121 93.0099C71.3941 93.1465 71.4178 93.2853 71.4801 93.4083C71.5424 93.5313 71.6404 93.6327 71.7614 93.6993C71.8824 93.7659 72.0207 93.7946 72.1583 93.7816C72.333 93.7712 72.4965 93.6923 72.6132 93.5622C72.7298 93.4321 72.7902 93.2614 72.7811 93.0871Z" fill="url(#paint33_radial_17538_101340)"></path></g><g style="mix-blend-mode:color-dodge"><path d="M73.03 93.0664C73.027 92.8786 72.9673 92.6962 72.8586 92.5428C72.75 92.3894 72.5975 92.2722 72.421 92.2065C72.2445 92.1408 72.0523 92.1296 71.8694 92.1745C71.6865 92.2193 71.5214 92.3181 71.3956 92.4579C71.2699 92.5977 71.1893 92.7721 71.1644 92.9582C71.1396 93.1443 71.1716 93.3336 71.2563 93.5013C71.3409 93.669 71.4744 93.8074 71.6391 93.8984C71.8039 93.9894 71.9924 94.0288 72.1799 94.0114C72.4182 93.9981 72.6415 93.8912 72.8009 93.714C72.9602 93.5369 73.0426 93.304 73.03 93.0664Z" fill="url(#paint34_radial_17538_101340)"></path></g><g style="mix-blend-mode:screen"><path d="M88.2142 74.1602C88.1347 73.3146 87.3271 72.6975 86.4123 72.7822C85.4975 72.8669 84.8175 73.6222 84.8969 74.4696C84.9764 75.3171 85.7821 75.9323 86.6969 75.8476C87.6117 75.7629 88.2918 75.0094 88.2142 74.1602Z" fill="url(#paint35_radial_17538_101340)"></path></g><g style="mix-blend-mode:screen"><path d="M87.0504 74.2758C87.0485 74.1721 87.0153 74.0715 86.9551 73.9869C86.895 73.9024 86.8107 73.8379 86.7132 73.8018C86.6157 73.7657 86.5096 73.7597 86.4087 73.7847C86.3077 73.8096 86.2167 73.8642 86.1474 73.9415C86.0781 74.0187 86.0337 74.115 86.0201 74.2178C86.0065 74.3205 86.0242 74.425 86.071 74.5176C86.1178 74.6101 86.1915 74.6864 86.2825 74.7366C86.3735 74.7868 86.4775 74.8085 86.581 74.7989C86.7128 74.7913 86.8361 74.732 86.9241 74.634C87.0121 74.5359 87.0575 74.4071 87.0504 74.2758Z" fill="url(#paint36_radial_17538_101340)"></path></g><g style="mix-blend-mode:color-dodge"><path d="M87.2712 74.2557C87.2691 74.1142 87.2242 73.9766 87.1424 73.8608C87.0606 73.7451 86.9457 73.6567 86.8127 73.6071C86.6796 73.5575 86.5347 73.5491 86.3968 73.5828C86.2589 73.6166 86.1344 73.6911 86.0397 73.7965C85.9449 73.9019 85.8842 74.0334 85.8655 74.1737C85.8468 74.314 85.8711 74.4567 85.935 74.5831C85.999 74.7095 86.0997 74.8137 86.224 74.8822C86.3483 74.9506 86.4904 74.9801 86.6318 74.9668C86.8111 74.9568 86.9791 74.8763 87.099 74.743C87.2188 74.6097 87.2808 74.4345 87.2712 74.2557Z" fill="url(#paint37_radial_17538_101340)"></path></g><g style="mix-blend-mode:screen"><path d="M52.9954 110.325C52.9159 109.48 52.1083 108.851 51.1936 108.947C50.2788 109.043 49.5987 109.787 49.6782 110.633C49.7577 111.478 50.5634 112.107 51.4782 112.013C52.3929 111.919 53.073 111.173 52.9954 110.325Z" fill="url(#paint38_radial_17538_101340)"></path></g><g style="mix-blend-mode:screen" opacity="0.4"><path d="M97.9819 24.804C97.7802 22.658 95.7306 21.0636 93.4089 21.3067C91.0872 21.5499 89.3612 23.4387 89.5629 25.5848C89.7646 27.7308 91.8095 29.3251 94.1312 29.0866C96.4529 28.8482 98.1789 26.9547 97.9819 24.804Z" fill="url(#paint39_radial_17538_101340)"></path></g><g style="mix-blend-mode:color-dodge"><path d="M111.459 110.414C111.457 110.272 111.412 110.135 111.33 110.019C111.248 109.903 111.133 109.815 111 109.765C110.867 109.716 110.722 109.707 110.584 109.741C110.446 109.775 110.322 109.849 110.227 109.955C110.132 110.06 110.072 110.192 110.053 110.332C110.034 110.472 110.059 110.615 110.123 110.741C110.186 110.868 110.287 110.972 110.411 111.04C110.536 111.109 110.678 111.138 110.819 111.125C110.998 111.115 111.166 111.034 111.286 110.901C111.406 110.768 111.468 110.593 111.459 110.414Z" fill="url(#paint40_radial_17538_101340)"></path></g><g style="mix-blend-mode:color-dodge"><path d="M95.9975 24.9702C95.9915 24.5679 95.8644 24.1768 95.6328 23.8479C95.4012 23.519 95.0758 23.2677 94.6992 23.1268C94.3226 22.9858 93.9122 22.9618 93.5218 23.0578C93.1313 23.1538 92.7789 23.3655 92.5105 23.6651C92.2421 23.9646 92.0702 24.3382 92.0173 24.7371C91.9645 25.1359 92.0331 25.5414 92.2141 25.9006C92.3952 26.2599 92.6804 26.5561 93.0324 26.7507C93.3843 26.9452 93.7867 27.029 94.187 26.9911C94.6942 26.9614 95.1692 26.7323 95.5083 26.3537C95.8474 25.9752 96.0232 25.4779 95.9975 24.9702Z" fill="url(#paint41_radial_17538_101340)"></path></g><g style="mix-blend-mode:screen"><path d="M36.5182 94.8348C37.7337 94.7219 38.6339 93.7197 38.5289 92.5963C38.424 91.4728 37.3536 90.6536 36.1382 90.7664C34.9228 90.8792 34.0226 91.8814 34.1275 93.0049C34.2324 94.1283 35.3028 94.9476 36.5182 94.8348Z" fill="url(#paint42_radial_17538_101340)"></path></g><g style="mix-blend-mode:screen"><path d="M80.953 53.1859C80.9505 53.0483 80.9065 52.9145 80.8268 52.8021C80.747 52.6897 80.6351 52.6039 80.5056 52.5558C80.3762 52.5078 80.2352 52.4997 80.1011 52.5326C79.967 52.5655 79.8459 52.638 79.7537 52.7405C79.6615 52.843 79.6024 52.9709 79.5842 53.1074C79.5659 53.2438 79.5893 53.3826 79.6513 53.5057C79.7133 53.6287 79.8111 53.7303 79.9319 53.7971C80.0526 53.864 80.1908 53.893 80.3283 53.8804C80.4151 53.8757 80.5001 53.854 80.5784 53.8166C80.6568 53.7791 80.7269 53.7266 80.785 53.6622C80.843 53.5977 80.8876 53.5224 80.9165 53.4407C80.9453 53.359 80.9577 53.2724 80.953 53.1859Z" fill="url(#paint43_radial_17538_101340)"></path></g><g style="mix-blend-mode:color-dodge"><path d="M58.9247 67.9846C58.9213 67.7973 58.8614 67.6154 58.7527 67.4625C58.6441 67.3097 58.4917 67.193 58.3156 67.1277C58.1394 67.0625 57.9477 67.0516 57.7652 67.0966C57.5828 67.1416 57.4182 67.2403 57.2929 67.3799C57.1676 67.5195 57.0874 67.6935 57.0628 67.8793C57.0381 68.065 57.0702 68.2538 57.1548 68.421C57.2393 68.5883 57.3725 68.7263 57.5369 68.817C57.7014 68.9077 57.8894 68.947 58.0765 68.9296C58.3147 68.9163 58.5378 68.8093 58.6968 68.6321C58.8559 68.4549 58.9378 68.222 58.9247 67.9846Z" fill="url(#paint44_radial_17538_101340)"></path></g><g style="mix-blend-mode:color-dodge"><path d="M89.4589 100.593C89.4544 100.342 89.3742 100.098 89.2287 99.8935C89.0832 99.6886 88.8791 99.5322 88.6431 99.4446C88.4071 99.3571 88.1501 99.3425 87.9056 99.4027C87.6611 99.4629 87.4405 99.5951 87.2725 99.7821C87.1046 99.9692 86.997 100.202 86.964 100.451C86.9309 100.7 86.9738 100.953 87.0872 101.177C87.2005 101.401 87.379 101.586 87.5993 101.708C87.8196 101.83 88.0716 101.882 88.3223 101.859C88.6414 101.841 88.9404 101.698 89.1535 101.461C89.3667 101.223 89.4765 100.911 89.4589 100.593Z" fill="url(#paint45_radial_17538_101340)"></path></g><g style="mix-blend-mode:color-dodge"><path d="M123.506 10.227C123.501 9.97604 123.421 9.7322 123.276 9.52731C123.13 9.32242 122.926 9.166 122.69 9.07844C122.454 8.99088 122.197 8.97625 121.952 9.03645C121.708 9.09665 121.487 9.22889 121.319 9.41593C121.151 9.60297 121.044 9.83612 121.011 10.085C120.978 10.3338 121.021 10.5869 121.134 10.8111C121.247 11.0352 121.426 11.2202 121.646 11.3417C121.866 11.4633 122.118 11.5159 122.369 11.4926C122.688 11.475 122.987 11.3318 123.2 11.0945C123.414 10.8571 123.523 10.5451 123.506 10.227Z" fill="url(#paint46_radial_17538_101340)"></path></g><g opacity="0.6" filter="url(#filter0_f_17538_101340)"><circle cx="124" cy="94" r="50" fill="currentColor"></circle></g><path fill-rule="evenodd" clip-rule="evenodd" d="M122.178 47.358L162.327 70.538L161.847 71.3698C161.652 71.707 161.458 72.0442 161.24 72.3681C161.034 72.6987 160.804 73.0159 160.582 73.3219C158.824 75.7541 156.823 77.9412 154.342 79.6561C151.757 81.4455 148.873 82.5533 145.774 83.2366C143.783 83.676 141.761 84.0372 139.753 84.3468C137.746 84.6563 135.723 84.9122 133.702 85.139C132.962 85.2216 132.207 85.3851 131.523 85.6646C130.783 85.987 130.735 86.7831 130.309 87.4666C129.864 88.1839 128.893 88.4926 129.005 89.3366C129.093 89.9568 129.417 91.0716 129.417 91.0716C129.417 91.0716 129.749 91.9797 130.631 93.8123C131.084 94.8382 131.606 96.0003 132.017 97.0465C133.182 99.9526 134.382 102.986 134.95 106.058C135.54 109.253 135.338 112.125 134.49 115.112C134.073 116.58 133.297 117.922 132.671 119.299C132.084 120.609 131.899 120.897 131.185 122.133C128.145 127.399 113.526 120.805 108.569 117.943C103.611 115.08 89.9826 104.727 92.7462 99.9408C93.46 98.7043 93.7019 98.4259 94.536 97.2739C95.4336 96.0386 96.4322 94.8761 97.4883 93.7923C99.6735 91.6104 101.725 90.1516 105.119 88.8544C108.085 87.7707 111.427 87.3188 114.526 86.8752C115.631 86.7187 116.79 86.6008 117.911 86.4689C118.931 86.3532 120.185 86.2882 120.871 86.1378C121.557 85.9873 121.944 85.8291 122.525 85.5949C123.305 85.2813 123.38 84.4403 123.779 83.6963C124.158 82.9861 124.536 82.3803 124.446 81.5787C124.364 80.842 124.11 80.1108 123.812 79.4291C122.998 77.5652 122.208 75.6854 121.472 73.7919C120.731 71.8805 120.038 69.9665 119.423 68.023C119.319 67.7234 119.234 67.4192 119.148 67.1149C119.056 66.822 118.982 66.5244 118.908 66.2268C118.172 63.269 117.931 60.2524 118.348 57.2409C118.758 54.2406 119.806 51.4137 121.312 48.806L122.155 47.3447L122.178 47.358Z" fill="currentColor"></path><path fill-rule="evenodd" clip-rule="evenodd" d="M122.178 47.358L162.327 70.538L161.847 71.3698C161.652 71.707 161.458 72.0442 161.24 72.3681C161.034 72.6987 160.804 73.0159 160.582 73.3219C158.824 75.7541 156.823 77.9412 154.342 79.6561C151.757 81.4455 148.873 82.5533 145.774 83.2366C143.783 83.676 141.761 84.0372 139.753 84.3468C137.746 84.6563 135.723 84.9122 133.702 85.139C132.962 85.2216 132.207 85.3851 131.523 85.6646C130.783 85.987 130.735 86.7831 130.309 87.4666C129.864 88.1839 128.893 88.4926 129.005 89.3366C129.093 89.9568 129.417 91.0716 129.417 91.0716C129.417 91.0716 129.749 91.9797 130.631 93.8123C131.084 94.8382 131.606 96.0003 132.017 97.0465C133.182 99.9526 134.382 102.986 134.95 106.058C135.54 109.253 135.338 112.125 134.49 115.112C134.073 116.58 133.297 117.922 132.671 119.299C132.084 120.609 131.899 120.897 131.185 122.133C128.145 127.399 113.526 120.805 108.569 117.943C103.611 115.08 89.9826 104.727 92.7462 99.9408C93.46 98.7043 93.7019 98.4259 94.536 97.2739C95.4336 96.0386 96.4322 94.8761 97.4883 93.7923C99.6735 91.6104 101.725 90.1516 105.119 88.8544C108.085 87.7707 111.427 87.3188 114.526 86.8752C115.631 86.7187 116.79 86.6008 117.911 86.4689C118.931 86.3532 120.185 86.2882 120.871 86.1378C121.557 85.9873 121.944 85.8291 122.525 85.5949C123.305 85.2813 123.38 84.4403 123.779 83.6963C124.158 82.9861 124.536 82.3803 124.446 81.5787C124.364 80.842 124.11 80.1108 123.812 79.4291C122.998 77.5652 122.208 75.6854 121.472 73.7919C120.731 71.8805 120.038 69.9665 119.423 68.023C119.319 67.7234 119.234 67.4192 119.148 67.1149C119.056 66.822 118.982 66.5244 118.908 66.2268C118.172 63.269 117.931 60.2524 118.348 57.2409C118.758 54.2406 119.806 51.4137 121.312 48.806L122.155 47.3447L122.178 47.358Z" fill="#17273b" fill-opacity="0.4"></path><path fill-rule="evenodd" clip-rule="evenodd" d="M132.358 124.241L129.226 129.507C126.845 133.497 115.723 131.437 104.254 124.815C92.7839 118.193 85.4325 109.603 87.7046 105.534L90.6985 100.189L132.37 124.248L132.358 124.241Z" fill="currentColor"></path><path fill-rule="evenodd" clip-rule="evenodd" d="M132.358 124.241L129.226 129.507C126.845 133.497 115.723 131.437 104.254 124.815C92.7839 118.193 85.4325 109.603 87.7046 105.534L90.6985 100.189L132.37 124.248L132.358 124.241Z" fill="#17273b" fill-opacity="0.6"></path><path fill-rule="evenodd" clip-rule="evenodd" d="M115.757 104.891C127.261 111.533 134.699 120.188 132.362 124.234C130.026 128.281 118.812 126.167 107.308 119.525C95.8035 112.883 88.3663 104.228 90.7025 100.182C93.0388 96.1354 104.253 98.2486 115.757 104.891Z" fill="currentColor"></path><path fill-rule="evenodd" clip-rule="evenodd" d="M115.757 104.891C127.261 111.533 134.699 120.188 132.362 124.234C130.026 128.281 118.812 126.167 107.308 119.525C95.8035 112.883 88.3663 104.228 90.7025 100.182C93.0388 96.1354 104.253 98.2486 115.757 104.891Z" fill="#17273b" fill-opacity="0.2"></path><path d="M146.447 79.8977C146.034 79.9992 145.602 80.0899 145.162 80.1765C143.184 80.5673 141.227 80.8697 139.247 81.1306C137.238 81.3889 135.278 81.5894 133.295 81.7766C132.43 81.8644 131.662 82.0228 131.02 82.2825C130.693 82.4232 130.394 82.5868 130.118 82.7714C130.1 82.7755 130.073 82.7792 130.045 82.7829C130.017 82.7866 129.989 82.7902 129.971 82.7943C129.718 82.921 129.507 83.0748 129.329 83.2044C129.143 83.3399 128.994 83.4489 128.87 83.4727C128.368 83.5697 127.838 83.2636 127.671 82.7805C127.629 82.6419 127.63 82.4184 127.632 82.1417C127.633 81.9321 127.634 81.692 127.617 81.4351C127.612 81.4177 127.601 81.3829 127.607 81.3721C127.641 81.0477 127.628 80.6967 127.575 80.3365C127.491 79.6574 127.244 78.9134 126.876 78.1135C126.035 76.2957 125.228 74.4979 124.459 72.6357C123.684 70.7841 122.973 68.927 122.328 67.0361C122.253 66.8207 122.162 66.5249 122.05 66.1595C121.959 65.8919 121.88 65.6028 121.801 65.3136C121.58 64.4985 121.484 63.4792 122.076 62.7675C124.904 59.3702 129.091 65.7017 135.846 69.6017C142.601 73.5017 149.311 73.0243 148.796 78.1941C148.715 79.0146 147.891 79.6159 146.447 79.8977Z" fill="currentColor"></path><path d="M119.731 98.092C121.855 99.318 122.398 102.678 125.021 105.723C127.671 108.797 130.925 112.365 130.583 114.538C130.241 116.712 129.587 117.853 128.38 119.945C126.999 122.336 117.532 119.157 110.06 114.843C102.754 110.624 94.9873 103.284 96.2278 100.846C97.531 98.6464 98.0773 97.8888 99.7617 96.7437C101.446 95.5987 106.513 96.6437 110.708 97.4591C114.61 98.2174 118.107 97.1543 119.731 98.092Z" fill="currentColor"></path><path fill-rule="evenodd" clip-rule="evenodd" d="M123.818 40.7538L167.357 65.8909L164.148 71.2621C162.33 74.3041 151.23 71.2223 139.253 64.3074C127.276 57.3925 119.057 49.32 120.782 46.2248L123.83 40.7604L123.818 40.7538Z" fill="currentColor"></path><path fill-rule="evenodd" clip-rule="evenodd" d="M123.818 40.7538L167.357 65.8909L164.148 71.2621C162.33 74.3041 151.23 71.2223 139.253 64.3074C127.276 57.3925 119.057 49.32 120.782 46.2248L123.83 40.7604L123.818 40.7538Z" fill="#17273b" fill-opacity="0.6"></path><path d="M148.298 48.6144C154.275 52.0651 159.321 55.7691 162.65 58.9562C164.319 60.5537 165.526 61.9929 166.21 63.1811C166.924 64.4218 166.938 65.1505 166.722 65.524C166.506 65.8975 165.868 66.2499 164.437 66.2517C163.066 66.2534 161.216 65.9278 158.998 65.2815C154.574 63.9921 148.842 61.4738 142.866 58.0231C136.889 54.5724 131.843 50.8684 128.514 47.6813C126.845 46.0838 125.638 44.6446 124.954 43.4564C124.24 42.2158 124.226 41.487 124.442 41.1135C124.657 40.7401 125.295 40.3876 126.727 40.3858C128.098 40.3841 129.948 40.7097 132.166 41.356C136.59 42.6454 142.321 45.1638 148.298 48.6144Z" fill="currentColor"></path><path d="M148.298 48.6144C154.275 52.0651 159.321 55.7691 162.65 58.9562C164.319 60.5537 165.526 61.9929 166.21 63.1811C166.924 64.4218 166.938 65.1505 166.722 65.524C166.506 65.8975 165.868 66.2499 164.437 66.2517C163.066 66.2534 161.216 65.9278 158.998 65.2815C154.574 63.9921 148.842 61.4738 142.866 58.0231C136.889 54.5724 131.843 50.8684 128.514 47.6813C126.845 46.0838 125.638 44.6446 124.954 43.4564C124.24 42.2158 124.226 41.487 124.442 41.1135C124.657 40.7401 125.295 40.3876 126.727 40.3858C128.098 40.3841 129.948 40.7097 132.166 41.356C136.59 42.6454 142.321 45.1638 148.298 48.6144Z" fill="#17273b" fill-opacity="0.2"></path><path d="M148.298 48.6144C154.275 52.0651 159.321 55.7691 162.65 58.9562C164.319 60.5537 165.526 61.9929 166.21 63.1811C166.924 64.4218 166.938 65.1505 166.722 65.524C166.506 65.8975 165.868 66.2499 164.437 66.2517C163.066 66.2534 161.216 65.9278 158.998 65.2815C154.574 63.9921 148.842 61.4738 142.866 58.0231C136.889 54.5724 131.843 50.8684 128.514 47.6813C126.845 46.0838 125.638 44.6446 124.954 43.4564C124.24 42.2158 124.226 41.487 124.442 41.1135C124.657 40.7401 125.295 40.3876 126.727 40.3858C128.098 40.3841 129.948 40.7097 132.166 41.356C136.59 42.6454 142.321 45.1638 148.298 48.6144Z" stroke="url(#paint47_linear_17538_101340)" stroke-width="1.44"></path><path d="M130.929 78.7886L122.105 94.0725" stroke="white" stroke-width="4" stroke-linecap="round"></path><path d="M134.131 90.8214L118.847 81.9972" stroke="white" stroke-width="4" stroke-linecap="round"></path></g><defs><filter id="filter0_f_17538_101340" x="-6" y="-36" width="260" height="260" filterUnits="userSpaceOnUse" color-interpolation-filters="sRGB"><feFlood flood-opacity="0" result="BackgroundImageFix"></feFlood><feBlend mode="normal" in="SourceGraphic" in2="BackgroundImageFix" result="shape"></feBlend><feGaussianBlur stdDeviation="40" result="effect1_foregroundBlur_17538_101340"></feGaussianBlur></filter><radialGradient id="paint0_radial_17538_101340" cx="0" cy="0" r="1" gradientUnits="userSpaceOnUse" gradientTransform="translate(42.3505 30.1743) rotate(132.959) scale(1.17151 1.25867)"><stop stop-color="currentColor"></stop><stop offset="1" stop-color="currentColor" stop-opacity="0"></stop></radialGradient><radialGradient id="paint1_radial_17538_101340" cx="0" cy="0" r="1" gradientUnits="userSpaceOnUse" gradientTransform="translate(50.9512 43.892) rotate(132.935) scale(0.36269 0.389652)"><stop stop-color="currentColor"></stop><stop offset="1" stop-color="currentColor" stop-opacity="0"></stop></radialGradient><radialGradient id="paint2_radial_17538_101340" cx="0" cy="0" r="1" gradientUnits="userSpaceOnUse" gradientTransform="translate(42.3198 30.3035) rotate(132.96) scale(0.493719 0.530455)"><stop stop-color="currentColor"></stop><stop offset="1" stop-color="currentColor" stop-opacity="0"></stop></radialGradient><radialGradient id="paint3_radial_17538_101340" cx="0" cy="0" r="1" gradientUnits="userSpaceOnUse" gradientTransform="translate(119.071 105.898) rotate(135.065) scale(2.57853 2.77742)"><stop stop-color="currentColor"></stop><stop offset="1" stop-color="currentColor" stop-opacity="0"></stop></radialGradient><radialGradient id="paint4_radial_17538_101340" cx="0" cy="0" r="1" gradientUnits="userSpaceOnUse" gradientTransform="translate(118.987 105.976) rotate(132.952) scale(0.8367 0.898938)"><stop stop-color="currentColor"></stop><stop offset="1" stop-color="currentColor" stop-opacity="0"></stop></radialGradient><radialGradient id="paint5_radial_17538_101340" cx="0" cy="0" r="1" gradientUnits="userSpaceOnUse" gradientTransform="translate(119.007 105.938) rotate(132.958) scale(1.13467 1.2191)"><stop stop-color="currentColor"></stop><stop offset="1" stop-color="currentColor" stop-opacity="0"></stop></radialGradient><radialGradient id="paint6_radial_17538_101340" cx="0" cy="0" r="1" gradientUnits="userSpaceOnUse" gradientTransform="translate(161.932 44.5117) rotate(140.421) scale(1.92493 2.07219)"><stop stop-color="currentColor"></stop><stop offset="1" stop-color="currentColor" stop-opacity="0"></stop></radialGradient><radialGradient id="paint7_radial_17538_101340" cx="0" cy="0" r="1" gradientUnits="userSpaceOnUse" gradientTransform="translate(162.214 45.1338) rotate(132.957) scale(0.622554 0.668871)"><stop stop-color="currentColor"></stop><stop offset="1" stop-color="currentColor" stop-opacity="0"></stop></radialGradient><radialGradient id="paint8_radial_17538_101340" cx="0" cy="0" r="1" gradientUnits="userSpaceOnUse" gradientTransform="translate(161.928 44.5381) rotate(132.958) scale(0.848492 0.91162)"><stop stop-color="currentColor"></stop><stop offset="1" stop-color="currentColor" stop-opacity="0"></stop></radialGradient><radialGradient id="paint9_radial_17538_101340" cx="0" cy="0" r="1" gradientUnits="userSpaceOnUse" gradientTransform="translate(131.729 33.4029) rotate(135.071) scale(1.45025 1.56211)"><stop stop-color="currentColor"></stop><stop offset="1" stop-color="currentColor" stop-opacity="0"></stop></radialGradient><radialGradient id="paint10_radial_17538_101340" cx="0" cy="0" r="1" gradientUnits="userSpaceOnUse" gradientTransform="translate(131.534 33.4697) rotate(132.958) scale(0.468595 0.503459)"><stop stop-color="currentColor"></stop><stop offset="1" stop-color="currentColor" stop-opacity="0"></stop></radialGradient><radialGradient id="paint11_radial_17538_101340" cx="0" cy="0" r="1" gradientUnits="userSpaceOnUse" gradientTransform="translate(131.673 33.4319) rotate(132.958) scale(0.639305 0.686871)"><stop stop-color="currentColor"></stop><stop offset="1" stop-color="currentColor" stop-opacity="0"></stop></radialGradient><radialGradient id="paint12_radial_17538_101340" cx="0" cy="0" r="1" gradientUnits="userSpaceOnUse" gradientTransform="translate(130.729 89.2657) rotate(135.039) scale(1.45105 1.56297)"><stop stop-color="currentColor"></stop><stop offset="1" stop-color="currentColor" stop-opacity="0"></stop></radialGradient><radialGradient id="paint13_radial_17538_101340" cx="0" cy="0" r="1" gradientUnits="userSpaceOnUse" gradientTransform="translate(130.675 89.3181) rotate(132.956) scale(0.468582 0.503442)"><stop stop-color="currentColor"></stop><stop offset="1" stop-color="currentColor" stop-opacity="0"></stop></radialGradient><radialGradient id="paint14_radial_17538_101340" cx="0" cy="0" r="1" gradientUnits="userSpaceOnUse" gradientTransform="translate(130.673 89.2844) rotate(132.957) scale(0.639286 0.686847)"><stop stop-color="currentColor"></stop><stop offset="1" stop-color="currentColor" stop-opacity="0"></stop></radialGradient><radialGradient id="paint15_radial_17538_101340" cx="0" cy="0" r="1" gradientUnits="userSpaceOnUse" gradientTransform="translate(181.937 85.4389) rotate(140.42) scale(2.57795 2.77521)"><stop stop-color="currentColor"></stop><stop offset="1" stop-color="currentColor" stop-opacity="0"></stop></radialGradient><radialGradient id="paint16_radial_17538_101340" cx="0" cy="0" r="1" gradientUnits="userSpaceOnUse" gradientTransform="translate(121.752 75.0759) rotate(135.064) scale(2.57777 2.7766)"><stop stop-color="currentColor"></stop><stop offset="1" stop-color="currentColor" stop-opacity="0"></stop></radialGradient><radialGradient id="paint17_radial_17538_101340" cx="0" cy="0" r="1" gradientUnits="userSpaceOnUse" gradientTransform="translate(121.667 75.1551) rotate(132.955) scale(0.836727 0.898973)"><stop stop-color="currentColor"></stop><stop offset="1" stop-color="currentColor" stop-opacity="0"></stop></radialGradient><radialGradient id="paint18_radial_17538_101340" cx="0" cy="0" r="1" gradientUnits="userSpaceOnUse" gradientTransform="translate(121.702 75.1112) rotate(132.959) scale(1.1347 1.21912)"><stop stop-color="currentColor"></stop><stop offset="1" stop-color="currentColor" stop-opacity="0"></stop></radialGradient><radialGradient id="paint19_radial_17538_101340" cx="0" cy="0" r="1" gradientUnits="userSpaceOnUse" gradientTransform="translate(144.945 80.4833) rotate(44.9459) scale(1.78622 1.924)"><stop stop-color="currentColor"></stop><stop offset="1" stop-color="currentColor" stop-opacity="0"></stop></radialGradient><radialGradient id="paint20_radial_17538_101340" cx="0" cy="0" r="1" gradientUnits="userSpaceOnUse" gradientTransform="translate(146.815 95.8093) rotate(39.7466) scale(3.25074 3.49954)"><stop stop-color="currentColor"></stop><stop offset="1" stop-color="currentColor" stop-opacity="0"></stop></radialGradient><radialGradient id="paint21_radial_17538_101340" cx="0" cy="0" r="1" gradientUnits="userSpaceOnUse" gradientTransform="translate(146.509 94.4333) rotate(47.0396) scale(1.04601 1.12385)"><stop stop-color="currentColor"></stop><stop offset="1" stop-color="currentColor" stop-opacity="0"></stop></radialGradient><radialGradient id="paint22_radial_17538_101340" cx="0" cy="0" r="1" gradientUnits="userSpaceOnUse" gradientTransform="translate(146.507 94.5024) rotate(44.944) scale(1.36706 1.47251)"><stop stop-color="currentColor"></stop><stop offset="1" stop-color="currentColor" stop-opacity="0"></stop></radialGradient><radialGradient id="paint23_radial_17538_101340" cx="0" cy="0" r="1" gradientUnits="userSpaceOnUse" gradientTransform="translate(164.821 75.8042) rotate(47.0413) scale(1.17151 1.25867)"><stop stop-color="currentColor"></stop><stop offset="1" stop-color="currentColor" stop-opacity="0"></stop></radialGradient><radialGradient id="paint24_radial_17538_101340" cx="0" cy="0" r="1" gradientUnits="userSpaceOnUse" gradientTransform="translate(164.853 75.9575) rotate(47.0653) scale(0.36269 0.389652)"><stop stop-color="currentColor"></stop><stop offset="1" stop-color="currentColor" stop-opacity="0"></stop></radialGradient><radialGradient id="paint25_radial_17538_101340" cx="0" cy="0" r="1" gradientUnits="userSpaceOnUse" gradientTransform="translate(164.852 75.9363) rotate(47.0399) scale(0.493719 0.530455)"><stop stop-color="currentColor"></stop><stop offset="1" stop-color="currentColor" stop-opacity="0"></stop></radialGradient><radialGradient id="paint26_radial_17538_101340" cx="0" cy="0" r="1" gradientUnits="userSpaceOnUse" gradientTransform="translate(26.2433 71.2564) rotate(47.0413) scale(1.17151 1.25867)"><stop stop-color="currentColor"></stop><stop offset="1" stop-color="currentColor" stop-opacity="0"></stop></radialGradient><radialGradient id="paint27_radial_17538_101340" cx="0" cy="0" r="1" gradientUnits="userSpaceOnUse" gradientTransform="translate(26.2754 71.4037) rotate(47.0653) scale(0.36269 0.389652)"><stop stop-color="currentColor"></stop><stop offset="1" stop-color="currentColor" stop-opacity="0"></stop></radialGradient><radialGradient id="paint28_radial_17538_101340" cx="0" cy="0" r="1" gradientUnits="userSpaceOnUse" gradientTransform="translate(26.274 71.3894) rotate(47.0399) scale(0.493719 0.530455)"><stop stop-color="currentColor"></stop><stop offset="1" stop-color="currentColor" stop-opacity="0"></stop></radialGradient><radialGradient id="paint29_radial_17538_101340" cx="0" cy="0" r="1" gradientUnits="userSpaceOnUse" gradientTransform="translate(94.5223 107.586) rotate(44.9351) scale(2.57853 2.77742)"><stop stop-color="currentColor"></stop><stop offset="1" stop-color="currentColor" stop-opacity="0"></stop></radialGradient><radialGradient id="paint30_radial_17538_101340" cx="0" cy="0" r="1" gradientUnits="userSpaceOnUse" gradientTransform="translate(94.5831 107.663) rotate(47.048) scale(0.8367 0.898938)"><stop stop-color="currentColor"></stop><stop offset="1" stop-color="currentColor" stop-opacity="0"></stop></radialGradient><radialGradient id="paint31_radial_17538_101340" cx="0" cy="0" r="1" gradientUnits="userSpaceOnUse" gradientTransform="translate(94.6026 107.626) rotate(47.0418) scale(1.13467 1.2191)"><stop stop-color="currentColor"></stop><stop offset="1" stop-color="currentColor" stop-opacity="0"></stop></radialGradient><radialGradient id="paint32_radial_17538_101340" cx="0" cy="0" r="1" gradientUnits="userSpaceOnUse" gradientTransform="translate(72.0133 92.969) rotate(39.5793) scale(1.92491 2.0722)"><stop stop-color="currentColor"></stop><stop offset="1" stop-color="currentColor" stop-opacity="0"></stop></radialGradient><radialGradient id="paint33_radial_17538_101340" cx="0" cy="0" r="1" gradientUnits="userSpaceOnUse" gradientTransform="translate(72.0669 93.0381) rotate(47.043) scale(0.622554 0.668871)"><stop stop-color="currentColor"></stop><stop offset="1" stop-color="currentColor" stop-opacity="0"></stop></radialGradient><radialGradient id="paint34_radial_17538_101340" cx="0" cy="0" r="1" gradientUnits="userSpaceOnUse" gradientTransform="translate(72.0567 92.998) rotate(47.0423) scale(0.848492 0.91162)"><stop stop-color="currentColor"></stop><stop offset="1" stop-color="currentColor" stop-opacity="0"></stop></radialGradient><radialGradient id="paint35_radial_17538_101340" cx="0" cy="0" r="1" gradientUnits="userSpaceOnUse" gradientTransform="translate(86.4896 74.1773) rotate(44.9291) scale(1.45025 1.56211)"><stop stop-color="currentColor"></stop><stop offset="1" stop-color="currentColor" stop-opacity="0"></stop></radialGradient><radialGradient id="paint36_radial_17538_101340" cx="0" cy="0" r="1" gradientUnits="userSpaceOnUse" gradientTransform="translate(86.5129 74.2393) rotate(47.0424) scale(0.468595 0.503459)"><stop stop-color="currentColor"></stop><stop offset="1" stop-color="currentColor" stop-opacity="0"></stop></radialGradient><radialGradient id="paint37_radial_17538_101340" cx="0" cy="0" r="1" gradientUnits="userSpaceOnUse" gradientTransform="translate(86.5378 74.2034) rotate(47.0415) scale(0.639305 0.686871)"><stop stop-color="currentColor"></stop><stop offset="1" stop-color="currentColor" stop-opacity="0"></stop></radialGradient><radialGradient id="paint38_radial_17538_101340" cx="0" cy="0" r="1" gradientUnits="userSpaceOnUse" gradientTransform="translate(51.2708 110.342) rotate(44.9606) scale(1.45105 1.56297)"><stop stop-color="currentColor"></stop><stop offset="1" stop-color="currentColor" stop-opacity="0"></stop></radialGradient><radialGradient id="paint39_radial_17538_101340" cx="0" cy="0" r="1" gradientUnits="userSpaceOnUse" gradientTransform="translate(93.605 24.8466) rotate(44.9606) scale(3.68271 3.96678)"><stop stop-color="currentColor"></stop><stop offset="1" stop-color="currentColor" stop-opacity="0"></stop></radialGradient><radialGradient id="paint40_radial_17538_101340" cx="0" cy="0" r="1" gradientUnits="userSpaceOnUse" gradientTransform="translate(110.725 110.362) rotate(47.0434) scale(0.639286 0.686847)"><stop stop-color="currentColor"></stop><stop offset="1" stop-color="currentColor" stop-opacity="0"></stop></radialGradient><radialGradient id="paint41_radial_17538_101340" cx="0" cy="0" r="1" gradientUnits="userSpaceOnUse" gradientTransform="translate(93.9209 24.8213) rotate(47.15) scale(1.81375 1.94815)"><stop stop-color="currentColor"></stop><stop offset="1" stop-color="currentColor" stop-opacity="0"></stop></radialGradient><radialGradient id="paint42_radial_17538_101340" cx="0" cy="0" r="1" gradientUnits="userSpaceOnUse" gradientTransform="translate(36.2242 92.6269) rotate(39.5792) scale(1.92491 2.0722)"><stop stop-color="currentColor"></stop><stop offset="1" stop-color="currentColor" stop-opacity="0"></stop></radialGradient><radialGradient id="paint43_radial_17538_101340" cx="0" cy="0" r="1" gradientUnits="userSpaceOnUse" gradientTransform="translate(80.2388 53.1368) rotate(47.0416) scale(0.622574 0.668895)"><stop stop-color="currentColor"></stop><stop offset="1" stop-color="currentColor" stop-opacity="0"></stop></radialGradient><radialGradient id="paint44_radial_17538_101340" cx="0" cy="0" r="1" gradientUnits="userSpaceOnUse" gradientTransform="translate(57.9534 67.9182) rotate(47.0413) scale(0.846835 0.909842)"><stop stop-color="currentColor"></stop><stop offset="1" stop-color="currentColor" stop-opacity="0"></stop></radialGradient><radialGradient id="paint45_radial_17538_101340" cx="0" cy="0" r="1" gradientUnits="userSpaceOnUse" gradientTransform="translate(88.1573 100.504) rotate(47.0407) scale(1.1347 1.21912)"><stop stop-color="currentColor"></stop><stop offset="1" stop-color="currentColor" stop-opacity="0"></stop></radialGradient><radialGradient id="paint46_radial_17538_101340" cx="0" cy="0" r="1" gradientUnits="userSpaceOnUse" gradientTransform="translate(122.204 10.1374) rotate(47.0407) scale(1.1347 1.21912)"><stop stop-color="currentColor"></stop><stop offset="1" stop-color="currentColor" stop-opacity="0"></stop></radialGradient><linearGradient id="paint47_linear_17538_101340" x1="148.658" y1="47.9909" x2="142.506" y2="58.6466" gradientUnits="userSpaceOnUse"><stop offset="0.378069" stop-color="white" stop-opacity="0"></stop><stop offset="1" stop-color="white"></stop></linearGradient><clipPath id="clip0_17538_101340"><rect width="180" height="120" fill="white"></rect></clipPath></defs></svg>