<svg viewBox="0 0 153 120" style='color:#ffaf33' fill="none" xmlns="http://www.w3.org/2000/svg"><g opacity="0.5" filter="url(#filter0_f_16507_286818)"><circle cx="109" cy="104" r="44" fill="currentColor"></circle></g><path d="M83.6331 67.7106L75.9924 107.835L77.7521 110.885C78.9604 112.801 80.9416 114.554 83.3909 113.509L120.908 98.2337C123.081 97.3612 123.815 95.1618 122.489 92.836L120.084 88.9451L115.369 88.8646C114.856 88.8559 114.329 88.7397 113.973 88.3704C113.033 87.3949 112.901 85.833 113.775 84.7008L128.246 65.9548C129.597 64.2047 129.542 61.7487 128.114 60.061L125.34 56.2582C125.133 56.0135 122.424 53.8411 121.645 53.2789C121.524 53.1917 121.39 53.1299 121.249 53.0802L118.63 52.1538C118.396 52.0709 118.17 51.9661 117.942 51.8671C115.969 51.0096 113.641 51.6057 112.329 53.3506L98.1691 72.181C97.0865 73.6207 94.9486 73.6862 93.7799 72.3155L88.569 66.2036C86.9727 64.3312 83.9114 65.2658 83.6331 67.7106Z" fill="currentColor"></path><path d="M83.6331 67.7106L75.9924 107.835L77.7521 110.885C78.9604 112.801 80.9416 114.554 83.3909 113.509L120.908 98.2337C123.081 97.3612 123.815 95.1618 122.489 92.836L120.084 88.9451L115.369 88.8646C114.856 88.8559 114.329 88.7397 113.973 88.3704C113.033 87.3949 112.901 85.833 113.775 84.7008L128.246 65.9548C129.597 64.2047 129.542 61.7487 128.114 60.061L125.34 56.2582C125.133 56.0135 122.424 53.8411 121.645 53.2789C121.524 53.1917 121.39 53.1299 121.249 53.0802L118.63 52.1538C118.396 52.0709 118.17 51.9661 117.942 51.8671C115.969 51.0096 113.641 51.6057 112.329 53.3506L98.1691 72.181C97.0865 73.6207 94.9486 73.6862 93.7799 72.3155L88.569 66.2036C86.9727 64.3312 83.9114 65.2658 83.6331 67.7106Z" fill="url(#paint0_linear_16507_286818)" fill-opacity="0.4"></path><path d="M83.6331 67.7106L75.9924 107.835L77.7521 110.885C78.9604 112.801 80.9416 114.554 83.3909 113.509L120.908 98.2337C123.081 97.3612 123.815 95.1618 122.489 92.836L120.084 88.9451L115.369 88.8646C114.856 88.8559 114.329 88.7397 113.973 88.3704C113.033 87.3949 112.901 85.833 113.775 84.7008L128.246 65.9548C129.597 64.2047 129.542 61.7487 128.114 60.061L125.34 56.2582C125.133 56.0135 122.424 53.8411 121.645 53.2789C121.524 53.1917 121.39 53.1299 121.249 53.0802L118.63 52.1538C118.396 52.0709 118.17 51.9661 117.942 51.8671C115.969 51.0096 113.641 51.6057 112.329 53.3506L98.1691 72.181C97.0865 73.6207 94.9486 73.6862 93.7799 72.3155L88.569 66.2036C86.9727 64.3312 83.9114 65.2658 83.6331 67.7106Z" fill="url(#paint1_linear_16507_286818)" fill-opacity="0.4"></path><path d="M76.6294 105.927L81.5341 62.8368C81.7225 61.1812 83.7343 60.4685 84.9229 61.6363L90.9715 67.5788C92.7099 69.2868 95.5587 69.0564 97.0001 67.0913L109.388 50.2023C110.717 48.3917 113.275 48.0288 115.054 49.3986L123.665 56.028C125.433 57.389 125.746 59.9333 124.36 61.6819L111.059 78.4664C109.632 80.2672 110.012 82.8973 111.89 84.2207L118.586 88.9382C119.883 89.8517 119.651 91.8385 118.179 92.4293L79.3615 108.009C77.9562 108.573 76.4582 107.431 76.6294 105.927Z" fill="currentColor" stroke="url(#paint2_linear_16507_286818)" stroke-width="2"></path><path d="M176.39 116.965L181.18 74.8853C181.437 72.6284 179.189 70.9158 177.081 71.7618L139.169 86.9781C136.962 87.8641 136.614 90.8445 138.559 92.2146L144.998 96.751C146.406 97.7435 146.691 99.7161 145.621 101.067L132.663 117.418C130.931 119.604 131.322 122.784 133.532 124.485L141.832 130.876C144.056 132.588 147.254 132.134 148.914 129.871L160.977 113.426C162.058 111.952 164.195 111.779 165.499 113.06L171.307 118.766C173.09 120.518 176.107 119.449 176.39 116.965Z" fill="currentColor"></path><path d="M176.39 116.965L181.18 74.8853C181.437 72.6284 179.189 70.9158 177.081 71.7618L139.169 86.9781C136.962 87.8641 136.614 90.8445 138.559 92.2146L144.998 96.751C146.406 97.7435 146.691 99.7161 145.621 101.067L132.663 117.418C130.931 119.604 131.322 122.784 133.532 124.485L141.832 130.876C144.056 132.588 147.254 132.134 148.914 129.871L160.977 113.426C162.058 111.952 164.195 111.779 165.499 113.06L171.307 118.766C173.09 120.518 176.107 119.449 176.39 116.965Z" fill="url(#paint3_linear_16507_286818)" fill-opacity="0.4"></path><path d="M169.562 114.726L174.352 72.646C174.608 70.3891 172.361 68.6765 170.253 69.5226L132.341 84.7388C130.134 85.6249 129.786 88.6052 131.731 89.9754L138.17 94.5117C139.578 95.5043 139.863 97.4768 138.793 98.8274L125.835 115.179C124.103 117.365 124.494 120.545 126.704 122.246L135.004 128.636C137.228 130.349 140.426 129.895 142.086 127.632L154.149 111.186C155.23 109.712 157.367 109.54 158.67 110.821L164.479 116.527C166.262 118.279 169.279 117.21 169.562 114.726Z" fill="currentColor"></path><path d="M173.358 72.5329L168.568 114.613C168.38 116.269 166.368 116.981 165.179 115.814L159.371 110.107C157.633 108.399 154.784 108.63 153.343 110.595L141.28 127.04C139.952 128.851 137.394 129.214 135.614 127.844L127.314 121.454C125.546 120.093 125.233 117.549 126.619 115.8L139.577 99.4485C141.004 97.6477 140.624 95.0176 138.746 93.6943L132.307 89.1579C131.01 88.2445 131.242 86.2576 132.714 85.6668L170.626 70.4506C172.031 69.8866 173.529 71.0283 173.358 72.5329Z" stroke="url(#paint4_linear_16507_286818)" stroke-opacity="0.6" stroke-width="2"></path><defs><filter id="filter0_f_16507_286818" x="0" y="-5" width="218" height="218" filterUnits="userSpaceOnUse" color-interpolation-filters="sRGB"><feFlood flood-opacity="0" result="BackgroundImageFix"></feFlood><feBlend mode="normal" in="SourceGraphic" in2="BackgroundImageFix" result="shape"></feBlend><feGaussianBlur stdDeviation="32.5" result="effect1_foregroundBlur_16507_286818"></feGaussianBlur></filter><linearGradient id="paint0_linear_16507_286818" x1="102.296" y1="52.3967" x2="102.296" y2="113.822" gradientUnits="userSpaceOnUse"><stop offset="0.0412865" stop-color="#17273b" stop-opacity="0"></stop><stop offset="0.723382" stop-color="#17273b"></stop></linearGradient><linearGradient id="paint1_linear_16507_286818" x1="114.87" y1="89.5244" x2="113.158" y2="82.6505" gradientUnits="userSpaceOnUse"><stop offset="0.0412865" stop-color="#17273b" stop-opacity="0"></stop><stop offset="0.723382" stop-color="#17273b"></stop></linearGradient><linearGradient id="paint2_linear_16507_286818" x1="93.2971" y1="52.4583" x2="111.994" y2="108.757" gradientUnits="userSpaceOnUse"><stop stop-color="white"></stop><stop offset="1" stop-color="white" stop-opacity="0"></stop></linearGradient><linearGradient id="paint3_linear_16507_286818" x1="151.577" y1="133.642" x2="159.127" y2="67.3138" gradientUnits="userSpaceOnUse"><stop offset="0.0412865" stop-color="#17273b" stop-opacity="0"></stop><stop offset="0.723382" stop-color="#17273b"></stop></linearGradient><linearGradient id="paint4_linear_16507_286818" x1="137.112" y1="84.0086" x2="155.967" y2="107.441" gradientUnits="userSpaceOnUse"><stop stop-color="white"></stop><stop offset="1" stop-color="white" stop-opacity="0"></stop></linearGradient></defs></svg>