<svg viewBox="0 0 20 20" fill="none" xmlns="http://www.w3.org/2000/svg"><g clip-path="url(#a)"><path d="M10 20c5.523 0 10-4.477 10-10S15.523 0 10 0 0 4.477 0 10s4.477 10 10 10Z" fill="#EF0027"/><path d="m13.707 6.195-9.02-1.66L9.434 16.48l6.615-8.059-2.341-2.226Zm-.145.731 1.38 1.312-3.773.683 2.393-1.995ZM10.35 8.785l-3.978-3.3 6.502 1.197-2.524 2.103Zm-.283.583-.65 5.363L5.92 5.929l4.146 3.439Zm.6.285 4.179-.757-4.794 5.84.615-5.083Z" fill="#fff"/></g><defs><clipPath id="a"><path fill="#fff" d="M0 0h20v20H0z"/></clipPath></defs></svg>