<svg viewBox="0 0 153 120" fill="none" xmlns="http://www.w3.org/2000/svg"><g opacity="0.5" filter="url(#filter0_f_16507_286818)"><circle cx="109" cy="104" r="44" fill="currentColor"></circle></g><path d="M135.36 60.4686C134.776 72.2106 138.746 76.4654 149.72 80.0782C150.793 80.4315 151.387 81.6125 151.021 82.6811C133.401 134.006 117.201 146.784 83.9394 154.069C83.16 154.24 82.3365 153.918 81.8793 153.264C62.7108 125.842 60.3318 106.861 73.1501 68.0785C73.4216 67.2571 74.2036 66.6959 75.0685 66.6779C84.6657 66.4782 88.874 63.3652 93.732 54.5116C94.0785 53.88 94.7349 53.4701 95.4551 53.4527C111.138 53.0739 119.995 54.404 133.902 58.3866C134.813 58.6475 135.408 59.5222 135.36 60.4686Z" fill="currentColor"></path><path d="M135.36 60.4686C134.776 72.2106 138.746 76.4654 149.72 80.0782C150.793 80.4315 151.387 81.6125 151.021 82.6811C133.401 134.006 117.201 146.784 83.9394 154.069C83.16 154.24 82.3365 153.918 81.8793 153.264C62.7108 125.842 60.3318 106.861 73.1501 68.0785C73.4216 67.2571 74.2036 66.6959 75.0685 66.6779C84.6657 66.4782 88.874 63.3652 93.732 54.5116C94.0785 53.88 94.7349 53.4701 95.4551 53.4527C111.138 53.0739 119.995 54.404 133.902 58.3866C134.813 58.6475 135.408 59.5222 135.36 60.4686Z" fill="url(#paint0_linear_16507_286818)" fill-opacity="0.2"></path><path d="M132.751 61.1926C122.097 58.4261 114.019 58.1164 100.742 58.4605C98.3213 62.7925 95.8302 66.1286 92.4902 68.3599C89.1256 70.6076 85.2328 71.5172 80.4315 71.6845C74.2475 90.3723 71.0628 103.998 71.4878 116.091C71.9085 128.062 75.8831 138.804 84.6275 151.657C84.7586 151.725 84.9386 151.811 85.1774 151.918C85.4305 152.031 85.6928 152.143 85.984 152.267C86.0804 152.308 86.1798 152.35 86.2832 152.394C86.6738 152.561 87.1146 152.752 87.5228 152.951C87.7287 153.052 87.8994 153.11 88.0153 153.136C88.0265 153.138 88.0364 153.14 88.0449 153.142C104.356 149.56 116.049 144.72 125.859 134.805C135.684 124.876 143.893 109.587 152.563 84.5064C151.967 84.263 151.404 84.0267 150.894 83.8129C150.141 83.4971 149.504 83.2302 149.054 83.0616C144.271 81.2699 140.68 79.2111 138.679 75.5683C136.829 72.2016 136.657 68.0127 136.962 62.906C136.459 62.6947 135.955 62.4698 135.497 62.2652C135.245 62.1525 135.006 62.0459 134.789 61.9513C133.971 61.5945 133.323 61.3411 132.751 61.1926Z" stroke="currentColor" stroke-width="6"></path><path d="M132.751 61.1926C122.097 58.4261 114.019 58.1164 100.742 58.4605C98.3213 62.7925 95.8302 66.1286 92.4902 68.3599C89.1256 70.6076 85.2328 71.5172 80.4315 71.6845C74.2475 90.3723 71.0628 103.998 71.4878 116.091C71.9085 128.062 75.8831 138.804 84.6275 151.657C84.7586 151.725 84.9386 151.811 85.1774 151.918C85.4305 152.031 85.6928 152.143 85.984 152.267C86.0804 152.308 86.1798 152.35 86.2832 152.394C86.6738 152.561 87.1146 152.752 87.5228 152.951C87.7287 153.052 87.8994 153.11 88.0153 153.136C88.0265 153.138 88.0364 153.14 88.0449 153.142C104.356 149.56 116.049 144.72 125.859 134.805C135.684 124.876 143.893 109.587 152.563 84.5064C151.967 84.263 151.404 84.0267 150.894 83.8129C150.141 83.4971 149.504 83.2302 149.054 83.0616C144.271 81.2699 140.68 79.2111 138.679 75.5683C136.829 72.2016 136.657 68.0127 136.962 62.906C136.459 62.6947 135.955 62.4698 135.497 62.2652C135.245 62.1525 135.006 62.0459 134.789 61.9513C133.971 61.5945 133.323 61.3411 132.751 61.1926Z" stroke="#17273b" stroke-opacity="0.5" stroke-width="6"></path><path d="M132.751 61.1926C122.097 58.4261 114.019 58.1164 100.742 58.4605C98.3213 62.7925 95.8302 66.1286 92.4902 68.3599C89.1256 70.6076 85.2328 71.5172 80.4315 71.6845C74.2475 90.3723 71.0628 103.998 71.4878 116.091C71.9085 128.062 75.8831 138.804 84.6275 151.657C84.7586 151.725 84.9386 151.811 85.1774 151.918C85.4305 152.031 85.6928 152.143 85.984 152.267C86.0804 152.308 86.1798 152.35 86.2832 152.394C86.6738 152.561 87.1146 152.752 87.5228 152.951C87.7287 153.052 87.8994 153.11 88.0153 153.136C88.0265 153.138 88.0364 153.14 88.0449 153.142C104.356 149.56 116.049 144.72 125.859 134.805C135.684 124.876 143.893 109.587 152.563 84.5064C151.967 84.263 151.404 84.0267 150.894 83.8129C150.141 83.4971 149.504 83.2302 149.054 83.0616C144.271 81.2699 140.68 79.2111 138.679 75.5683C136.829 72.2016 136.657 68.0127 136.962 62.906C136.459 62.6947 135.955 62.4698 135.497 62.2652C135.245 62.1525 135.006 62.0459 134.789 61.9513C133.971 61.5945 133.323 61.3411 132.751 61.1926Z" stroke="url(#paint1_linear_16507_286818)" stroke-opacity="0.4" stroke-width="6"></path><path fill-rule="evenodd" clip-rule="evenodd" d="M144.897 84.0256C136.564 107.621 128.704 121.881 119.549 131.133C110.6 140.177 99.9761 144.872 84.9856 148.357C76.5029 135.881 72.0311 125.598 70.8328 114.37C69.6113 102.925 71.7263 89.9196 77.5198 71.9108C81.8727 71.5904 85.7057 70.5753 89.1308 68.2917C92.591 65.9846 95.1537 62.6949 97.4671 58.7552C110.495 58.5525 118.487 59.6776 129.965 62.829C129.993 68.1336 131.033 72.7621 133.984 76.5935C136.672 80.083 140.5 82.3072 144.897 84.0256ZM98.4813 56.9621C98.4818 56.961 98.4824 56.96 98.483 56.9589L98.483 56.9589C98.4824 56.96 98.4818 56.961 98.4813 56.9621ZM149.936 80.1483C138.742 76.5017 134.732 72.2437 135.371 60.2881C135.416 59.4456 134.887 58.6689 134.076 58.4361C120.032 54.4041 111.156 53.0649 95.3289 53.4556C94.6878 53.4715 94.1026 53.8351 93.7951 54.3979C88.8838 63.3877 84.6612 66.5116 74.9096 66.6808C74.1395 66.6942 73.4433 67.1953 73.2012 67.9265C60.308 106.868 62.6935 125.861 81.9632 153.382C82.3706 153.964 83.105 154.251 83.799 154.1C117.203 146.809 133.422 134.043 151.095 82.4655C151.422 81.5139 150.892 80.4599 149.936 80.1483Z" fill="currentColor"></path><path d="M149.626 81.0991C143.991 79.2633 139.94 77.2106 137.424 73.9442C134.888 70.652 134.048 66.3099 134.372 60.2347C134.393 59.8359 134.143 59.4956 133.8 59.3973C119.848 55.3916 111.073 54.0673 95.3536 54.4553C95.0762 54.4622 94.8124 54.6215 94.6727 54.8773L93.7951 54.3979L94.6727 54.8773C92.1922 59.4177 89.8139 62.6178 86.7222 64.6791C83.6124 66.7525 79.903 67.5943 74.9269 67.6806C74.5719 67.6868 74.2561 67.9221 74.1506 68.2408C67.7198 87.6635 65.1446 101.986 66.5155 114.831C67.884 127.653 73.1984 139.12 82.7824 152.809C82.9587 153.061 83.2861 153.188 83.5857 153.123C100.199 149.497 112.389 144.541 122.635 134.187C132.913 123.801 141.327 107.89 150.149 82.1413C150.294 81.7209 150.055 81.2388 149.626 81.0991Z" stroke="url(#paint2_linear_16507_286818)" stroke-width="2"></path><path d="M118.454 110.639C118.451 109.765 118.367 108.981 118.202 108.287C118.038 107.593 117.722 106.871 117.256 106.119C116.791 105.367 116.356 104.744 115.954 104.25C115.553 103.755 114.975 103.164 114.222 102.477C113.47 101.791 112.867 101.268 112.417 100.908C111.965 100.548 111.308 100.043 110.444 99.3936C109.68 98.8133 109.113 98.3747 108.743 98.0779C108.372 97.7811 107.891 97.3726 107.298 96.8518C106.705 96.3315 106.009 95.5523 106.009 95.5523C106.009 95.5523 105.469 94.7991 105.189 94.33C104.908 93.8609 104.749 93.4023 104.711 92.9542C104.673 92.5062 104.724 92.044 104.863 91.5681C105.226 90.3237 106.071 89.4677 107.399 89.0014C108.727 88.535 110.26 88.5554 111.999 89.0629C112.768 89.2871 113.521 89.6208 114.255 90.0637C114.989 90.5066 115.051 91.7082 115.541 92.1394C116.447 92.9363 118.427 94.4404 118.427 94.4404C118.427 94.4404 118.84 94.8288 119.112 94.8489C119.392 94.9107 119.821 94.5926 120.048 94.3611L123.442 91.0016C123.768 90.6998 123.824 90.3387 123.609 89.9182C123.514 89.7469 123.414 89.5786 123.308 89.4134C123.187 89.2189 122.907 88.8494 122.47 88.3044C122.029 87.7557 121.547 87.2414 121.027 86.7662C120.502 86.2855 119.795 85.7463 118.906 85.1495C118.019 84.5524 117.068 84.0469 116.057 83.6326L117.436 78.9481C117.576 78.444 117.436 77.952 116.951 77.6179L113.92 75.5893C113.682 75.5199 113.451 75.5466 113.226 75.6699C113.001 75.7931 112.854 75.9735 112.785 76.2115L110.561 82.1478C107.527 81.8581 104.835 82.4035 102.486 83.7837C100.137 85.164 98.5937 87.1166 97.8565 89.6428C97.6375 90.3932 97.5073 91.1298 97.4653 91.8522C97.423 92.575 97.4378 93.2398 97.5091 93.8464C97.5801 94.4534 97.7503 95.0789 98.019 95.7236C98.2877 96.368 98.555 96.9327 98.8207 97.4173C99.0866 97.9017 99.4628 98.4337 99.9491 99.0125C100.436 99.5918 100.858 100.068 101.216 100.44C101.575 100.812 102.064 101.264 102.684 101.791C103.304 102.32 103.797 102.727 104.16 103.012C104.524 103.297 105.02 103.69 105.649 104.191C106.525 104.864 107.171 105.375 107.585 105.724C108 106.074 108.518 106.543 109.141 107.132C109.764 107.72 110.199 108.22 110.447 108.63C110.694 109.04 110.889 109.514 111.03 110.052C111.171 110.589 111.167 111.114 111.018 111.627C110.596 113.073 109.707 114.025 108.352 114.483C106.996 114.942 105.577 114.955 104.095 114.522C103.412 114.322 102.752 114.05 102.127 113.71C99.8866 112.539 97.9965 110.746 96.4569 108.331L96.4181 108.26C96.1304 107.586 92.8674 105.607 92.7648 105.689L91.1938 110.848C90.8123 111.134 90.7214 111.514 90.9203 111.989C90.9799 112.126 91.0918 112.338 91.2565 112.624C91.4215 112.911 91.7472 113.378 92.2327 114.027C92.7187 114.675 93.2679 115.312 93.8799 115.938C94.492 116.563 95.302 117.241 96.3103 117.973C97.3189 118.703 98.4027 119.328 99.5628 119.845L98.1607 124.649C98.0912 124.888 98.1182 125.119 98.2412 125.344C98.3643 125.569 98.5449 125.715 98.7828 125.785L102.49 126.866C102.746 126.941 102.981 126.92 103.193 126.804C103.406 126.687 103.549 126.501 103.624 126.244L105.026 121.439C108.076 121.813 110.807 121.254 113.218 119.763C115.629 118.271 117.244 116.126 118.061 113.325C118.327 112.41 118.459 111.515 118.454 110.639Z" fill="currentColor"></path><path d="M118.454 110.639C118.451 109.765 118.367 108.981 118.202 108.287C118.038 107.593 117.722 106.871 117.256 106.119C116.791 105.367 116.356 104.744 115.954 104.25C115.553 103.755 114.975 103.164 114.222 102.477C113.47 101.791 112.867 101.268 112.417 100.908C111.965 100.548 111.308 100.043 110.444 99.3936C109.68 98.8133 109.113 98.3747 108.743 98.0779C108.372 97.7811 107.891 97.3726 107.298 96.8518C106.705 96.3315 106.009 95.5523 106.009 95.5523C106.009 95.5523 105.469 94.7991 105.189 94.33C104.908 93.8609 104.749 93.4023 104.711 92.9542C104.673 92.5062 104.724 92.044 104.863 91.5681C105.226 90.3237 106.071 89.4677 107.399 89.0014C108.727 88.535 110.26 88.5554 111.999 89.0629C112.768 89.2871 113.521 89.6208 114.255 90.0637C114.989 90.5066 115.051 91.7082 115.541 92.1394C116.447 92.9363 118.427 94.4404 118.427 94.4404C118.427 94.4404 118.84 94.8288 119.112 94.8489C119.392 94.9107 119.821 94.5926 120.048 94.3611L123.442 91.0016C123.768 90.6998 123.824 90.3387 123.609 89.9182C123.514 89.7469 123.414 89.5786 123.308 89.4134C123.187 89.2189 122.907 88.8494 122.47 88.3044C122.029 87.7557 121.547 87.2414 121.027 86.7662C120.502 86.2855 119.795 85.7463 118.906 85.1495C118.019 84.5524 117.068 84.0469 116.057 83.6326L117.436 78.9481C117.576 78.444 117.436 77.952 116.951 77.6179L113.92 75.5893C113.682 75.5199 113.451 75.5466 113.226 75.6699C113.001 75.7931 112.854 75.9735 112.785 76.2115L110.561 82.1478C107.527 81.8581 104.835 82.4035 102.486 83.7837C100.137 85.164 98.5937 87.1166 97.8565 89.6428C97.6375 90.3932 97.5073 91.1298 97.4653 91.8522C97.423 92.575 97.4378 93.2398 97.5091 93.8464C97.5801 94.4534 97.7503 95.0789 98.019 95.7236C98.2877 96.368 98.555 96.9327 98.8207 97.4173C99.0866 97.9017 99.4628 98.4337 99.9491 99.0125C100.436 99.5918 100.858 100.068 101.216 100.44C101.575 100.812 102.064 101.264 102.684 101.791C103.304 102.32 103.797 102.727 104.16 103.012C104.524 103.297 105.02 103.69 105.649 104.191C106.525 104.864 107.171 105.375 107.585 105.724C108 106.074 108.518 106.543 109.141 107.132C109.764 107.72 110.199 108.22 110.447 108.63C110.694 109.04 110.889 109.514 111.03 110.052C111.171 110.589 111.167 111.114 111.018 111.627C110.596 113.073 109.707 114.025 108.352 114.483C106.996 114.942 105.577 114.955 104.095 114.522C103.412 114.322 102.752 114.05 102.127 113.71C99.8866 112.539 97.9965 110.746 96.4569 108.331L96.4181 108.26C96.1304 107.586 92.8674 105.607 92.7648 105.689L91.1938 110.848C90.8123 111.134 90.7214 111.514 90.9203 111.989C90.9799 112.126 91.0918 112.338 91.2565 112.624C91.4215 112.911 91.7472 113.378 92.2327 114.027C92.7187 114.675 93.2679 115.312 93.8799 115.938C94.492 116.563 95.302 117.241 96.3103 117.973C97.3189 118.703 98.4027 119.328 99.5628 119.845L98.1607 124.649C98.0912 124.888 98.1182 125.119 98.2412 125.344C98.3643 125.569 98.5449 125.715 98.7828 125.785L102.49 126.866C102.746 126.941 102.981 126.92 103.193 126.804C103.406 126.687 103.549 126.501 103.624 126.244L105.026 121.439C108.076 121.813 110.807 121.254 113.218 119.763C115.629 118.271 117.244 116.126 118.061 113.325C118.327 112.41 118.459 111.515 118.454 110.639Z" fill="#17273b" fill-opacity="0.4"></path><path d="M114.611 107.665C114.609 106.791 114.525 106.007 114.36 105.313C114.195 104.619 113.88 103.897 113.413 103.145C112.948 102.393 111.934 102.078 111.532 101.583C111.131 101.089 110.553 100.498 109.8 99.8111C109.047 99.1245 108.445 98.6013 107.994 98.2412C107.543 97.8813 106.885 97.3765 106.022 96.7273C105.258 96.147 104.691 95.7084 104.32 95.4116C103.95 95.1148 103.469 94.7063 102.876 94.1855C102.283 93.6652 102.166 92.5783 102.166 92.5783C102.166 92.5783 101.626 91.8251 101.346 91.356C101.066 90.887 100.906 90.4283 100.868 89.9802C100.83 89.5322 100.881 89.0701 101.02 88.5941C101.383 87.3497 102.228 86.4937 103.556 86.0274C104.884 85.561 106.418 85.5814 108.157 86.0889C108.925 86.3131 109.678 86.6468 110.412 87.0897C111.146 87.5326 111.759 87.9689 112.249 88.4002C112.739 88.8315 113.189 89.2806 113.599 89.7477C114.009 90.215 115.035 89.3467 115.198 89.5729C115.36 89.7991 115.406 90.5888 115.445 90.6596C115.629 90.9122 115.172 91.6219 115.445 91.6419C115.724 91.7038 115.978 91.6186 116.205 91.3871L119.599 88.0276C119.925 87.7258 119.981 87.3647 119.766 86.9442C119.671 86.7729 118.31 87.1094 118.205 86.9442C118.083 86.7497 116.883 86.8486 116.446 86.3037C116.005 85.7549 114.507 85.0631 113.988 84.5879C113.462 84.1071 113 83.3409 112.112 82.7441C111.224 82.147 113.226 81.0729 112.214 80.6586L113.624 75.8261C113.699 75.57 113.678 75.3354 113.562 75.1227C113.445 74.9102 113.259 74.7661 113.002 74.6912L109.295 73.6095C109.057 73.5401 108.826 73.5669 108.601 73.6901C108.377 73.8133 108.23 73.9937 108.16 74.2317L106.718 79.1738C103.684 78.8841 100.993 79.4295 98.6432 80.8097C96.2941 82.19 94.7508 84.1426 94.0136 86.6688C93.7946 87.4192 93.6644 88.1559 93.6225 88.8782C93.5802 89.601 93.5949 90.2658 93.6662 90.8725C93.7372 91.4795 93.9074 92.105 94.1761 92.7496C94.4448 93.394 94.7121 93.9588 94.9778 94.4433C95.2438 94.9278 95.6199 95.4597 96.1063 96.0385C96.5929 96.6178 97.0151 97.0938 97.3733 97.4663C97.7318 97.8381 98.2206 98.2896 98.841 98.8174C99.4613 99.3463 99.9537 99.7528 100.317 100.038C100.681 100.323 101.177 100.716 101.806 101.217C102.682 101.89 103.328 102.401 103.742 102.75C104.157 103.1 104.675 103.569 105.298 104.158C105.921 104.746 106.356 105.246 106.604 105.656C106.852 106.066 107.046 106.54 107.187 107.078C107.328 107.615 107.324 108.14 107.175 108.653C106.753 110.099 105.864 111.051 104.509 111.509C103.153 111.968 101.734 111.981 100.252 111.548C99.5688 111.348 98.9092 111.076 98.2842 110.736C96.0437 109.565 94.4787 108.052 92.9392 105.636L92.9003 105.565C92.794 105.316 92.5984 105.17 92.3134 105.127C92.0098 105.078 91.7671 105.126 91.5856 105.272L87.676 108.153C87.2945 108.439 87.2036 108.82 87.4025 109.295C87.4621 109.431 87.574 109.643 87.7387 109.929C87.9038 110.216 88.2294 110.683 88.7149 111.332C89.2009 111.981 89.7501 112.617 90.3621 113.243C90.9742 113.869 91.7842 114.547 92.7925 115.278C93.8011 116.009 95.6691 116.687 96.8292 117.204L95.4271 122.009C95.3576 122.247 95.3846 122.479 95.5076 122.703C95.6307 122.928 95.8113 123.075 96.0492 123.144L98.6467 123.892C98.9034 123.967 99.138 123.946 99.3506 123.83C99.5631 123.713 99.7065 123.527 99.7814 123.27L101.184 118.465C104.233 118.839 106.964 118.28 109.375 116.789C111.786 115.297 113.401 113.152 114.218 110.351C114.484 109.436 114.616 108.541 114.611 107.665Z" fill="white"></path><path d="M115.283 108.468C115.28 107.594 115.196 106.809 115.031 106.116C114.866 105.422 114.551 104.7 114.085 103.947C113.62 103.196 113.185 102.573 112.783 102.078C112.382 101.584 111.804 100.993 111.051 100.306C110.298 99.6195 109.696 99.0963 109.245 98.7363C108.794 98.3763 108.136 97.8716 107.273 97.2223C106.509 96.642 105.942 96.2034 105.571 95.9066C105.201 95.6098 104.72 95.2013 104.127 94.6805C103.534 94.1602 102.838 93.381 102.838 93.381C102.838 93.381 102.298 92.6278 102.017 92.1587C101.737 91.6897 101.578 91.231 101.54 90.7829C101.502 90.3349 101.552 89.8728 101.691 89.3968C102.054 88.1524 102.9 87.2964 104.228 86.8301C105.556 86.3637 107.089 86.3841 108.828 86.8916C109.597 87.1158 110.349 87.4495 111.083 87.8924C111.818 88.3353 112.43 88.7716 112.92 89.2029C113.411 89.6342 113.86 90.0833 114.271 90.5504C114.68 91.0177 114.966 91.3642 115.129 91.5904C115.292 91.8166 115.393 91.9653 115.431 92.0362C115.616 92.2887 115.844 92.4246 116.116 92.4446C116.396 92.5065 116.649 92.4213 116.876 92.1898L120.27 88.8303C120.597 88.5285 120.653 88.1674 120.438 87.7469C120.342 87.5756 120.242 87.4073 120.137 87.2421C120.016 87.0476 119.736 86.6781 119.299 86.1331C118.858 85.5844 118.375 85.0701 117.856 84.595C117.331 84.1142 116.624 83.575 115.735 82.9782C114.847 82.3811 113.897 81.8756 112.886 81.4613L114.296 76.6288C114.37 76.3727 114.35 76.1381 114.233 75.9254C114.117 75.7129 113.93 75.5688 113.674 75.4939L109.967 74.4122C109.729 74.3428 109.498 74.3696 109.273 74.4928C109.048 74.616 108.901 74.7964 108.832 75.0345L107.39 79.9766C104.356 79.6868 101.664 80.2322 99.3148 81.6124C96.9657 82.9927 95.4223 84.9453 94.6852 87.4715C94.4662 88.2219 94.336 88.9586 94.294 89.6809C94.2517 90.4037 94.2665 91.0685 94.3378 91.6752C94.4088 92.2822 94.579 92.9077 94.8477 93.5523C95.1164 94.1967 95.3837 94.7615 95.6494 95.246C95.9153 95.7305 96.2915 96.2625 96.7778 96.8412C97.2645 97.4205 97.6867 97.8965 98.0449 98.269C98.4034 98.6408 98.8922 99.0923 99.5126 99.6201C100.133 100.149 100.625 100.556 100.989 100.841C101.353 101.126 101.849 101.519 102.478 102.02C103.354 102.692 103.999 103.204 104.414 103.553C104.828 103.903 105.347 104.372 105.97 104.961C106.592 105.549 107.027 106.049 107.275 106.459C107.523 106.869 107.718 107.343 107.859 107.88C108 108.418 107.996 108.943 107.846 109.456C107.424 110.902 106.536 111.854 105.18 112.312C103.825 112.771 102.406 112.784 100.923 112.351C100.24 112.151 99.5808 111.879 98.9557 111.539C96.7152 110.368 94.8252 108.575 93.2856 106.16L93.2467 106.089C93.1405 105.84 92.9448 105.693 92.6598 105.65C92.3562 105.601 92.1136 105.649 91.932 105.796L88.0224 108.677C87.641 108.962 87.5501 109.343 87.749 109.818C87.8086 109.955 87.9205 110.167 88.0852 110.453C88.2502 110.74 88.5759 111.206 89.0614 111.856C89.5473 112.504 90.0966 113.141 90.7086 113.767C91.3207 114.392 92.1307 115.07 93.139 115.801C94.1476 116.532 95.2314 117.156 96.3915 117.673L94.9894 122.478C94.9199 122.716 94.9469 122.948 95.0699 123.172C95.193 123.397 95.3736 123.544 95.6115 123.613L99.3183 124.695C99.575 124.77 99.8096 124.749 100.022 124.633C100.235 124.516 100.378 124.329 100.453 124.073L101.855 119.268C104.905 119.641 107.635 119.083 110.046 117.591C112.458 116.1 114.073 113.954 114.89 111.154C115.156 110.239 115.288 109.344 115.283 108.468Z" fill="currentColor"></path><defs><filter id="filter0_f_16507_286818" x="0" y="-5" width="218" height="218" filterUnits="userSpaceOnUse" color-interpolation-filters="sRGB"><feFlood flood-opacity="0" result="BackgroundImageFix"></feFlood><feBlend mode="normal" in="SourceGraphic" in2="BackgroundImageFix" result="shape"></feBlend><feGaussianBlur stdDeviation="32.5" result="effect1_foregroundBlur_16507_286818"></feGaussianBlur></filter><linearGradient id="paint0_linear_16507_286818" x1="113.346" y1="54.0239" x2="100.004" y2="156.606" gradientUnits="userSpaceOnUse"><stop offset="0.33195" stop-color="#17273b"></stop><stop offset="1" stop-color="#17273b" stop-opacity="0"></stop></linearGradient><linearGradient id="paint1_linear_16507_286818" x1="110.107" y1="54.7803" x2="103.374" y2="158.994" gradientUnits="userSpaceOnUse"><stop offset="0.0412865" stop-color="#17273b" stop-opacity="0"></stop><stop offset="0.723382" stop-color="#17273b"></stop></linearGradient><linearGradient id="paint2_linear_16507_286818" x1="97.4574" y1="52.0397" x2="108.995" y2="98.3173" gradientUnits="userSpaceOnUse"><stop stop-color="white"></stop><stop offset="1" stop-color="white" stop-opacity="0"></stop></linearGradient></defs></svg>