<svg viewBox="0 0 22 22" fill="none" xmlns="http://www.w3.org/2000/svg">
<g clip-path="url(#clip0_17304_57557)">
<path d="M11 22C17.0751 22 22 17.0751 22 11C22 4.92487 17.0751 0 11 0C4.92487 0 0 4.92487 0 11C0 17.0751 4.92487 22 11 22Z" fill="#1B5AFE"/>
<path fill-rule="evenodd" clip-rule="evenodd" d="M5.41284 5.68481V9.43273C7.4826 9.43273 9.16076 7.75457 9.16076 5.68569L5.41284 5.68481Z" fill="white"/>
<path fill-rule="evenodd" clip-rule="evenodd" d="M9.16064 16.9418V9.39665C9.16064 9.36497 9.16064 9.33329 9.16152 9.30161C9.1624 9.26993 9.16328 9.23825 9.16504 9.20657C9.1668 9.17489 9.16856 9.14321 9.1712 9.11241C9.17384 9.08073 9.17648 9.04993 9.18 9.01913C9.18352 8.98833 9.18704 8.95665 9.19056 8.92585C9.19408 8.89505 9.19848 8.86425 9.20376 8.83345C9.20816 8.80265 9.21344 8.77185 9.21872 8.74193C9.224 8.71113 9.23016 8.68121 9.23632 8.65129C9.24248 8.62137 9.24864 8.59145 9.25568 8.56153C9.26272 8.53161 9.26976 8.50169 9.27768 8.47265C9.2856 8.44361 9.29352 8.41369 9.30144 8.38465C9.30936 8.35561 9.31816 8.32657 9.32784 8.29753C9.33664 8.26849 9.34632 8.23945 9.356 8.21129C9.36568 8.18225 9.37536 8.15409 9.38592 8.12593C9.39648 8.09777 9.40704 8.06961 9.41848 8.04145C9.42992 8.01329 9.44136 7.98601 9.4528 7.95785C9.46424 7.92969 9.47657 7.90241 9.48888 7.87513C9.5012 7.84785 9.5144 7.82057 9.52672 7.79329C9.53992 7.76601 9.55312 7.73961 9.5672 7.71233C9.58128 7.68593 9.59536 7.65953 9.60944 7.63313C9.62352 7.60673 9.63848 7.58033 9.65344 7.55481C9.6684 7.52929 9.68336 7.50289 9.6992 7.47737C9.71504 7.45185 9.73088 7.42633 9.74672 7.40169C9.76256 7.37705 9.77928 7.35153 9.796 7.32689C9.81272 7.30225 9.82944 7.27761 9.84704 7.25385C9.86464 7.22921 9.88224 7.20545 9.89984 7.18169C9.91744 7.15793 9.93592 7.13417 9.9544 7.11129C9.97288 7.08753 9.99136 7.06465 10.0107 7.04177C10.0301 7.01889 10.0486 6.99601 10.0688 6.97401C10.0882 6.95201 10.1084 6.92913 10.1278 6.90713C10.148 6.88513 10.1682 6.86313 10.1885 6.84201C10.2087 6.82089 10.2298 6.79889 10.251 6.77865C10.2721 6.75753 10.2932 6.73641 10.3143 6.71617C10.3354 6.69593 10.3574 6.67569 10.3794 6.65545C10.4014 6.63521 10.4234 6.61585 10.4463 6.59649C10.4692 6.57713 10.4912 6.55777 10.5141 6.53929C10.537 6.51993 10.5598 6.50145 10.5836 6.48297C10.6074 6.46449 10.6302 6.44601 10.6549 6.42841C10.6786 6.41081 10.7024 6.39321 10.727 6.37561C10.7517 6.35801 10.7754 6.34129 10.8001 6.32457C10.8247 6.30785 10.8494 6.29113 10.8749 6.27529C10.8995 6.25945 10.925 6.24361 10.9506 6.22777C10.9761 6.21193 11.0016 6.19697 11.028 6.18201C11.0535 6.16705 11.0799 6.15209 11.1063 6.13801C11.1327 6.12393 11.1591 6.10985 11.1855 6.09577C11.2119 6.08169 11.2392 6.06849 11.2665 6.05529C11.2938 6.04209 11.321 6.02977 11.3483 6.01745C11.3756 6.00513 11.4029 5.99281 11.431 5.98137C11.4592 5.96993 11.4865 5.95849 11.5146 5.94705C11.5428 5.93561 11.571 5.92505 11.5991 5.91449C11.6273 5.90393 11.6563 5.89425 11.6845 5.88457C11.7126 5.87489 11.7417 5.86521 11.7707 5.85641C11.7998 5.84761 11.8288 5.83881 11.8578 5.83001C11.8869 5.82121 11.9168 5.81329 11.9458 5.80625C11.9758 5.79833 12.0048 5.79129 12.0347 5.78425C12.0646 5.77721 12.0946 5.77105 12.1245 5.76489C12.1544 5.75873 12.1852 5.75257 12.2151 5.74729C12.245 5.74201 12.2758 5.73673 12.3066 5.73233C12.3374 5.72793 12.3682 5.72353 12.399 5.71913C12.4298 5.71473 12.4606 5.71121 12.4923 5.70857C12.5231 5.70505 12.5548 5.70241 12.5856 5.69977C12.6173 5.69713 12.6481 5.69537 12.6798 5.69361C12.7114 5.69185 12.7431 5.69097 12.7748 5.69009C12.8065 5.68921 12.8382 5.68921 12.8698 5.68921H16.5843V9.40105H12.8698V16.9462L9.16064 16.9418Z" fill="white"/>
</g>
<defs>
<clipPath id="clip0_17304_57557">
<rect width="22" height="22" fill="white"/>
</clipPath>
</defs>
</svg>
