<svg width="512" height="512" viewBox="0 0 512 512" fill="none" xmlns="http://www.w3.org/2000/svg">
<rect width="512" height="512" fill="white"/>
<path d="M256 512C397.385 512 512 397.385 512 256C512 114.615 397.385 0 256 0C114.615 0 0 114.615 0 256C0 397.385 114.615 512 256 512Z" fill="#50AF95"/>
<path fill-rule="evenodd" clip-rule="evenodd" d="M285.087 266.226C283.49 266.346 275.241 266.838 256.839 266.838C242.203 266.838 231.812 266.399 228.166 266.226C171.604 263.736 129.385 253.884 129.385 242.087C129.385 230.291 171.604 220.452 228.166 217.922V256.413C231.865 256.68 242.456 257.306 257.092 257.306C274.655 257.306 283.45 256.573 285.034 256.427V217.949C341.476 220.465 383.601 230.318 383.601 242.087C383.601 253.857 341.489 263.71 285.034 266.213L285.087 266.226ZM285.087 213.968V179.524H363.856V127H149.397V179.524H228.153V213.955C164.139 216.897 116 229.585 116 244.79C116 259.995 164.139 272.67 228.153 275.626V386H285.074V275.586C348.94 272.643 397 259.968 397 244.777C397 229.585 348.98 216.91 285.074 213.955L285.087 213.968Z" fill="white"/>
</svg>
