<svg viewBox="0 0 172 120" style='color:#ffaf33' fill="none" xmlns="http://www.w3.org/2000/svg"><g opacity="0.5" filter="url(#filter0_f_16507_286818)"><circle cx="128" cy="103.574" r="44" fill="currentColor"></circle></g><path d="M165.16 94.3498C164.833 94.2464 164.402 94.1763 164.011 94.1627C155.629 92.4977 150.068 84.3812 151.473 75.7464C152.911 66.9164 161.071 60.8835 169.788 62.3026C178.456 63.7138 184.329 72.0313 182.892 80.8612C181.438 89.4882 173.637 95.4294 165.16 94.3498Z" fill="currentColor"></path><path d="M165.16 94.3498C164.833 94.2464 164.402 94.1763 164.011 94.1627C155.629 92.4977 150.068 84.3812 151.473 75.7464C152.911 66.9164 161.071 60.8835 169.788 62.3026C178.456 63.7138 184.329 72.0313 182.892 80.8612C181.438 89.4882 173.637 95.4294 165.16 94.3498Z" fill="url(#paint0_linear_16507_286818)" fill-opacity="0.4"></path><path d="M161.266 92.3855C160.887 92.2758 160.442 92.2057 160.03 92.1846C152.233 90.5946 147.041 83.0169 148.359 74.9246C149.711 66.6206 157.373 60.9799 165.525 62.3071C173.631 63.6267 179.154 71.4143 177.804 79.7154C176.439 87.8058 169.157 93.3464 161.266 92.3855Z" fill="currentColor" stroke="url(#paint1_linear_16507_286818)" stroke-width="2" stroke-linecap="round" stroke-linejoin="round"></path><path d="M157.439 140.136C152.289 139.319 128.499 129.612 132.652 123.639C134.509 118.948 139.857 94.2939 165.409 100.749C190.961 107.203 189.624 125.715 189.585 132.986C189.546 140.307 168.307 141.859 157.439 140.136Z" fill="currentColor"></path><path d="M157.439 140.136C152.289 139.319 128.499 129.612 132.652 123.639C134.509 118.948 139.857 94.2939 165.409 100.749C190.961 107.203 189.624 125.715 189.585 132.986C189.546 140.307 168.307 141.859 157.439 140.136Z" fill="url(#paint2_linear_16507_286818)" fill-opacity="0.4"></path><path d="M128.478 121.314C128.522 121.251 128.559 121.183 128.587 121.111C129.457 118.914 132.999 112.878 138.553 107.807C144.098 102.744 151.482 98.7862 160.088 100.333C169.754 102.07 175.617 107.714 179.083 113.835C182.569 119.991 183.61 126.6 183.591 130.085C183.584 131.353 182.67 132.564 180.612 133.655C178.585 134.729 175.709 135.533 172.418 136.07C165.846 137.141 157.927 137.097 152.602 136.252C151.427 136.066 149.06 135.341 146.176 134.225C143.318 133.119 140.03 131.66 137.038 130.045C134.027 128.421 131.388 126.679 129.769 125.026C128.957 124.197 128.469 123.458 128.273 122.834C128.093 122.261 128.153 121.782 128.478 121.314Z" fill="currentColor"></path><path d="M128.478 121.314C128.522 121.251 128.559 121.183 128.587 121.111C129.457 118.914 132.999 112.878 138.553 107.807C144.098 102.744 151.482 98.7862 160.088 100.333C169.754 102.07 175.617 107.714 179.083 113.835C182.569 119.991 183.61 126.6 183.591 130.085C183.584 131.353 182.67 132.564 180.612 133.655C178.585 134.729 175.709 135.533 172.418 136.07C165.846 137.141 157.927 137.097 152.602 136.252C151.427 136.066 149.06 135.341 146.176 134.225C143.318 133.119 140.03 131.66 137.038 130.045C134.027 128.421 131.388 126.679 129.769 125.026C128.957 124.197 128.469 123.458 128.273 122.834C128.093 122.261 128.153 121.782 128.478 121.314Z" fill="url(#paint3_linear_16507_286818)" fill-opacity="0.4"></path><path d="M128.478 121.314C128.522 121.251 128.559 121.183 128.587 121.111C129.457 118.914 132.999 112.878 138.553 107.807C144.098 102.744 151.482 98.7862 160.088 100.333C169.754 102.07 175.617 107.714 179.083 113.835C182.569 119.991 183.61 126.6 183.591 130.085C183.584 131.353 182.67 132.564 180.612 133.655C178.585 134.729 175.709 135.533 172.418 136.07C165.846 137.141 157.927 137.097 152.602 136.252C151.427 136.066 149.06 135.341 146.176 134.225C143.318 133.119 140.03 131.66 137.038 130.045C134.027 128.421 131.388 126.679 129.769 125.026C128.957 124.197 128.469 123.458 128.273 122.834C128.093 122.261 128.153 121.782 128.478 121.314Z" stroke="url(#paint4_linear_16507_286818)" stroke-width="2" stroke-linecap="round" stroke-linejoin="round"></path><path d="M120.745 86.0343C120.358 85.9122 119.849 85.8292 119.386 85.8132C109.481 83.8456 102.909 74.254 104.57 64.0499C106.269 53.6152 115.912 46.4859 126.213 48.1628C136.457 49.8306 143.398 59.6597 141.699 70.0944C139.981 80.2892 130.762 87.3101 120.745 86.0343Z" fill="currentColor"></path><path d="M120.745 86.0343C120.358 85.9122 119.849 85.8292 119.386 85.8132C109.481 83.8456 102.909 74.254 104.57 64.0499C106.269 53.6152 115.912 46.4859 126.213 48.1628C136.457 49.8306 143.398 59.6597 141.699 70.0944C139.981 80.2892 130.762 87.3101 120.745 86.0343Z" fill="url(#paint5_linear_16507_286818)" fill-opacity="0.4"></path><path d="M116.11 83.8925C115.669 83.7637 115.146 83.6809 114.663 83.6572C105.342 81.7643 99.1407 72.7118 100.714 63.0504C102.327 53.1417 111.472 46.4046 121.209 47.9897C130.89 49.5658 137.48 58.865 135.869 68.7708C134.24 78.4287 125.541 85.0489 116.11 83.8925Z" fill="currentColor" stroke="url(#paint6_linear_16507_286818)" stroke-width="2" stroke-linecap="round" stroke-linejoin="round"></path><path d="M111.832 139.241C105.746 138.276 77.6313 126.804 82.5387 119.746C84.7332 114.202 91.0542 85.0675 121.25 92.6951C151.445 100.323 149.865 122.199 149.82 130.792C149.773 139.443 124.674 141.277 111.832 139.241Z" fill="currentColor"></path><path d="M111.832 139.241C105.746 138.276 77.6313 126.804 82.5387 119.746C84.7332 114.202 91.0542 85.0675 121.25 92.6951C151.445 100.323 149.865 122.199 149.82 130.792C149.773 139.443 124.674 141.277 111.832 139.241Z" fill="url(#paint7_linear_16507_286818)" fill-opacity="0.5"></path><path d="M105.083 134.831C104.548 134.746 103.856 134.652 103.041 134.542C99.0769 134.005 92.1949 133.073 86.2841 130.849C82.7218 129.509 79.6576 127.749 77.8112 125.444C76.0238 123.213 75.3117 120.396 76.5723 116.668C76.6824 116.39 76.8052 116.067 76.9424 115.707C78.2062 112.392 80.6989 105.852 85.7777 100.363C91.3645 94.3253 100.114 89.531 113.99 92.0245C127.931 94.5296 134.854 101.273 138.34 108.344C141.86 115.484 141.937 123.077 141.914 127.364C141.906 128.965 140.748 130.443 138.297 131.742C135.876 133.025 132.455 133.979 128.558 134.614C120.773 135.883 111.395 135.832 105.083 134.831Z" fill="currentColor" stroke="url(#paint8_linear_16507_286818)" stroke-width="2" stroke-linecap="round" stroke-linejoin="round"></path><defs><filter id="filter0_f_16507_286818" x="19" y="-5.42578" width="218" height="218" filterUnits="userSpaceOnUse" color-interpolation-filters="sRGB"><feFlood flood-opacity="0" result="BackgroundImageFix"></feFlood><feBlend mode="normal" in="SourceGraphic" in2="BackgroundImageFix" result="shape"></feBlend><feGaussianBlur stdDeviation="32.5" result="effect1_foregroundBlur_16507_286818"></feGaussianBlur></filter><linearGradient id="paint0_linear_16507_286818" x1="167.187" y1="62.3018" x2="164.367" y2="94.2233" gradientUnits="userSpaceOnUse"><stop offset="0.0412865" stop-color="#17273b" stop-opacity="0"></stop><stop offset="1" stop-color="#17273b"></stop></linearGradient><linearGradient id="paint1_linear_16507_286818" x1="159.242" y1="64.112" x2="164.768" y2="82.6312" gradientUnits="userSpaceOnUse"><stop stop-color="white"></stop><stop offset="1" stop-color="white" stop-opacity="0"></stop></linearGradient><linearGradient id="paint2_linear_16507_286818" x1="162.143" y1="95.6553" x2="169.83" y2="131.075" gradientUnits="userSpaceOnUse"><stop offset="0.0412865" stop-color="#17273b" stop-opacity="0"></stop><stop offset="1" stop-color="#17273b"></stop></linearGradient><linearGradient id="paint3_linear_16507_286818" x1="156.856" y1="94.5541" x2="163.793" y2="128.815" gradientUnits="userSpaceOnUse"><stop offset="0.0412865" stop-color="#17273b" stop-opacity="0"></stop><stop offset="1" stop-color="#17273b"></stop></linearGradient><linearGradient id="paint4_linear_16507_286818" x1="144.234" y1="94.6826" x2="149.648" y2="122.904" gradientUnits="userSpaceOnUse"><stop stop-color="white"></stop><stop offset="1" stop-color="white" stop-opacity="0"></stop></linearGradient><linearGradient id="paint5_linear_16507_286818" x1="123.139" y1="48.1619" x2="119.807" y2="85.8848" gradientUnits="userSpaceOnUse"><stop offset="0.0412865" stop-color="#17273b" stop-opacity="0"></stop><stop offset="1" stop-color="#17273b"></stop></linearGradient><linearGradient id="paint6_linear_16507_286818" x1="113.753" y1="50.3019" x2="120.284" y2="72.1868" gradientUnits="userSpaceOnUse"><stop stop-color="white"></stop><stop offset="1" stop-color="white" stop-opacity="0"></stop></linearGradient><linearGradient id="paint7_linear_16507_286818" x1="117.39" y1="86.6763" x2="126.474" y2="128.533" gradientUnits="userSpaceOnUse"><stop offset="0.0412865" stop-color="#17273b" stop-opacity="0"></stop><stop offset="1" stop-color="#17273b"></stop></linearGradient><linearGradient id="paint8_linear_16507_286818" x1="100.73" y1="94.2671" x2="104.937" y2="122.846" gradientUnits="userSpaceOnUse"><stop stop-color="white"></stop><stop offset="1" stop-color="white" stop-opacity="0"></stop></linearGradient></defs></svg>