<svg width="130" height="26" xmlns="http://www.w3.org/2000/svg"><g fill-rule="nonzero" fill="none"><path d="M12.745 7.08c-.283 0-.566 0-.85.071.071.213.142.425.142.638 0 1.203-.92 2.124-2.124 2.124a2.029 2.029 0 0 1-1.558-.708c-.779.991-1.274 2.195-1.274 3.54 0 1.133.354 2.195.92 3.045l4.32-4.744c.212-.213.495-.354.778-.354.283 0 .567.07.779.283l3.328 3.328 1.274-1.912c-.283-2.974-2.761-5.31-5.735-5.31ZM21.95 0H3.54A3.506 3.506 0 0 0 0 3.54v12.25l1.275-.708c.354-.213.85-.213 1.203.07l3.47 2.904.566-.638c-.991-1.345-1.558-2.903-1.558-4.673 0-2.69 1.417-5.098 3.54-6.514.213-.212.496-.354.85-.496.992-.495 2.195-.779 3.4-.779 3.327 0 6.088 2.054 7.221 4.957l2.833-4.39c.283-.354.708-.567 1.132-.425l1.558.425V3.54A3.506 3.506 0 0 0 21.95 0Z" fill="#1D94C6"/><path d="m1.7 17.277-1.7.991v3.682a3.506 3.506 0 0 0 3.54 3.54h2.124v-4.956c-.141-.071-.212-.071-.283-.142L1.7 17.277Zm11.4-3.965L6.796 20.25c-.141.141-.283.212-.424.283v4.956h10.62v-8.497c-.141-.07-.283-.141-.424-.283l-3.47-3.398Zm5.097 3.257c-.141.212-.283.354-.495.424v8.497h4.248a3.506 3.506 0 0 0 3.54-3.54V7.718l-1.345-.354-5.948 9.205ZM38.943 3.965l2.337 5.806 2.266-5.806h3.186L42.2 14.161h-1.982l-4.46-10.196h3.185Zm12.32 0V14.02H48.22V3.965h3.045Zm6.925 0c.528.002.996.01 1.36.07.425.072.85.143 1.204.284.354.142.637.283.92.425.283.142.496.354.708.496.354.283.637.637.92.99.213.355.425.78.709 1.346.141.496.212 1.062.212 1.629 0 .991-.212 1.84-.566 2.478-.425.566-.85 1.133-1.346 1.487-.653.523-1.608.804-2.754.845l-.29.005h-5.452V3.965h4.375Zm15.309 0V6.02h-4.461v1.84h4.248v2.054h-4.248v2.053h4.532v2.054H65.99V3.965h7.506ZM58.132 6.02h-1.275v5.947h1.275c.779 0 1.487-.212 2.053-.566.567-.354.85-1.133.92-2.337 0-.85-.212-1.487-.495-1.912-.354-.424-.708-.778-1.133-.92a4.446 4.446 0 0 0-1.345-.212Z" fill="#FFF"/><path d="M89.924 3.824c.92 0 1.77.141 2.478.424.708.284 1.274.638 1.77 1.133.496.496.85.992 1.062 1.558.213.637.354 1.275.354 1.983 0 .99-.212 1.84-.637 2.62-.425.85-1.062 1.416-1.912 1.911-.85.496-1.912.708-3.115.708-1.275 0-2.337-.212-3.187-.708-.85-.495-1.486-1.133-1.911-1.912a5.237 5.237 0 0 1-.638-2.549c0-.92.213-1.77.638-2.549.425-.779 1.062-1.416 1.911-1.911.921-.496 1.912-.708 3.187-.708Zm-7.08.07v2.054h-4.178v1.911h4.177v2.054h-4.177v4.107H75.62V3.894h7.222Zm19.825.213c.85 0 1.487.141 2.053.495.496.284.92.708 1.133 1.204.213.425.354.92.354 1.345 0 .496-.07.92-.283 1.275-.212.354-.425.637-.637.779a6.227 6.227 0 0 1-.708.425c.283.141.566.354.778.637.192.255.44.682.798 1.332l.123.226.991 2.195h-3.257l-.779-1.77c-.283-.638-.566-1.133-.779-1.417-.283-.283-.495-.495-.708-.566a2.678 2.678 0 0 0-.645-.134l-.204-.008h-.354v3.895H97.5V4.107h5.169Zm13.453-.213v2.054h-4.46v1.84h4.248v2.054h-4.178v2.124h4.532v2.054h-7.577V3.894h7.435Zm5.027 0 .708.85c.425.496.85 1.133 1.416 1.841a51.39 51.39 0 0 1 1.275-1.7l.779-.92h3.753l-3.895 4.815 4.461 5.169h-3.894l-1.062-1.275c-.071-.07-.284-.283-.638-.779-.425-.424-.637-.778-.779-.92a37.21 37.21 0 0 1-1.416 1.84l-.92 1.134h-3.824l4.249-5.24-4.107-4.815h3.894Zm-31.225 2.62c-.78 0-1.416.213-1.912.708-.496.425-.708 1.133-.708 1.841s.212 1.345.708 1.841 1.133.708 1.912.708c.566 0 .991-.141 1.416-.354.425-.212.708-.495.92-.92.213-.354.284-.85.284-1.204 0-.425 0-.779-.142-1.062-.07-.283-.283-.567-.496-.779a2.242 2.242 0 0 0-.85-.566 2.935 2.935 0 0 0-1.132-.213Zm11.258-.637h-.637v2.407h.708c.708 0 1.203-.07 1.487-.212.283-.142.424-.425.354-.92 0-.496-.142-.78-.425-.992-.283-.212-.779-.283-1.487-.283Z" fill="#1D94C6"/><path d="M37.87 24.64c.494 0 .885-.111 1.172-.334.288-.223.432-.534.432-.932 0-.28-.061-.506-.184-.675-.122-.17-.322-.285-.599-.347v-.03a.734.734 0 0 0 .489-.301c.122-.167.183-.382.183-.642 0-.385-.14-.665-.42-.841-.28-.177-.729-.265-1.348-.265h-1.36v4.368h1.635Zm-.17-2.637h-.538v-.97h.487c.265 0 .458.035.58.108.123.073.185.193.185.36 0 .18-.057.308-.17.385-.112.078-.293.117-.544.117Zm.065 1.873h-.603v-1.138h.573c.518 0 .777.18.777.543 0 .202-.06.35-.182.448-.122.098-.31.147-.565.147Zm3.507.765v-4.368h-.926v4.368h.926Zm1.927 0v-2.056c0-.249-.019-.665-.057-1.248h.027l1.9 3.304h1.177v-4.368h-.834v2.067c0 .235.015.637.045 1.204h-.02l-1.898-3.27h-1.168v4.367h.828Zm4.594 0 .317-1.04h1.592l.317 1.04h.997l-1.547-4.386h-1.132l-1.542 4.386h.998Zm1.688-1.817h-1.138c.222-.718.381-1.245.478-1.58l.05-.178.036-.133c.016.072.043.17.08.293.036.124.201.656.494 1.598Zm3.01 1.817v-1.676h.494l1.042 1.676h1.028c-.2-.287-.627-.922-1.285-1.903.26-.114.46-.27.6-.47.142-.2.213-.43.213-.686 0-.44-.143-.768-.427-.985-.285-.216-.724-.324-1.318-.324h-1.272v4.368h.926Zm.3-2.429h-.3v-1.18h.282c.298 0 .519.044.661.132.143.087.214.234.214.442 0 .209-.07.362-.21.46-.139.097-.355.146-.647.146Zm4.633 2.429v-1.7l1.448-2.668h-.997l-.911 1.799-.905-1.799h-1.004l1.449 2.698v1.67h.92Zm2.294.788a9.258 9.258 0 0 0 .525-1.43l-.044-.07h-.837c-.071.47-.172.97-.301 1.5h.657Zm3.247-.729c.442 0 .842-.074 1.2-.224V23.7c-.436.153-.807.23-1.114.23-.73 0-1.096-.487-1.096-1.461 0-.468.096-.833.287-1.095.191-.262.46-.393.81-.393.159 0 .321.03.486.087.166.058.33.125.493.203l.299-.753a2.939 2.939 0 0 0-1.279-.307c-.416 0-.779.09-1.088.273-.31.182-.548.444-.713.786-.165.341-.248.739-.248 1.193 0 .72.168 1.274.505 1.66.337.385.823.577 1.458.577Zm3.04-.06v-1.726h1.482v-.756h-1.481v-1.126h1.592v-.759h-2.503v4.368h.91Zm3.684 0c.772 0 1.363-.19 1.773-.573.409-.382.614-.933.614-1.652 0-.675-.198-1.2-.592-1.577-.394-.376-.948-.565-1.66-.565h-1.372v4.368h1.237Zm.086-.764h-.397v-2.844h.493c.828 0 1.243.469 1.243 1.407 0 .958-.446 1.437-1.339 1.437Zm6.073.824c.48 0 .91-.132 1.29-.397l.344.338h1.126l-.899-.876c.16-.197.302-.423.427-.68.126-.255.224-.518.296-.786h-.95a3.668 3.668 0 0 1-.367.899l-.849-.828c.307-.177.53-.364.667-.56.137-.196.206-.413.206-.65a.83.83 0 0 0-.333-.691c-.222-.172-.519-.258-.889-.258-.388 0-.699.092-.93.277a.89.89 0 0 0-.349.732c0 .185.034.356.102.513.068.156.176.32.326.49-.293.168-.5.348-.62.54-.12.192-.18.425-.18.698 0 .38.141.682.426.905.285.223.67.334 1.156.334Zm-.083-2.838c-.19-.21-.284-.404-.284-.579 0-.118.038-.208.115-.272a.478.478 0 0 1 .315-.095c.114 0 .206.03.278.09a.31.31 0 0 1 .107.25.447.447 0 0 1-.137.324 1.773 1.773 0 0 1-.394.282Zm.146 2.074a.773.773 0 0 1-.494-.153.495.495 0 0 1-.193-.409c0-.125.033-.236.1-.332a1.25 1.25 0 0 1 .273-.274l.992.985a1.286 1.286 0 0 1-.678.183Zm5.747.705v-1.727h1.482v-.756h-1.482v-1.126h1.592v-.759h-2.503v4.368h.911Zm4.332.06c.669 0 1.182-.195 1.54-.583.36-.389.539-.944.539-1.667 0-.725-.178-1.28-.534-1.667-.355-.386-.868-.58-1.54-.58-.67 0-1.186.192-1.545.576-.36.383-.54.938-.54 1.665 0 .727.18 1.284.538 1.673.359.388.872.582 1.542.582Zm0-.777c-.369 0-.646-.124-.83-.37-.186-.248-.279-.615-.279-1.103s.094-.856.281-1.104c.187-.248.465-.372.834-.372.734 0 1.102.492 1.102 1.476 0 .982-.37 1.473-1.108 1.473Zm3.91.717v-1.676h.493l1.042 1.676h1.028c-.2-.287-.628-.922-1.285-1.903.26-.114.46-.27.6-.47.142-.2.213-.43.213-.686 0-.44-.143-.768-.427-.985-.285-.216-.724-.324-1.318-.324h-1.272v4.368h.926Zm.298-2.429H89.9v-1.18h.28c.3 0 .52.044.662.132.143.087.214.234.214.442 0 .209-.07.362-.21.46-.139.097-.355.146-.648.146Zm5.33 2.429v-.765h-1.59V22.75h1.479v-.76h-1.479v-.958h1.59v-.759h-2.516v4.368h2.515Zm1.353 0 1.015-1.652 1.016 1.652h1.057l-1.475-2.202 1.37-2.166h-.997l-.923 1.572-.94-1.572h-1.022l1.356 2.115-1.45 2.253h.993Zm6.912 0v-3.597h1.186v-.77h-3.298v.77h1.186v3.597h.926Zm2.784 0v-1.676h.493l1.042 1.676h1.028c-.2-.287-.627-.922-1.285-1.903.26-.114.46-.27.6-.47.142-.2.213-.43.213-.686 0-.44-.142-.768-.427-.985-.285-.216-.724-.324-1.318-.324h-1.272v4.368h.926Zm.299-2.429h-.3v-1.18h.282c.298 0 .519.044.661.132.143.087.214.234.214.442 0 .209-.07.362-.21.46-.139.097-.355.146-.647.146Zm3.262 2.429.316-1.04h1.592l.317 1.04h.998l-1.548-4.386h-1.132l-1.541 4.386h.998Zm1.687-1.817h-1.138a59.32 59.32 0 0 0 .565-1.89c.016.071.042.169.079.292.037.124.202.656.494 1.598Zm3.322 1.817c.773 0 1.364-.192 1.773-.574.41-.382.614-.933.614-1.652 0-.675-.197-1.2-.592-1.577-.394-.376-.948-.565-1.66-.565h-1.372v4.368h1.237Zm.087-.765h-.398v-2.844h.493c.829 0 1.243.469 1.243 1.407 0 .958-.446 1.437-1.338 1.437Zm4.13.765v-4.368h-.925v4.368h.926Zm1.928 0v-2.056c0-.249-.02-.665-.057-1.248h.027l1.9 3.304h1.176v-4.368h-.833v2.067c0 .235.015.637.045 1.204h-.021l-1.897-3.27h-1.168v4.367h.828Zm5.983.06a4.884 4.884 0 0 0 1.553-.248v-2.265h-1.732v.77h.827v.912c-.2.04-.395.06-.589.06-.37 0-.652-.125-.846-.375-.195-.25-.292-.612-.292-1.086 0-.454.12-.816.362-1.084.24-.27.561-.404.962-.404.344 0 .676.08.994.24l.308-.742a3.245 3.245 0 0 0-1.296-.268c-.715 0-1.274.197-1.678.591-.403.394-.605.944-.605 1.649 0 .725.174 1.28.522 1.668.347.388.85.581 1.51.581Z" fill="#FFF"/></g></svg>