<svg width="512" height="512" viewBox="0 0 512 512" fill="none" xmlns="http://www.w3.org/2000/svg">
<rect width="512" height="512" fill="white"/>
<path d="M256.028 512C221.461 512 187.95 505.22 156.384 491.882C125.874 478.989 98.5321 460.539 75.0244 437.031C51.5168 413.524 33.0663 386.126 20.1732 355.671C6.77998 324.05 0 290.539 0 255.972C0 221.405 6.77999 187.895 20.1177 156.329C33.0107 125.819 51.4612 98.4765 74.9688 74.9689C98.4765 51.4612 125.874 33.0107 156.329 20.1177C187.895 6.77998 221.461 0 255.972 0C290.483 0 324.106 6.72441 355.671 20.0621C386.181 32.9552 413.524 51.4056 437.031 74.9133C460.539 98.4209 478.989 125.819 491.882 156.273C505.22 187.839 512 221.405 512 255.917C512 290.483 505.22 323.994 491.882 355.56C478.989 386.07 460.539 413.412 437.031 436.92C413.524 460.428 386.126 478.878 355.671 491.771C324.106 505.22 290.595 512 256.028 512ZM256.028 56.8518C202.844 56.8518 152.828 77.5808 115.204 115.149C77.5808 152.772 56.9074 202.788 56.9074 255.972C56.9074 309.156 77.6364 359.173 115.204 396.796C152.828 434.364 202.844 455.093 256.028 455.093C309.212 455.093 359.228 434.364 396.851 396.796C434.419 359.173 455.148 309.156 455.148 255.972C455.148 202.788 434.419 152.772 396.851 115.149C359.228 77.5808 309.212 56.8518 256.028 56.8518Z" fill="black"/>
<path d="M240.634 319.715H351.559V375.456H283.259C284.37 391.405 284.982 406.188 286.093 422.082H228.63V376.011H160.33C160.33 357.783 158.052 339.611 161.442 322.55C163.164 313.435 173.39 305.488 179.67 297.541C201.288 271.922 222.906 246.914 245.08 221.294C253.638 211.625 262.141 202.51 271.811 191.729H165.443V135.989H228.574V89.3625H283.759V134.877H352.615C352.615 153.661 354.893 171.834 351.503 188.951C349.781 198.065 339.555 206.012 332.719 213.959C311.101 239.578 289.483 264.586 267.309 290.206C258.862 300.376 250.359 309.434 240.634 319.715Z" fill="black"/>
</svg>
